%TF.GenerationSoftware,KiCad,Pcbnew,7.0.5*%
%TF.CreationDate,2023-07-21T14:16:54+03:00*%
%TF.ProjectId,MacroPadTopPlate,4d616372-6f50-4616-9454-6f70506c6174,rev?*%
%TF.SameCoordinates,Original*%
%TF.FileFunction,Profile,NP*%
%FSLAX46Y46*%
G04 Gerber Fmt 4.6, Leading zero omitted, Abs format (unit mm)*
G04 Created by KiCad (PCBNEW 7.0.5) date 2023-07-21 14:16:54*
%MOMM*%
%LPD*%
G01*
G04 APERTURE LIST*
%TA.AperFunction,Profile*%
%ADD10C,0.200000*%
%TD*%
G04 APERTURE END LIST*
D10*
X165925815Y-57884900D02*
X165925815Y-71885600D01*
X204025915Y-90935600D02*
X190024915Y-90935600D01*
X70371335Y-134389280D02*
X70157735Y-134157770D01*
X108775815Y-38834900D02*
X108775815Y-52835600D01*
X151925115Y-76934900D02*
X165925815Y-76934900D01*
X71962965Y-135364926D02*
X71669445Y-135256062D01*
X113825115Y-57884900D02*
X127825815Y-57884900D01*
X94775015Y-38834900D02*
X108775815Y-38834900D01*
X108775815Y-52835600D02*
X94775015Y-52835600D01*
X184974915Y-71885600D02*
X170974915Y-71885600D01*
X170974915Y-90935600D02*
X170974915Y-76934900D01*
X151925115Y-129035590D02*
X151925115Y-115034700D01*
X208640915Y-134970806D02*
X208366915Y-135125146D01*
X165925815Y-38834900D02*
X165925815Y-52835600D01*
X127825815Y-38834900D02*
X127825815Y-52835600D01*
X209591915Y-134157770D02*
X209379915Y-134389280D01*
X170974915Y-115034700D02*
X184974915Y-115034700D01*
X184974915Y-90935600D02*
X170974915Y-90935600D01*
X209960915Y-133650650D02*
X209786915Y-133912470D01*
X190024915Y-109985600D02*
X190024915Y-95984900D01*
X170974915Y-129035590D02*
X170974915Y-115034700D01*
X146875815Y-57884900D02*
X146875815Y-71885600D01*
X69963431Y-33957300D02*
X70157735Y-33712300D01*
X206864915Y-135548204D02*
X206551915Y-135560608D01*
X210354915Y-35073300D02*
X210440915Y-35376300D01*
X113825115Y-129035590D02*
X113825115Y-115034700D01*
X72886265Y-32322300D02*
X73200455Y-32310300D01*
X108775815Y-57884900D02*
X108775815Y-71885600D01*
X75725005Y-57884900D02*
X89725915Y-57884900D01*
X127825815Y-76934900D02*
X127825815Y-90935600D01*
X146875815Y-76934900D02*
X146875815Y-90935600D01*
X210501915Y-132185790D02*
X210440915Y-132494470D01*
X75725005Y-52835600D02*
X75725005Y-38834900D01*
X94775015Y-115034700D02*
X108775815Y-115034700D01*
X204025915Y-71885600D02*
X190024915Y-71885600D01*
X94775015Y-129035590D02*
X94775015Y-115034700D01*
X207484915Y-32420300D02*
X207787915Y-32505300D01*
X208080915Y-32614300D02*
X208366915Y-32745300D01*
X70371335Y-33481300D02*
X70602845Y-33267300D01*
X108775815Y-76934900D02*
X108775815Y-90935600D01*
X208902915Y-134797180D02*
X208640915Y-134970806D01*
X69789801Y-133650650D02*
X69635461Y-133376420D01*
X208366915Y-135125146D02*
X208080915Y-135256062D01*
X127825815Y-129035590D02*
X113825115Y-129035590D01*
X127825815Y-109985600D02*
X113825115Y-109985600D01*
X210440915Y-35376300D02*
X210501915Y-35684300D01*
X127825815Y-71885600D02*
X113825115Y-71885600D01*
X208366915Y-32745300D02*
X208640915Y-32899300D01*
X108775815Y-109985600D02*
X94775015Y-109985600D01*
X190024915Y-95984900D02*
X204025915Y-95984900D01*
X89725915Y-90935600D02*
X75725005Y-90935600D01*
X113825115Y-115034700D02*
X127825815Y-115034700D01*
X127825815Y-52835600D02*
X113825115Y-52835600D01*
X132875115Y-95984900D02*
X146875815Y-95984900D01*
X146875815Y-38834900D02*
X146875815Y-52835600D01*
X72266135Y-135450365D02*
X71962965Y-135364926D01*
X190024915Y-57884900D02*
X204025915Y-57884900D01*
X75725005Y-71885600D02*
X75725005Y-57884900D01*
X184974915Y-52835600D02*
X170974915Y-52835600D01*
X94775015Y-90935600D02*
X94775015Y-76934900D01*
X113825115Y-76934900D02*
X127825815Y-76934900D01*
X69249609Y-132185790D02*
X69212402Y-131874360D01*
X209960915Y-34220300D02*
X210115915Y-34494300D01*
X146875815Y-115034700D02*
X146875815Y-129035590D01*
X71669445Y-135256062D02*
X71384195Y-135125146D01*
X132875115Y-38834900D02*
X146875815Y-38834900D01*
X210115915Y-34494300D02*
X210245915Y-34779300D01*
X165925815Y-90935600D02*
X151925115Y-90935600D01*
X69963431Y-133912470D02*
X69789801Y-133650650D01*
X108775815Y-95984900D02*
X108775815Y-109985600D01*
X190024915Y-52835600D02*
X190024915Y-38834900D01*
X208902915Y-33073300D02*
X209147915Y-33267300D01*
X71962965Y-32505300D02*
X72266135Y-32420300D01*
X209591915Y-33712300D02*
X209786915Y-33957300D01*
X75725005Y-129035590D02*
X75725005Y-115034700D01*
X113825115Y-71885600D02*
X113825115Y-57884900D01*
X132875115Y-90935600D02*
X132875115Y-76934900D01*
X210440915Y-132494470D02*
X210354915Y-132797640D01*
X69200000Y-36310000D02*
X69212402Y-35996100D01*
X70848135Y-33073300D02*
X71109955Y-32899300D01*
X184974915Y-76934900D02*
X184974915Y-90935600D01*
X146875815Y-109985600D02*
X132875115Y-109985600D01*
X108775815Y-129035590D02*
X94775015Y-129035590D01*
X207484915Y-135450365D02*
X207175915Y-135510997D01*
X94775015Y-76934900D02*
X108775815Y-76934900D01*
X89725915Y-109985600D02*
X75725005Y-109985600D01*
X108775815Y-115034700D02*
X108775815Y-129035590D01*
X210245915Y-34779300D02*
X210354915Y-35073300D01*
X206551915Y-135560608D02*
X73200455Y-135560608D01*
X132875115Y-76934900D02*
X146875815Y-76934900D01*
X113825115Y-95984900D02*
X127825815Y-95984900D01*
X132875115Y-71885600D02*
X132875115Y-57884900D01*
X73200455Y-135560608D02*
X72886265Y-135548204D01*
X89725915Y-95984900D02*
X89725915Y-109985600D01*
X73200455Y-32310300D02*
X206551915Y-32310300D01*
X204025915Y-57884900D02*
X204025915Y-71885600D01*
X151925115Y-38834900D02*
X165925815Y-38834900D01*
X71109955Y-32899300D02*
X71384195Y-32745300D01*
X165925815Y-71885600D02*
X151925115Y-71885600D01*
X69310243Y-132494470D02*
X69249609Y-132185790D01*
X206864915Y-32322300D02*
X207175915Y-32359300D01*
X146875815Y-52835600D02*
X132875115Y-52835600D01*
X184974915Y-109985600D02*
X170974915Y-109985600D01*
X75725005Y-109985600D02*
X75725005Y-95984900D01*
X151925115Y-52835600D02*
X151925115Y-38834900D01*
X94775015Y-71885600D02*
X94775015Y-57884900D01*
X210538915Y-35996100D02*
X210550915Y-36310000D01*
X69395681Y-132797640D02*
X69310243Y-132494470D01*
X204025915Y-129035590D02*
X190024915Y-129035590D01*
X190024915Y-76934900D02*
X204025915Y-76934900D01*
X209379915Y-33481300D02*
X209591915Y-33712300D01*
X207787915Y-135364926D02*
X207484915Y-135450365D01*
X71384195Y-135125146D02*
X71109955Y-134970806D01*
X151925115Y-95984900D02*
X165925815Y-95984900D01*
X132875115Y-57884900D02*
X146875815Y-57884900D01*
X69310243Y-35376300D02*
X69395681Y-35073300D01*
X204025915Y-109985600D02*
X190024915Y-109985600D01*
X146875815Y-95984900D02*
X146875815Y-109985600D01*
X209147915Y-33267300D02*
X209379915Y-33481300D01*
X208640915Y-32899300D02*
X208902915Y-33073300D01*
X207175915Y-32359300D02*
X207484915Y-32420300D01*
X89725915Y-57884900D02*
X89725915Y-71885600D01*
X108775815Y-71885600D02*
X94775015Y-71885600D01*
X70848135Y-134797180D02*
X70602845Y-134601490D01*
X75725005Y-95984900D02*
X89725915Y-95984900D01*
X94775015Y-57884900D02*
X108775815Y-57884900D01*
X69249609Y-35684300D02*
X69310243Y-35376300D01*
X89725915Y-71885600D02*
X75725005Y-71885600D01*
X69504545Y-34779300D02*
X69635461Y-34494300D01*
X71109955Y-134970806D02*
X70848135Y-134797180D01*
X170974915Y-52835600D02*
X170974915Y-38834900D01*
X72886265Y-135548204D02*
X72574815Y-135510997D01*
X165925815Y-76934900D02*
X165925815Y-90935600D01*
X209379915Y-134389280D02*
X209147915Y-134601490D01*
X210550915Y-131560170D02*
X210538915Y-131874360D01*
X75725005Y-115034700D02*
X89725915Y-115034700D01*
X69212402Y-131874360D02*
X69200000Y-131560170D01*
X151925115Y-57884900D02*
X165925815Y-57884900D01*
X165925815Y-95984900D02*
X165925815Y-109985600D01*
X206551915Y-32310300D02*
X206864915Y-32322300D01*
X113825115Y-52835600D02*
X113825115Y-38834900D01*
X184974915Y-95984900D02*
X184974915Y-109985600D01*
X190024915Y-71885600D02*
X190024915Y-57884900D01*
X89725915Y-52835600D02*
X75725005Y-52835600D01*
X190024915Y-115034700D02*
X204025915Y-115034700D01*
X72574815Y-32359300D02*
X72886265Y-32322300D01*
X71384195Y-32745300D02*
X71669445Y-32614300D01*
X70602845Y-33267300D02*
X70848135Y-33073300D01*
X190024915Y-38834900D02*
X204025915Y-38834900D01*
X210245915Y-133091160D02*
X210115915Y-133376420D01*
X70157735Y-134157770D02*
X69963431Y-133912470D01*
X184974915Y-38834900D02*
X184974915Y-52835600D01*
X146875815Y-90935600D02*
X132875115Y-90935600D01*
X132875115Y-52835600D02*
X132875115Y-38834900D01*
X184974915Y-129035590D02*
X170974915Y-129035590D01*
X127825815Y-95984900D02*
X127825815Y-109985600D01*
X165925815Y-109985600D02*
X151925115Y-109985600D01*
X69635461Y-133376420D02*
X69504545Y-133091160D01*
X210501915Y-35684300D02*
X210538915Y-35996100D01*
X204025915Y-52835600D02*
X190024915Y-52835600D01*
X70157735Y-33712300D02*
X70371335Y-33481300D01*
X210550915Y-36310000D02*
X210550915Y-131560170D01*
X89725915Y-115034700D02*
X89725915Y-129035590D01*
X210115915Y-133376420D02*
X209960915Y-133650650D01*
X170974915Y-38834900D02*
X184974915Y-38834900D01*
X210354915Y-132797640D02*
X210245915Y-133091160D01*
X190024915Y-90935600D02*
X190024915Y-76934900D01*
X69200000Y-131560170D02*
X69200000Y-36310000D01*
X204025915Y-38834900D02*
X204025915Y-52835600D01*
X94775015Y-95984900D02*
X108775815Y-95984900D01*
X204025915Y-76934900D02*
X204025915Y-90935600D01*
X113825115Y-38834900D02*
X127825815Y-38834900D01*
X89725915Y-129035590D02*
X75725005Y-129035590D01*
X207175915Y-135510997D02*
X206864915Y-135548204D01*
X69635461Y-34494300D02*
X69789801Y-34220300D01*
X209786915Y-133912470D02*
X209591915Y-134157770D01*
X94775015Y-109985600D02*
X94775015Y-95984900D01*
X184974915Y-57884900D02*
X184974915Y-71885600D01*
X190024915Y-129035590D02*
X190024915Y-115034700D01*
X151925115Y-115034700D02*
X165925815Y-115034700D01*
X127825815Y-57884900D02*
X127825815Y-71885600D01*
X184974915Y-115034700D02*
X184974915Y-129035590D01*
X207787915Y-32505300D02*
X208080915Y-32614300D01*
X69789801Y-34220300D02*
X69963431Y-33957300D01*
X113825115Y-109985600D02*
X113825115Y-95984900D01*
X75725005Y-38834900D02*
X89725915Y-38834900D01*
X127825815Y-90935600D02*
X113825115Y-90935600D01*
X209786915Y-33957300D02*
X209960915Y-34220300D01*
X170974915Y-57884900D02*
X184974915Y-57884900D01*
X165925815Y-52835600D02*
X151925115Y-52835600D01*
X108775815Y-90935600D02*
X94775015Y-90935600D01*
X89725915Y-38834900D02*
X89725915Y-52835600D01*
X209147915Y-134601490D02*
X208902915Y-134797180D01*
X94775015Y-52835600D02*
X94775015Y-38834900D01*
X69212402Y-35996100D02*
X69249609Y-35684300D01*
X132875115Y-109985600D02*
X132875115Y-95984900D01*
X210538915Y-131874360D02*
X210501915Y-132185790D01*
X75725005Y-90935600D02*
X75725005Y-76934900D01*
X89725915Y-76934900D02*
X89725915Y-90935600D01*
X132875115Y-129035590D02*
X132875115Y-115034700D01*
X165925815Y-115034700D02*
X165925815Y-129035590D01*
X127825815Y-115034700D02*
X127825815Y-129035590D01*
X165925815Y-129035590D02*
X151925115Y-129035590D01*
X204025915Y-115034700D02*
X204025915Y-129035590D01*
X72574815Y-135510997D02*
X72266135Y-135450365D01*
X170974915Y-71885600D02*
X170974915Y-57884900D01*
X75725005Y-76934900D02*
X89725915Y-76934900D01*
X151925115Y-71885600D02*
X151925115Y-57884900D01*
X69504545Y-133091160D02*
X69395681Y-132797640D01*
X72266135Y-32420300D02*
X72574815Y-32359300D01*
X170974915Y-76934900D02*
X184974915Y-76934900D01*
X170974915Y-109985600D02*
X170974915Y-95984900D01*
X146875815Y-71885600D02*
X132875115Y-71885600D01*
X113825115Y-90935600D02*
X113825115Y-76934900D01*
X151925115Y-90935600D02*
X151925115Y-76934900D01*
X146875815Y-129035590D02*
X132875115Y-129035590D01*
X170974915Y-95984900D02*
X184974915Y-95984900D01*
X132875115Y-115034700D02*
X146875815Y-115034700D01*
X151925115Y-109985600D02*
X151925115Y-95984900D01*
X70602845Y-134601490D02*
X70371335Y-134389280D01*
X69395681Y-35073300D02*
X69504545Y-34779300D01*
X204025915Y-95984900D02*
X204025915Y-109985600D01*
X71669445Y-32614300D02*
X71962965Y-32505300D01*
X208080915Y-135256062D02*
X207787915Y-135364926D01*
M02*
