%TF.GenerationSoftware,KiCad,Pcbnew,7.0.5*%
%TF.CreationDate,2023-07-21T14:17:52+03:00*%
%TF.ProjectId,MacroPadBottomPlate,4d616372-6f50-4616-9442-6f74746f6d50,rev?*%
%TF.SameCoordinates,Original*%
%TF.FileFunction,Copper,L1,Top*%
%TF.FilePolarity,Positive*%
%FSLAX46Y46*%
G04 Gerber Fmt 4.6, Leading zero omitted, Abs format (unit mm)*
G04 Created by KiCad (PCBNEW 7.0.5) date 2023-07-21 14:17:52*
%MOMM*%
%LPD*%
G01*
G04 APERTURE LIST*
G04 APERTURE END LIST*
%TA.AperFunction,NonConductor*%
G36*
X236656209Y-42228262D02*
G01*
X236723837Y-42233098D01*
X236874209Y-42244931D01*
X236882505Y-42246153D01*
X236978105Y-42266950D01*
X236979219Y-42267204D01*
X237097289Y-42295550D01*
X237104482Y-42297747D01*
X237104536Y-42297767D01*
X237201252Y-42333840D01*
X237203273Y-42334635D01*
X237310283Y-42378961D01*
X237316255Y-42381818D01*
X237408804Y-42432353D01*
X237411397Y-42433854D01*
X237508409Y-42493303D01*
X237513166Y-42496530D01*
X237549756Y-42523921D01*
X237598285Y-42560250D01*
X237601397Y-42562739D01*
X237687277Y-42636088D01*
X237690853Y-42639394D01*
X237766211Y-42714752D01*
X237769509Y-42718319D01*
X237800508Y-42754615D01*
X237842864Y-42804208D01*
X237845353Y-42807319D01*
X237883001Y-42857609D01*
X237909064Y-42892426D01*
X237912290Y-42897180D01*
X237971721Y-42994163D01*
X237973274Y-42996846D01*
X238023775Y-43089333D01*
X238026641Y-43095324D01*
X238070958Y-43202313D01*
X238071768Y-43204373D01*
X238107851Y-43301116D01*
X238110049Y-43308316D01*
X238138375Y-43426299D01*
X238138671Y-43427594D01*
X238159443Y-43523080D01*
X238160670Y-43531404D01*
X238172479Y-43681457D01*
X238177343Y-43749469D01*
X238177501Y-43753852D01*
X238240998Y-140332862D01*
X238240840Y-140337328D01*
X238236005Y-140404913D01*
X238223425Y-140564800D01*
X238222198Y-140573125D01*
X238200749Y-140671724D01*
X238200453Y-140673019D01*
X238170644Y-140797177D01*
X238168446Y-140804375D01*
X238131051Y-140904638D01*
X238130240Y-140906699D01*
X238083709Y-141019033D01*
X238080842Y-141025024D01*
X238028424Y-141121019D01*
X238026872Y-141123701D01*
X237964544Y-141225411D01*
X237961312Y-141230173D01*
X237895159Y-141318543D01*
X237892670Y-141321655D01*
X237815747Y-141411720D01*
X237812441Y-141415296D01*
X237734192Y-141493545D01*
X237730616Y-141496851D01*
X237640556Y-141573770D01*
X237637444Y-141576259D01*
X237549069Y-141642416D01*
X237544306Y-141645648D01*
X237442594Y-141707976D01*
X237439913Y-141709528D01*
X237343920Y-141761946D01*
X237337928Y-141764812D01*
X237225600Y-141811340D01*
X237223541Y-141812150D01*
X237123276Y-141849547D01*
X237116077Y-141851745D01*
X237107461Y-141853813D01*
X236991864Y-141881564D01*
X236990571Y-141881860D01*
X236892031Y-141903296D01*
X236883707Y-141904524D01*
X236724134Y-141917083D01*
X236667177Y-141921157D01*
X236656150Y-141921946D01*
X236651731Y-141922104D01*
X73143715Y-141922104D01*
X73139292Y-141921946D01*
X73134974Y-141921637D01*
X73072105Y-141917139D01*
X72911733Y-141904515D01*
X72903410Y-141903288D01*
X72805281Y-141881941D01*
X72803987Y-141881645D01*
X72679360Y-141851725D01*
X72672160Y-141849527D01*
X72572173Y-141812234D01*
X72570113Y-141811424D01*
X72457498Y-141764777D01*
X72451507Y-141761911D01*
X72397494Y-141732418D01*
X72355720Y-141709608D01*
X72353073Y-141708075D01*
X72301560Y-141676508D01*
X72251117Y-141645596D01*
X72246354Y-141642365D01*
X72158152Y-141576337D01*
X72155041Y-141573848D01*
X72064813Y-141496787D01*
X72061237Y-141493481D01*
X71983111Y-141415355D01*
X71979816Y-141411791D01*
X71902750Y-141321559D01*
X71900276Y-141318465D01*
X71834229Y-141230238D01*
X71831009Y-141225493D01*
X71768542Y-141123557D01*
X71767002Y-141120895D01*
X71714685Y-141025085D01*
X71711818Y-141019093D01*
X71665174Y-140906483D01*
X71664385Y-140904481D01*
X71627068Y-140804430D01*
X71624876Y-140797249D01*
X71594939Y-140672554D01*
X71594681Y-140671428D01*
X71573306Y-140573170D01*
X71572083Y-140564871D01*
X71564441Y-140467777D01*
X71559435Y-140404156D01*
X71554658Y-140337369D01*
X71554500Y-140332945D01*
X71554500Y-139541354D01*
X73373341Y-139541354D01*
X73393936Y-139776757D01*
X73393938Y-139776767D01*
X73455094Y-140005009D01*
X73455096Y-140005013D01*
X73455097Y-140005017D01*
X73505031Y-140112099D01*
X73554964Y-140219182D01*
X73554965Y-140219184D01*
X73690505Y-140412756D01*
X73857597Y-140579848D01*
X74051169Y-140715388D01*
X74051171Y-140715389D01*
X74265337Y-140815257D01*
X74493592Y-140876417D01*
X74670032Y-140891853D01*
X74670033Y-140891854D01*
X74670034Y-140891854D01*
X74787967Y-140891854D01*
X74787967Y-140891853D01*
X74964408Y-140876417D01*
X75192663Y-140815257D01*
X75406829Y-140715389D01*
X75600401Y-140579849D01*
X75767495Y-140412755D01*
X75903035Y-140219184D01*
X76002903Y-140005017D01*
X76064063Y-139776762D01*
X76084659Y-139541354D01*
X205929591Y-139541354D01*
X205950186Y-139776757D01*
X205950188Y-139776767D01*
X206011344Y-140005009D01*
X206011346Y-140005013D01*
X206011347Y-140005017D01*
X206061280Y-140112100D01*
X206111214Y-140219182D01*
X206111215Y-140219184D01*
X206246755Y-140412756D01*
X206413847Y-140579848D01*
X206607419Y-140715388D01*
X206607421Y-140715389D01*
X206821587Y-140815257D01*
X207049842Y-140876417D01*
X207226282Y-140891853D01*
X207226283Y-140891854D01*
X207226284Y-140891854D01*
X207344217Y-140891854D01*
X207344217Y-140891853D01*
X207520658Y-140876417D01*
X207748913Y-140815257D01*
X207963079Y-140715389D01*
X208156651Y-140579849D01*
X208323745Y-140412755D01*
X208459285Y-140219184D01*
X208559153Y-140005017D01*
X208620313Y-139776762D01*
X208640909Y-139541354D01*
X208620313Y-139305946D01*
X208559153Y-139077691D01*
X208459285Y-138863525D01*
X208459284Y-138863523D01*
X208323744Y-138669951D01*
X208156652Y-138502859D01*
X207963080Y-138367319D01*
X207963078Y-138367318D01*
X207855995Y-138317384D01*
X207748913Y-138267451D01*
X207748909Y-138267450D01*
X207748905Y-138267448D01*
X207520663Y-138206292D01*
X207520653Y-138206290D01*
X207344217Y-138190854D01*
X207344216Y-138190854D01*
X207226284Y-138190854D01*
X207226283Y-138190854D01*
X207049846Y-138206290D01*
X207049836Y-138206292D01*
X206821594Y-138267448D01*
X206821585Y-138267452D01*
X206607421Y-138367318D01*
X206607419Y-138367319D01*
X206413847Y-138502859D01*
X206246756Y-138669951D01*
X206246751Y-138669958D01*
X206111217Y-138863519D01*
X206111215Y-138863523D01*
X206011348Y-139077689D01*
X206011344Y-139077698D01*
X205950188Y-139305940D01*
X205950186Y-139305950D01*
X205929591Y-139541353D01*
X205929591Y-139541354D01*
X76084659Y-139541354D01*
X76064063Y-139305946D01*
X76002903Y-139077691D01*
X75903035Y-138863525D01*
X75903034Y-138863523D01*
X75767494Y-138669951D01*
X75600402Y-138502859D01*
X75406830Y-138367319D01*
X75406828Y-138367318D01*
X75299746Y-138317385D01*
X75192663Y-138267451D01*
X75192659Y-138267450D01*
X75192655Y-138267448D01*
X74964413Y-138206292D01*
X74964403Y-138206290D01*
X74787967Y-138190854D01*
X74787966Y-138190854D01*
X74670034Y-138190854D01*
X74670033Y-138190854D01*
X74493596Y-138206290D01*
X74493586Y-138206292D01*
X74265344Y-138267448D01*
X74265335Y-138267452D01*
X74051171Y-138367318D01*
X74051169Y-138367319D01*
X73857597Y-138502859D01*
X73690506Y-138669951D01*
X73690501Y-138669958D01*
X73554967Y-138863519D01*
X73554965Y-138863523D01*
X73455098Y-139077689D01*
X73455094Y-139077698D01*
X73393938Y-139305940D01*
X73393936Y-139305950D01*
X73373341Y-139541353D01*
X73373341Y-139541354D01*
X71554500Y-139541354D01*
X71554500Y-44291354D01*
X71998341Y-44291354D01*
X72018936Y-44526757D01*
X72018938Y-44526767D01*
X72080094Y-44755009D01*
X72080096Y-44755013D01*
X72080097Y-44755017D01*
X72130031Y-44862100D01*
X72179964Y-44969182D01*
X72179965Y-44969184D01*
X72315505Y-45162756D01*
X72482597Y-45329848D01*
X72676169Y-45465388D01*
X72676171Y-45465389D01*
X72890337Y-45565257D01*
X73118592Y-45626417D01*
X73295032Y-45641853D01*
X73295033Y-45641854D01*
X73295034Y-45641854D01*
X73412967Y-45641854D01*
X73412967Y-45641853D01*
X73589408Y-45626417D01*
X73817663Y-45565257D01*
X74031829Y-45465389D01*
X74225401Y-45329849D01*
X74392495Y-45162755D01*
X74528035Y-44969184D01*
X74627903Y-44755017D01*
X74689063Y-44526762D01*
X74709659Y-44291354D01*
X205929591Y-44291354D01*
X205950186Y-44526757D01*
X205950188Y-44526767D01*
X206011344Y-44755009D01*
X206011346Y-44755013D01*
X206011347Y-44755017D01*
X206061281Y-44862099D01*
X206111214Y-44969182D01*
X206111215Y-44969184D01*
X206246755Y-45162756D01*
X206413847Y-45329848D01*
X206607419Y-45465388D01*
X206607421Y-45465389D01*
X206821587Y-45565257D01*
X207049842Y-45626417D01*
X207226282Y-45641853D01*
X207226283Y-45641854D01*
X207226284Y-45641854D01*
X207344217Y-45641854D01*
X207344217Y-45641853D01*
X207520658Y-45626417D01*
X207748913Y-45565257D01*
X207963079Y-45465389D01*
X208156651Y-45329849D01*
X208323745Y-45162755D01*
X208459285Y-44969184D01*
X208559153Y-44755017D01*
X208620313Y-44526762D01*
X208640909Y-44291354D01*
X208620313Y-44055946D01*
X208559153Y-43827691D01*
X208459285Y-43613525D01*
X208459284Y-43613523D01*
X208323744Y-43419951D01*
X208156652Y-43252859D01*
X207963080Y-43117319D01*
X207963078Y-43117318D01*
X207855995Y-43067385D01*
X207748913Y-43017451D01*
X207748909Y-43017450D01*
X207748905Y-43017448D01*
X207520663Y-42956292D01*
X207520653Y-42956290D01*
X207344217Y-42940854D01*
X207344216Y-42940854D01*
X207226284Y-42940854D01*
X207226283Y-42940854D01*
X207049846Y-42956290D01*
X207049836Y-42956292D01*
X206821594Y-43017448D01*
X206821587Y-43017450D01*
X206821587Y-43017451D01*
X206808066Y-43023755D01*
X206607421Y-43117318D01*
X206607419Y-43117319D01*
X206413847Y-43252859D01*
X206246756Y-43419951D01*
X206246751Y-43419958D01*
X206111217Y-43613519D01*
X206111215Y-43613523D01*
X206011348Y-43827689D01*
X206011344Y-43827698D01*
X205950188Y-44055940D01*
X205950186Y-44055950D01*
X205929591Y-44291353D01*
X205929591Y-44291354D01*
X74709659Y-44291354D01*
X74689063Y-44055946D01*
X74627903Y-43827691D01*
X74528035Y-43613525D01*
X74528034Y-43613523D01*
X74392494Y-43419951D01*
X74225402Y-43252859D01*
X74031830Y-43117319D01*
X74031828Y-43117318D01*
X73924745Y-43067385D01*
X73817663Y-43017451D01*
X73817659Y-43017450D01*
X73817655Y-43017448D01*
X73589413Y-42956292D01*
X73589403Y-42956290D01*
X73412967Y-42940854D01*
X73412966Y-42940854D01*
X73295034Y-42940854D01*
X73295033Y-42940854D01*
X73118596Y-42956290D01*
X73118586Y-42956292D01*
X72890344Y-43017448D01*
X72890337Y-43017450D01*
X72890337Y-43017451D01*
X72876816Y-43023755D01*
X72676171Y-43117318D01*
X72676169Y-43117319D01*
X72482597Y-43252859D01*
X72315506Y-43419951D01*
X72315501Y-43419958D01*
X72179967Y-43613519D01*
X72179965Y-43613523D01*
X72080098Y-43827689D01*
X72080094Y-43827698D01*
X72018938Y-44055940D01*
X72018936Y-44055950D01*
X71998341Y-44291353D01*
X71998341Y-44291354D01*
X71554500Y-44291354D01*
X71554500Y-43753814D01*
X71554658Y-43749390D01*
X71559472Y-43682084D01*
X71571338Y-43531337D01*
X71572562Y-43523040D01*
X71593281Y-43427793D01*
X71593520Y-43426750D01*
X71621970Y-43308246D01*
X71624162Y-43301068D01*
X71660177Y-43204506D01*
X71660916Y-43202626D01*
X71705396Y-43095240D01*
X71708243Y-43089289D01*
X71758681Y-42996917D01*
X71760173Y-42994341D01*
X71819771Y-42897087D01*
X71822964Y-42892381D01*
X71886577Y-42807403D01*
X71889040Y-42804325D01*
X71962582Y-42718218D01*
X71965841Y-42714693D01*
X72041106Y-42639428D01*
X72044618Y-42636182D01*
X72130757Y-42562612D01*
X72133763Y-42560207D01*
X72218776Y-42496567D01*
X72223479Y-42493375D01*
X72320743Y-42433772D01*
X72323338Y-42432270D01*
X72415706Y-42381833D01*
X72421623Y-42379003D01*
X72529030Y-42334514D01*
X72530876Y-42333788D01*
X72627469Y-42297761D01*
X72634635Y-42295573D01*
X72753163Y-42267117D01*
X72754224Y-42266874D01*
X72849435Y-42246162D01*
X72857733Y-42244939D01*
X73008787Y-42233050D01*
X73075734Y-42228262D01*
X73080159Y-42228104D01*
X236651785Y-42228104D01*
X236656209Y-42228262D01*
G37*
%TD.AperFunction*%
M02*
