%TF.GenerationSoftware,KiCad,Pcbnew,7.0.5*%
%TF.CreationDate,2023-07-21T14:17:52+03:00*%
%TF.ProjectId,MacroPadBottomPlate,4d616372-6f50-4616-9442-6f74746f6d50,rev?*%
%TF.SameCoordinates,Original*%
%TF.FileFunction,Legend,Bot*%
%TF.FilePolarity,Positive*%
%FSLAX46Y46*%
G04 Gerber Fmt 4.6, Leading zero omitted, Abs format (unit mm)*
G04 Created by KiCad (PCBNEW 7.0.5) date 2023-07-21 14:17:52*
%MOMM*%
%LPD*%
G01*
G04 APERTURE LIST*
G04 APERTURE END LIST*
%TO.C,G\u002A\u002A\u002A*%
G36*
X161376792Y-116695425D02*
G01*
X161376792Y-118522548D01*
X159399906Y-118522548D01*
X157423019Y-118522548D01*
X157423019Y-116695425D01*
X157423019Y-114868302D01*
X159399906Y-114868302D01*
X161376792Y-114868302D01*
X161376792Y-116695425D01*
G37*
G36*
X155086698Y-124902500D02*
G01*
X155086698Y-133738585D01*
X153079859Y-133738585D01*
X151073019Y-133738585D01*
X151073019Y-124902500D01*
X151073019Y-116066416D01*
X153079859Y-116066416D01*
X155086698Y-116066416D01*
X155086698Y-124902500D01*
G37*
G36*
X161376792Y-127420462D02*
G01*
X161376774Y-128457864D01*
X161376863Y-129456407D01*
X161377296Y-130347304D01*
X161378311Y-131136836D01*
X161380144Y-131831290D01*
X161383034Y-132436947D01*
X161387217Y-132960093D01*
X161392931Y-133407010D01*
X161400413Y-133783984D01*
X161409901Y-134097298D01*
X161421632Y-134353235D01*
X161435843Y-134558081D01*
X161452772Y-134718118D01*
X161472656Y-134839631D01*
X161495733Y-134928903D01*
X161522240Y-134992218D01*
X161552413Y-135035861D01*
X161586491Y-135066116D01*
X161624712Y-135089265D01*
X161667311Y-135111594D01*
X161689443Y-135118598D01*
X161819081Y-135134141D01*
X162056954Y-135147188D01*
X162404987Y-135157778D01*
X162865106Y-135165948D01*
X163439238Y-135171736D01*
X164129307Y-135175181D01*
X164937241Y-135176321D01*
X168086226Y-135176321D01*
X168086226Y-137183161D01*
X168086226Y-139190000D01*
X164926203Y-139187910D01*
X164519042Y-139187529D01*
X163822681Y-139185920D01*
X163228848Y-139182489D01*
X162726183Y-139176441D01*
X162303321Y-139166978D01*
X161948902Y-139153304D01*
X161651563Y-139134623D01*
X161399942Y-139110139D01*
X161182677Y-139079056D01*
X160988406Y-139040577D01*
X160805766Y-138993906D01*
X160623396Y-138938246D01*
X160429933Y-138872802D01*
X159844096Y-138621184D01*
X159250463Y-138255875D01*
X158725657Y-137810376D01*
X158283982Y-137297009D01*
X157939744Y-136728092D01*
X157894415Y-136637223D01*
X157829525Y-136510743D01*
X157771314Y-136396870D01*
X157719406Y-136288982D01*
X157673430Y-136180459D01*
X157633011Y-136064681D01*
X157597776Y-135935026D01*
X157567351Y-135784874D01*
X157541362Y-135607604D01*
X157519437Y-135396595D01*
X157501201Y-135145226D01*
X157486281Y-134846877D01*
X157474304Y-134494927D01*
X157464895Y-134082755D01*
X157457681Y-133603740D01*
X157452289Y-133051262D01*
X157448345Y-132418700D01*
X157445476Y-131699433D01*
X157443307Y-130886841D01*
X157441466Y-129974302D01*
X157439579Y-128955196D01*
X157437271Y-127822901D01*
X157420364Y-120199906D01*
X159398578Y-120199906D01*
X161376792Y-120199906D01*
X161376792Y-127420462D01*
G37*
G36*
X183347193Y-116080824D02*
G01*
X189502500Y-116099490D01*
X189951792Y-116235905D01*
X190270926Y-116343723D01*
X190954071Y-116659148D01*
X191559381Y-117064758D01*
X192083937Y-117557539D01*
X192524815Y-118134476D01*
X192879096Y-118792557D01*
X193143857Y-119528768D01*
X193144077Y-119529548D01*
X193168048Y-119616719D01*
X193188929Y-119702951D01*
X193206972Y-119796870D01*
X193222429Y-119907099D01*
X193235552Y-120042264D01*
X193246593Y-120210989D01*
X193255804Y-120421901D01*
X193263437Y-120683623D01*
X193269744Y-121004781D01*
X193274976Y-121394000D01*
X193279387Y-121859904D01*
X193283227Y-122411119D01*
X193286749Y-123056270D01*
X193290205Y-123803981D01*
X193293846Y-124662878D01*
X193294895Y-124926048D01*
X193297798Y-125894910D01*
X193298681Y-126748595D01*
X193297509Y-127490788D01*
X193294246Y-128125176D01*
X193288858Y-128655445D01*
X193281311Y-129085282D01*
X193271569Y-129418373D01*
X193259598Y-129658405D01*
X193245363Y-129809065D01*
X193084887Y-130531363D01*
X192821140Y-131196994D01*
X192459024Y-131799361D01*
X192003290Y-132332901D01*
X191458689Y-132792054D01*
X190829973Y-133171257D01*
X190121894Y-133464950D01*
X189838711Y-133548241D01*
X189524530Y-133622853D01*
X189253262Y-133670784D01*
X189223319Y-133673591D01*
X189063563Y-133681121D01*
X188796190Y-133688448D01*
X188430113Y-133695484D01*
X187974245Y-133702144D01*
X187437500Y-133708343D01*
X186828789Y-133713993D01*
X186157026Y-133719009D01*
X185431124Y-133723304D01*
X184659996Y-133726793D01*
X183852554Y-133729390D01*
X183017712Y-133731007D01*
X177191887Y-133738585D01*
X177191887Y-131731746D01*
X177191887Y-129724906D01*
X182998836Y-129724906D01*
X183555628Y-129724717D01*
X184489353Y-129723472D01*
X185349212Y-129721106D01*
X186130099Y-129717667D01*
X186826911Y-129713204D01*
X187434542Y-129707766D01*
X187947887Y-129701403D01*
X188361842Y-129694163D01*
X188671301Y-129686096D01*
X188871161Y-129677250D01*
X188956316Y-129667674D01*
X189090985Y-129581724D01*
X189214815Y-129445682D01*
X189231985Y-129415951D01*
X189250246Y-129369839D01*
X189265889Y-129304787D01*
X189279117Y-129212390D01*
X189290130Y-129084242D01*
X189299129Y-128911936D01*
X189306316Y-128687067D01*
X189311892Y-128401229D01*
X189316058Y-128046015D01*
X189319016Y-127613020D01*
X189320966Y-127093838D01*
X189322110Y-126480062D01*
X189322648Y-125763287D01*
X189322783Y-124935108D01*
X189322782Y-124631373D01*
X189322614Y-123814935D01*
X189321794Y-123107474D01*
X189319805Y-122500902D01*
X189316131Y-121987133D01*
X189310252Y-121558078D01*
X189301652Y-121205652D01*
X189289813Y-120921768D01*
X189274217Y-120698339D01*
X189254347Y-120527277D01*
X189229686Y-120400497D01*
X189199715Y-120309911D01*
X189163917Y-120247432D01*
X189121775Y-120204974D01*
X189072771Y-120174449D01*
X189016387Y-120147771D01*
X189005238Y-120144122D01*
X188917551Y-120132238D01*
X188751060Y-120121705D01*
X188501664Y-120112477D01*
X188165262Y-120104509D01*
X187737755Y-120097754D01*
X187215041Y-120092165D01*
X186593021Y-120087696D01*
X185867594Y-120084301D01*
X185034660Y-120081933D01*
X184090119Y-120080547D01*
X183029870Y-120080095D01*
X177191887Y-120080095D01*
X177191887Y-118071126D01*
X177191887Y-116062157D01*
X183347193Y-116080824D01*
G37*
G36*
X108779623Y-122028953D02*
G01*
X108779621Y-122180633D01*
X108779568Y-123268758D01*
X108779633Y-124244159D01*
X108780088Y-125113097D01*
X108781204Y-125881836D01*
X108783252Y-126556640D01*
X108786503Y-127143772D01*
X108791227Y-127649494D01*
X108797697Y-128080070D01*
X108806182Y-128441763D01*
X108816955Y-128740837D01*
X108830286Y-128983553D01*
X108846446Y-129176177D01*
X108865707Y-129324970D01*
X108888339Y-129436196D01*
X108914613Y-129516118D01*
X108944800Y-129571000D01*
X108979172Y-129607104D01*
X109018000Y-129630693D01*
X109061554Y-129648031D01*
X109110106Y-129665382D01*
X109143225Y-129672379D01*
X109296562Y-129685509D01*
X109559105Y-129696987D01*
X109923743Y-129706680D01*
X110383365Y-129714452D01*
X110930861Y-129720170D01*
X111559118Y-129723700D01*
X112261026Y-129724906D01*
X112333542Y-129724907D01*
X113033198Y-129724825D01*
X113623617Y-129723771D01*
X114114455Y-129720599D01*
X114515369Y-129714163D01*
X114836015Y-129703315D01*
X115086050Y-129686911D01*
X115275129Y-129663803D01*
X115412909Y-129632846D01*
X115509046Y-129592893D01*
X115573198Y-129542797D01*
X115615019Y-129481413D01*
X115644167Y-129407594D01*
X115670298Y-129320194D01*
X115671308Y-129316633D01*
X115690815Y-129181541D01*
X115705558Y-128935414D01*
X115715568Y-128576513D01*
X115720877Y-128103102D01*
X115721520Y-127513443D01*
X115717528Y-126805798D01*
X115698726Y-124515700D01*
X115532667Y-124349666D01*
X115366607Y-124183633D01*
X112192926Y-124166639D01*
X109019245Y-124149645D01*
X109019245Y-122174775D01*
X109019245Y-120199906D01*
X112280187Y-120199906D01*
X112930309Y-120200122D01*
X113583980Y-120201349D01*
X114138704Y-120204339D01*
X114605695Y-120209844D01*
X114996169Y-120218613D01*
X115321340Y-120231396D01*
X115592424Y-120248945D01*
X115820634Y-120272008D01*
X116017186Y-120301337D01*
X116193295Y-120337681D01*
X116360176Y-120381790D01*
X116529043Y-120434416D01*
X116711112Y-120496307D01*
X116928410Y-120577904D01*
X117431749Y-120825435D01*
X117900430Y-121150308D01*
X118364866Y-121572313D01*
X118669838Y-121900943D01*
X119011299Y-122349040D01*
X119277100Y-122818789D01*
X119489292Y-123344953D01*
X119652500Y-123824199D01*
X119652500Y-126879387D01*
X119652500Y-129934576D01*
X119459147Y-130503680D01*
X119437093Y-130567427D01*
X119128422Y-131283714D01*
X118738826Y-131914933D01*
X118272309Y-132457688D01*
X117732876Y-132908585D01*
X117124531Y-133264228D01*
X116451280Y-133521222D01*
X115717126Y-133676172D01*
X115669926Y-133680694D01*
X115486889Y-133689621D01*
X115202531Y-133697406D01*
X114829454Y-133703921D01*
X114380264Y-133709039D01*
X113867563Y-133712631D01*
X113303955Y-133714571D01*
X112702044Y-133714731D01*
X112074434Y-133712985D01*
X111920407Y-133712309D01*
X111222583Y-133708830D01*
X110631906Y-133704902D01*
X110137827Y-133700179D01*
X109729800Y-133694315D01*
X109397277Y-133686962D01*
X109129713Y-133677775D01*
X108916559Y-133666407D01*
X108747269Y-133652512D01*
X108611296Y-133635744D01*
X108498093Y-133615755D01*
X108397113Y-133592200D01*
X108107545Y-133510239D01*
X107382843Y-133232569D01*
X106745367Y-132873049D01*
X106193996Y-132430681D01*
X105727610Y-131904463D01*
X105345091Y-131293394D01*
X105045319Y-130596473D01*
X104855802Y-130054387D01*
X104839709Y-122461345D01*
X104823615Y-114868302D01*
X106801619Y-114868302D01*
X108779623Y-114868302D01*
X108779623Y-122028953D01*
G37*
G36*
X169717148Y-120200205D02*
G01*
X170393644Y-120201640D01*
X170975749Y-120204999D01*
X171472847Y-120211087D01*
X171894326Y-120220708D01*
X172249570Y-120234666D01*
X172547965Y-120253765D01*
X172798898Y-120278809D01*
X173011753Y-120310601D01*
X173195916Y-120349947D01*
X173360774Y-120397651D01*
X173515711Y-120454516D01*
X173670114Y-120521346D01*
X173833368Y-120598946D01*
X174014859Y-120688119D01*
X174199650Y-120786267D01*
X174718989Y-121148565D01*
X175174418Y-121599075D01*
X175553282Y-122121311D01*
X175842931Y-122698782D01*
X176030709Y-123315000D01*
X176032354Y-123322869D01*
X176102901Y-123877597D01*
X176101130Y-124473472D01*
X176029926Y-125062945D01*
X175892174Y-125598469D01*
X175858554Y-125692684D01*
X175575575Y-126307038D01*
X175206671Y-126841460D01*
X174744839Y-127304579D01*
X174183079Y-127705026D01*
X174017336Y-127801503D01*
X173808917Y-127908470D01*
X173593398Y-127998683D01*
X173359513Y-128073532D01*
X173095994Y-128134409D01*
X172791573Y-128182703D01*
X172434981Y-128219806D01*
X172014952Y-128247109D01*
X171520216Y-128266002D01*
X170939507Y-128277877D01*
X170261555Y-128284123D01*
X169475095Y-128286132D01*
X169077563Y-128286800D01*
X168454666Y-128290308D01*
X167928628Y-128296698D01*
X167504037Y-128305858D01*
X167185477Y-128317678D01*
X166977535Y-128332046D01*
X166884795Y-128348852D01*
X166800665Y-128408712D01*
X166666279Y-128596248D01*
X166591880Y-128838932D01*
X166580976Y-129101956D01*
X166637077Y-129350513D01*
X166763694Y-129549797D01*
X166938803Y-129724906D01*
X171466288Y-129724906D01*
X175993774Y-129724906D01*
X175993774Y-131734758D01*
X175993774Y-133744609D01*
X171276203Y-133724513D01*
X171112876Y-133723817D01*
X170270524Y-133720142D01*
X169537840Y-133716638D01*
X168906222Y-133713051D01*
X168367070Y-133709128D01*
X167911784Y-133704613D01*
X167531762Y-133699254D01*
X167218405Y-133692796D01*
X166963112Y-133684986D01*
X166757281Y-133675570D01*
X166592313Y-133664294D01*
X166459607Y-133650904D01*
X166350562Y-133635146D01*
X166256577Y-133616767D01*
X166169052Y-133595513D01*
X166079387Y-133571129D01*
X165603475Y-133413999D01*
X165027842Y-133157868D01*
X164495991Y-132849085D01*
X164033184Y-132502690D01*
X163664688Y-132133722D01*
X163275820Y-131590116D01*
X162946310Y-130938496D01*
X162720095Y-130238474D01*
X162601039Y-129502285D01*
X162593009Y-128742162D01*
X162663479Y-128139156D01*
X162844424Y-127406628D01*
X163122578Y-126731953D01*
X163493375Y-126122347D01*
X163952247Y-125585027D01*
X164494626Y-125127207D01*
X165115946Y-124756104D01*
X165239085Y-124695593D01*
X165422040Y-124608818D01*
X165592141Y-124536215D01*
X165761447Y-124476419D01*
X165942020Y-124428064D01*
X166145919Y-124389786D01*
X166385204Y-124360218D01*
X166671937Y-124337996D01*
X167018176Y-124321754D01*
X167435983Y-124310126D01*
X167937418Y-124301748D01*
X168534540Y-124295254D01*
X169239410Y-124289278D01*
X169599705Y-124286026D01*
X170217349Y-124278671D01*
X170760857Y-124269791D01*
X171222615Y-124259597D01*
X171595011Y-124248300D01*
X171870433Y-124236112D01*
X172041269Y-124223244D01*
X172099906Y-124209907D01*
X172060271Y-124200642D01*
X171907423Y-124190281D01*
X171645031Y-124181045D01*
X171278736Y-124173012D01*
X170814182Y-124166263D01*
X170257011Y-124160877D01*
X169612867Y-124156931D01*
X168887391Y-124154506D01*
X168086226Y-124153680D01*
X164072547Y-124153680D01*
X164072547Y-122176793D01*
X164072547Y-120199906D01*
X168316266Y-120199906D01*
X168936875Y-120199890D01*
X169717148Y-120200205D01*
G37*
G36*
X141967359Y-99205298D02*
G01*
X142944918Y-99205863D01*
X144283486Y-99207679D01*
X145567424Y-99210648D01*
X146790214Y-99214726D01*
X147945338Y-99219872D01*
X149026279Y-99226040D01*
X150026517Y-99233190D01*
X150939536Y-99241276D01*
X151758817Y-99250257D01*
X152477843Y-99260089D01*
X153090095Y-99270729D01*
X153589057Y-99282134D01*
X155016615Y-99320975D01*
X156840564Y-99372769D01*
X158596063Y-99425339D01*
X160304006Y-99479428D01*
X161985282Y-99535784D01*
X163660785Y-99595151D01*
X165351406Y-99658275D01*
X167078036Y-99725899D01*
X168861569Y-99798771D01*
X170722895Y-99877635D01*
X172682907Y-99963236D01*
X175751994Y-100099037D01*
X175812978Y-100273977D01*
X175833630Y-100334418D01*
X175867971Y-100465879D01*
X175852178Y-100533508D01*
X175782620Y-100573082D01*
X175719379Y-100588945D01*
X175538778Y-100618378D01*
X175269775Y-100653641D01*
X174930796Y-100692879D01*
X174540267Y-100734236D01*
X174116617Y-100775854D01*
X173678272Y-100815879D01*
X173243660Y-100852454D01*
X172831207Y-100883724D01*
X172459340Y-100907830D01*
X172347352Y-100914247D01*
X171983544Y-100934484D01*
X171625355Y-100953282D01*
X171267559Y-100970695D01*
X170904929Y-100986779D01*
X170532240Y-101001590D01*
X170144265Y-101015185D01*
X169735778Y-101027618D01*
X169301552Y-101038946D01*
X168836362Y-101049225D01*
X168334980Y-101058509D01*
X167792182Y-101066855D01*
X167202740Y-101074320D01*
X166561428Y-101080957D01*
X165863020Y-101086825D01*
X165102289Y-101091977D01*
X164274011Y-101096470D01*
X163372957Y-101100360D01*
X162393902Y-101103703D01*
X161331620Y-101106553D01*
X160180884Y-101108968D01*
X158936468Y-101111003D01*
X157593146Y-101112714D01*
X156145692Y-101114156D01*
X154588879Y-101115385D01*
X152917481Y-101116458D01*
X152442993Y-101116761D01*
X151122702Y-101117868D01*
X149835577Y-101119334D01*
X148586714Y-101121137D01*
X147381211Y-101123259D01*
X146224164Y-101125678D01*
X145120670Y-101128376D01*
X144075826Y-101131331D01*
X143094728Y-101134525D01*
X142182474Y-101137937D01*
X141344160Y-101141548D01*
X140584884Y-101145337D01*
X139909741Y-101149284D01*
X139323828Y-101153370D01*
X138832243Y-101157574D01*
X138440082Y-101161877D01*
X138152442Y-101166259D01*
X137974420Y-101170699D01*
X137911113Y-101175178D01*
X137854157Y-101187556D01*
X137686733Y-101198178D01*
X137421576Y-101205105D01*
X137070470Y-101208549D01*
X136645198Y-101208722D01*
X136157544Y-101205839D01*
X135619290Y-101200111D01*
X135042221Y-101191751D01*
X134438119Y-101180972D01*
X133818768Y-101167987D01*
X133195951Y-101153009D01*
X132581452Y-101136249D01*
X131987053Y-101117921D01*
X131424538Y-101098238D01*
X130905691Y-101077412D01*
X130442295Y-101055656D01*
X130046132Y-101033183D01*
X129894949Y-101023507D01*
X128664206Y-100938179D01*
X127531267Y-100847500D01*
X126499271Y-100751835D01*
X125571357Y-100651546D01*
X124750665Y-100546999D01*
X124040333Y-100438558D01*
X123443501Y-100326587D01*
X122963309Y-100211451D01*
X122735260Y-100135156D01*
X122572381Y-100048436D01*
X122509352Y-99965441D01*
X122555457Y-99893412D01*
X122563818Y-99888454D01*
X122740167Y-99823024D01*
X123027340Y-99762001D01*
X123417013Y-99706248D01*
X123900859Y-99656628D01*
X124470554Y-99614006D01*
X125117773Y-99579246D01*
X125834191Y-99553211D01*
X126232724Y-99542258D01*
X126592619Y-99534480D01*
X126870456Y-99532721D01*
X127086320Y-99538007D01*
X127260299Y-99551364D01*
X127412478Y-99573818D01*
X127562944Y-99606395D01*
X127731783Y-99650120D01*
X128240137Y-99786733D01*
X128918488Y-99662242D01*
X128981221Y-99650766D01*
X129364785Y-99582826D01*
X129712061Y-99526524D01*
X130049026Y-99478686D01*
X130401659Y-99436136D01*
X130795938Y-99395700D01*
X131257842Y-99354204D01*
X131813349Y-99308472D01*
X131912510Y-99300720D01*
X132105261Y-99286873D01*
X132305959Y-99274388D01*
X132521183Y-99263198D01*
X132757515Y-99253236D01*
X133021534Y-99244436D01*
X133319821Y-99236730D01*
X133658956Y-99230052D01*
X134045519Y-99224335D01*
X134486091Y-99219512D01*
X134987251Y-99215516D01*
X135555580Y-99212280D01*
X136197658Y-99209737D01*
X136920066Y-99207821D01*
X137729384Y-99206464D01*
X138632192Y-99205601D01*
X139635070Y-99205163D01*
X140744599Y-99205084D01*
X141967359Y-99205298D01*
G37*
G36*
X193648922Y-86355444D02*
G01*
X193432787Y-86316733D01*
X193216651Y-86278022D01*
X193374072Y-86450403D01*
X193535189Y-86651735D01*
X193633540Y-86855131D01*
X193694205Y-87117005D01*
X193736380Y-87371604D01*
X193139393Y-87371604D01*
X192903050Y-87374381D01*
X192678877Y-87387961D01*
X192541022Y-87415078D01*
X192470555Y-87458180D01*
X192463563Y-87465745D01*
X192348733Y-87538233D01*
X192157208Y-87619485D01*
X191925233Y-87695804D01*
X191689057Y-87753493D01*
X191635212Y-87761350D01*
X191408504Y-87771195D01*
X191088359Y-87763885D01*
X190693093Y-87741391D01*
X190241024Y-87705685D01*
X189750469Y-87658738D01*
X189239747Y-87602522D01*
X188727174Y-87539008D01*
X188231068Y-87470170D01*
X187769746Y-87397977D01*
X187361526Y-87324403D01*
X187024725Y-87251418D01*
X186752269Y-87181987D01*
X186329564Y-87065583D01*
X185889289Y-86935946D01*
X185458214Y-86801496D01*
X185063108Y-86670654D01*
X184730744Y-86551840D01*
X184487890Y-86453475D01*
X184205827Y-86326240D01*
X184118208Y-85968561D01*
X184714563Y-85968561D01*
X184752677Y-85981863D01*
X184889087Y-85968220D01*
X185107298Y-85928209D01*
X185389794Y-85864528D01*
X185743089Y-85780837D01*
X186235605Y-85673146D01*
X186665401Y-85594510D01*
X187064319Y-85540975D01*
X187464204Y-85508586D01*
X187896898Y-85493389D01*
X188394245Y-85491430D01*
X188772796Y-85496111D01*
X189654337Y-85526859D01*
X190459729Y-85584093D01*
X191180612Y-85666730D01*
X191808629Y-85773687D01*
X192335419Y-85903880D01*
X192752625Y-86056227D01*
X192771072Y-86064577D01*
X192963614Y-86149948D01*
X193107050Y-86210430D01*
X193171525Y-86233397D01*
X193180162Y-86191385D01*
X193160554Y-86077479D01*
X193150558Y-86034311D01*
X193112405Y-85836421D01*
X193064113Y-85552096D01*
X193009271Y-85205566D01*
X192951465Y-84821060D01*
X192894282Y-84422808D01*
X192841311Y-84035041D01*
X192796138Y-83681988D01*
X192762351Y-83387878D01*
X192739501Y-83128023D01*
X192712599Y-82656736D01*
X192695720Y-82125341D01*
X192688868Y-81563756D01*
X192692047Y-81001894D01*
X192705261Y-80469674D01*
X192728515Y-79997011D01*
X192761812Y-79613821D01*
X192779838Y-79474626D01*
X192836665Y-79138523D01*
X192905030Y-78836130D01*
X192975776Y-78610401D01*
X193034847Y-78446796D01*
X193068801Y-78316065D01*
X193062846Y-78265944D01*
X193006370Y-78274977D01*
X192860790Y-78307592D01*
X192667837Y-78355802D01*
X192535831Y-78382181D01*
X192239844Y-78415061D01*
X191862229Y-78435826D01*
X191426204Y-78444464D01*
X190954989Y-78440962D01*
X190471801Y-78425307D01*
X189999860Y-78397487D01*
X189562385Y-78357490D01*
X189439077Y-78342861D01*
X188942260Y-78271606D01*
X188376489Y-78175140D01*
X187777484Y-78060542D01*
X187180965Y-77934895D01*
X186622652Y-77805276D01*
X186138266Y-77678769D01*
X185529692Y-77507462D01*
X185494280Y-77684521D01*
X185461647Y-77944123D01*
X185491902Y-78189454D01*
X185601421Y-78410782D01*
X185694480Y-78578465D01*
X185780833Y-78831287D01*
X185836963Y-79145032D01*
X185863051Y-79528917D01*
X185859277Y-79992156D01*
X185825820Y-80543963D01*
X185762861Y-81193553D01*
X185670579Y-81950142D01*
X185585397Y-82527071D01*
X185357600Y-83704094D01*
X185063422Y-84867653D01*
X184714563Y-85968561D01*
X184118208Y-85968561D01*
X183962062Y-85331142D01*
X183822227Y-84736611D01*
X183715399Y-84216436D01*
X183640720Y-83749405D01*
X183595079Y-83305117D01*
X183575366Y-82853172D01*
X183578471Y-82363170D01*
X183601284Y-81804712D01*
X183611027Y-81624027D01*
X183659619Y-80856891D01*
X183715174Y-80195707D01*
X183779382Y-79629158D01*
X183853931Y-79145930D01*
X183940507Y-78734707D01*
X184040801Y-78384174D01*
X184156498Y-78083015D01*
X184181968Y-78027744D01*
X184325550Y-77770932D01*
X184491142Y-77541749D01*
X184656513Y-77368039D01*
X184799432Y-77277651D01*
X184887186Y-77204887D01*
X184949670Y-77067831D01*
X184966590Y-76997478D01*
X184994652Y-76938542D01*
X185050052Y-76893167D01*
X185150947Y-76854628D01*
X185315492Y-76816197D01*
X185561845Y-76771150D01*
X185908160Y-76712761D01*
X186375566Y-76638333D01*
X187717327Y-76468247D01*
X188998622Y-76371984D01*
X190208643Y-76350160D01*
X191336581Y-76403391D01*
X191784413Y-76446739D01*
X192168781Y-76500493D01*
X192472261Y-76567236D01*
X192715010Y-76652676D01*
X192917185Y-76762521D01*
X193098943Y-76902480D01*
X193367876Y-77139205D01*
X193479338Y-77001556D01*
X193523824Y-76949135D01*
X193594277Y-76898938D01*
X193689286Y-76901150D01*
X193853017Y-76949635D01*
X194049823Y-77033699D01*
X194226024Y-77152241D01*
X194333883Y-77277093D01*
X194350213Y-77387817D01*
X194353569Y-77462741D01*
X194391011Y-77629640D01*
X194457303Y-77859114D01*
X194545510Y-78124988D01*
X194774198Y-78775142D01*
X194770974Y-80033161D01*
X194752858Y-80801174D01*
X194687232Y-81700176D01*
X194570151Y-82605754D01*
X194397858Y-83541182D01*
X194166593Y-84529732D01*
X193872596Y-85594677D01*
X193697157Y-86191385D01*
X193648922Y-86355444D01*
G37*
G36*
X122052897Y-70837642D02*
G01*
X121845676Y-70837642D01*
X121638455Y-70837642D01*
X121765849Y-70973247D01*
X121779238Y-70987924D01*
X121928940Y-71213722D01*
X122037081Y-71484526D01*
X122078679Y-71739174D01*
X122078679Y-71925687D01*
X121524552Y-71909584D01*
X121244834Y-71906005D01*
X121048483Y-71917343D01*
X120912536Y-71947561D01*
X120807267Y-72000424D01*
X120772361Y-72021761D01*
X120590166Y-72111128D01*
X120387927Y-72187365D01*
X120209241Y-72225085D01*
X119888769Y-72252680D01*
X119481843Y-72258363D01*
X119005759Y-72243732D01*
X118477811Y-72210387D01*
X117915296Y-72159925D01*
X117335508Y-72093946D01*
X116755742Y-72014049D01*
X116193293Y-71921832D01*
X115665457Y-71818893D01*
X115189528Y-71706832D01*
X115152178Y-71697034D01*
X114703948Y-71574262D01*
X114245929Y-71440355D01*
X113803332Y-71303325D01*
X113401367Y-71171188D01*
X113065246Y-71051957D01*
X112820178Y-70953647D01*
X112577479Y-70845489D01*
X112498948Y-70515748D01*
X113110402Y-70515748D01*
X113145153Y-70516478D01*
X113275850Y-70494973D01*
X113478800Y-70451561D01*
X113728362Y-70391405D01*
X114442881Y-70226752D01*
X115191719Y-70096829D01*
X115910581Y-70022586D01*
X116636968Y-69998963D01*
X117324301Y-70008607D01*
X118013731Y-70037046D01*
X118674815Y-70082478D01*
X119289314Y-70143099D01*
X119838987Y-70217104D01*
X120305594Y-70302689D01*
X120670896Y-70398049D01*
X120754516Y-70426652D01*
X121015472Y-70528731D01*
X121254976Y-70637265D01*
X121303132Y-70661457D01*
X121422817Y-70717546D01*
X121497557Y-70731242D01*
X121532426Y-70687384D01*
X121532498Y-70570811D01*
X121502846Y-70366359D01*
X121448546Y-70058868D01*
X121385716Y-69687453D01*
X121277358Y-68932536D01*
X121191301Y-68167656D01*
X121127586Y-67405574D01*
X121086250Y-66659049D01*
X121067333Y-65940843D01*
X121070873Y-65263716D01*
X121096911Y-64640430D01*
X121145484Y-64083743D01*
X121216632Y-63606418D01*
X121310393Y-63221214D01*
X121426807Y-62940893D01*
X121443900Y-62910844D01*
X121501302Y-62799887D01*
X121497975Y-62762524D01*
X121435138Y-62774373D01*
X120897478Y-62900567D01*
X120275144Y-62972918D01*
X119565780Y-62990592D01*
X118764523Y-62953525D01*
X117866513Y-62861654D01*
X116866887Y-62714916D01*
X116691355Y-62684495D01*
X116189081Y-62586886D01*
X115629093Y-62466016D01*
X115051746Y-62331170D01*
X114497394Y-62191636D01*
X114006392Y-62056697D01*
X114000002Y-62054855D01*
X113928076Y-62042734D01*
X113889702Y-62075681D01*
X113874378Y-62178604D01*
X113871604Y-62376412D01*
X113879019Y-62561779D01*
X113927076Y-62794115D01*
X114035222Y-63027384D01*
X114089484Y-63128863D01*
X114140246Y-63248665D01*
X114174231Y-63381910D01*
X114195906Y-63555188D01*
X114209740Y-63795090D01*
X114220202Y-64128208D01*
X114224051Y-64447156D01*
X114215341Y-64814524D01*
X114190555Y-65207888D01*
X114147689Y-65657835D01*
X114084738Y-66194953D01*
X114006221Y-66788690D01*
X113909725Y-67412728D01*
X113803553Y-67976676D01*
X113680846Y-68512988D01*
X113534749Y-69054117D01*
X113358404Y-69632517D01*
X113310227Y-69785332D01*
X113224404Y-70067261D01*
X113158670Y-70296586D01*
X113118758Y-70452888D01*
X113110402Y-70515748D01*
X112498948Y-70515748D01*
X112357282Y-69920911D01*
X112242253Y-69428947D01*
X112140688Y-68963206D01*
X112065420Y-68564357D01*
X112013454Y-68206705D01*
X111981793Y-67864558D01*
X111967441Y-67512220D01*
X111967402Y-67123998D01*
X111978680Y-66674199D01*
X111996451Y-66204727D01*
X112045841Y-65329732D01*
X112113800Y-64564437D01*
X112201603Y-63902833D01*
X112310524Y-63338911D01*
X112441838Y-62866662D01*
X112596820Y-62480077D01*
X112776743Y-62173149D01*
X112982882Y-61939867D01*
X113070066Y-61864766D01*
X113197356Y-61769309D01*
X113272720Y-61731982D01*
X113314353Y-61683279D01*
X113332453Y-61560859D01*
X113332453Y-61389736D01*
X114096250Y-61259792D01*
X114670066Y-61166218D01*
X115727582Y-61018878D01*
X116705694Y-60919745D01*
X117624095Y-60867946D01*
X118502474Y-60862606D01*
X119360524Y-60902849D01*
X120217935Y-60987801D01*
X120504901Y-61028312D01*
X120858423Y-61101719D01*
X121137220Y-61198621D01*
X121368365Y-61329286D01*
X121578929Y-61503980D01*
X121656623Y-61577310D01*
X121740371Y-61641208D01*
X121789252Y-61632692D01*
X121835635Y-61558657D01*
X121861001Y-61520258D01*
X121996941Y-61441884D01*
X122195510Y-61456616D01*
X122446828Y-61564360D01*
X122592288Y-61663929D01*
X122698791Y-61816326D01*
X122731575Y-62031510D01*
X122737768Y-62069271D01*
X122776730Y-62210062D01*
X122843462Y-62417109D01*
X122928601Y-62660519D01*
X122930084Y-62664611D01*
X122999862Y-62862128D01*
X123051039Y-63028782D01*
X123086993Y-63189683D01*
X123111100Y-63369942D01*
X123126736Y-63594670D01*
X123137279Y-63888976D01*
X123146104Y-64277972D01*
X123149058Y-64776886D01*
X123121242Y-65576831D01*
X123050411Y-66381169D01*
X122933538Y-67209973D01*
X122767595Y-68083313D01*
X122549553Y-69021262D01*
X122276387Y-70043892D01*
X122128027Y-70570811D01*
X122052897Y-70837642D01*
G37*
G36*
X178869245Y-86150531D02*
G01*
X178869192Y-86151087D01*
X178814088Y-86166929D01*
X178686480Y-86173491D01*
X178503714Y-86173491D01*
X178650687Y-86368184D01*
X178675131Y-86402238D01*
X178785418Y-86599312D01*
X178870336Y-86817178D01*
X178916526Y-87015455D01*
X178910624Y-87153760D01*
X178905320Y-87165361D01*
X178861187Y-87203430D01*
X178766264Y-87221979D01*
X178597778Y-87223195D01*
X178332955Y-87209268D01*
X178309119Y-87207742D01*
X178043940Y-87195194D01*
X177869280Y-87199548D01*
X177758651Y-87223233D01*
X177685569Y-87268681D01*
X177595525Y-87335089D01*
X177336303Y-87454701D01*
X176982217Y-87553825D01*
X176898016Y-87567620D01*
X176634545Y-87584102D01*
X176280444Y-87582626D01*
X175854601Y-87564939D01*
X175375904Y-87532791D01*
X174863240Y-87487933D01*
X174335498Y-87432112D01*
X173811565Y-87367079D01*
X173310329Y-87294582D01*
X172850677Y-87216371D01*
X172451498Y-87134196D01*
X172279183Y-87092392D01*
X171958253Y-87007860D01*
X171589296Y-86904839D01*
X171195704Y-86790406D01*
X170800870Y-86671639D01*
X170428184Y-86555615D01*
X170101041Y-86449410D01*
X169842831Y-86360103D01*
X169676946Y-86294769D01*
X169420736Y-86178052D01*
X169336008Y-85854743D01*
X169904114Y-85854743D01*
X169940878Y-85852839D01*
X170065711Y-85827405D01*
X170245616Y-85782497D01*
X170450353Y-85730471D01*
X170873982Y-85633630D01*
X171336717Y-85538646D01*
X171799873Y-85452898D01*
X172224767Y-85383765D01*
X172572713Y-85338626D01*
X172906434Y-85315982D01*
X173361975Y-85307825D01*
X173882336Y-85316142D01*
X174444442Y-85339239D01*
X175025218Y-85375421D01*
X175601591Y-85422994D01*
X176150486Y-85480261D01*
X176648828Y-85545529D01*
X177073543Y-85617104D01*
X177401557Y-85693289D01*
X177628740Y-85766015D01*
X177896147Y-85866799D01*
X178110109Y-85963062D01*
X178399322Y-86112685D01*
X178365878Y-85948395D01*
X178337623Y-85806866D01*
X178202668Y-85042717D01*
X178090811Y-84255088D01*
X178002397Y-83458007D01*
X177937771Y-82665508D01*
X177897280Y-81891620D01*
X177881268Y-81150377D01*
X177890083Y-80455808D01*
X177924069Y-79821945D01*
X177983572Y-79262820D01*
X178068938Y-78792464D01*
X178180512Y-78424908D01*
X178320833Y-78074675D01*
X178190676Y-78110182D01*
X177973578Y-78166555D01*
X177564840Y-78251762D01*
X177167097Y-78300322D01*
X176737548Y-78316483D01*
X176233396Y-78304494D01*
X175543864Y-78264303D01*
X174596434Y-78172761D01*
X173664907Y-78035921D01*
X172710110Y-77847724D01*
X171692872Y-77602109D01*
X171501450Y-77553373D01*
X171206351Y-77482890D01*
X170963587Y-77430727D01*
X170794244Y-77401284D01*
X170719405Y-77398962D01*
X170713620Y-77403179D01*
X170671753Y-77500742D01*
X170659443Y-77669275D01*
X170673987Y-77868387D01*
X170712680Y-78057689D01*
X170772818Y-78196791D01*
X170856150Y-78334471D01*
X170951149Y-78563511D01*
X171017964Y-78839524D01*
X171056761Y-79172471D01*
X171067702Y-79572320D01*
X171050954Y-80049032D01*
X171006680Y-80612574D01*
X170935044Y-81272908D01*
X170836210Y-82040000D01*
X170734697Y-82687791D01*
X170480008Y-83874447D01*
X170129622Y-85093152D01*
X170111047Y-85151055D01*
X170025745Y-85422150D01*
X169958557Y-85644198D01*
X169915881Y-85795597D01*
X169904114Y-85854743D01*
X169336008Y-85854743D01*
X169235672Y-85471880D01*
X169141597Y-85106173D01*
X169013683Y-84572134D01*
X168918467Y-84109680D01*
X168852073Y-83692730D01*
X168810622Y-83295201D01*
X168790238Y-82891013D01*
X168787043Y-82454082D01*
X168790162Y-82199503D01*
X168822898Y-81165642D01*
X168886835Y-80246992D01*
X168981957Y-79443624D01*
X169108249Y-78755610D01*
X169265696Y-78183020D01*
X169454283Y-77725923D01*
X169673994Y-77384392D01*
X169924815Y-77158496D01*
X169939862Y-77148600D01*
X170076947Y-77019015D01*
X170153312Y-76877275D01*
X170162517Y-76842407D01*
X170187872Y-76788271D01*
X170236039Y-76742740D01*
X170320702Y-76702162D01*
X170455545Y-76662885D01*
X170654255Y-76621257D01*
X170930514Y-76573627D01*
X171298009Y-76516343D01*
X171770425Y-76445753D01*
X172176148Y-76388022D01*
X173156722Y-76271969D01*
X174067979Y-76202015D01*
X174939170Y-76177037D01*
X175799545Y-76195915D01*
X176678355Y-76257526D01*
X177054018Y-76297060D01*
X177468191Y-76359677D01*
X177793416Y-76438392D01*
X178047316Y-76539017D01*
X178247515Y-76667365D01*
X178411636Y-76829249D01*
X178558584Y-77003886D01*
X178655390Y-76856142D01*
X178688390Y-76808323D01*
X178762351Y-76736334D01*
X178855210Y-76720287D01*
X178995986Y-76760175D01*
X179213703Y-76855990D01*
X179347957Y-76921361D01*
X179465813Y-76998295D01*
X179517038Y-77080009D01*
X179528208Y-77195162D01*
X179545424Y-77327454D01*
X179599894Y-77538375D01*
X179678678Y-77764027D01*
X179766282Y-77996596D01*
X179872584Y-78346597D01*
X179944311Y-78703402D01*
X179985173Y-79094853D01*
X179998883Y-79548793D01*
X179989151Y-80093066D01*
X179971039Y-80502195D01*
X179874067Y-81637658D01*
X179705461Y-82781627D01*
X179460960Y-83959605D01*
X179136302Y-85197098D01*
X179075855Y-85408304D01*
X178993783Y-85697228D01*
X178928293Y-85930442D01*
X178884932Y-86088143D01*
X178878761Y-86112685D01*
X178869245Y-86150531D01*
G37*
G36*
X181230743Y-72005802D02*
G01*
X181014820Y-72024017D01*
X180798896Y-72042232D01*
X180964120Y-72223129D01*
X181107069Y-72431558D01*
X181221679Y-72714511D01*
X181265472Y-72989730D01*
X181265428Y-72998817D01*
X181257245Y-73056618D01*
X181219206Y-73091827D01*
X181128836Y-73109225D01*
X180963659Y-73113589D01*
X180701198Y-73109697D01*
X180602057Y-73108025D01*
X180351613Y-73110006D01*
X180178094Y-73126910D01*
X180049055Y-73163599D01*
X179932051Y-73224934D01*
X179919355Y-73232627D01*
X179709802Y-73335316D01*
X179492906Y-73410409D01*
X179264512Y-73443427D01*
X178934720Y-73456459D01*
X178523051Y-73450818D01*
X178047527Y-73428197D01*
X177526171Y-73390286D01*
X176977005Y-73338779D01*
X176418050Y-73275367D01*
X175867330Y-73201741D01*
X175342866Y-73119594D01*
X174862681Y-73030618D01*
X174444796Y-72936504D01*
X174170568Y-72864501D01*
X173818605Y-72766025D01*
X173452255Y-72658244D01*
X173090054Y-72547105D01*
X172750539Y-72438552D01*
X172452247Y-72338533D01*
X172213715Y-72252992D01*
X172053480Y-72187876D01*
X171990079Y-72149130D01*
X171966010Y-72122285D01*
X171866909Y-72095661D01*
X171849563Y-72092945D01*
X171804704Y-72054809D01*
X171757076Y-71959770D01*
X171701339Y-71792714D01*
X171679211Y-71711414D01*
X172294747Y-71711414D01*
X172329425Y-71711339D01*
X172459904Y-71688913D01*
X172662806Y-71645043D01*
X172912661Y-71584943D01*
X173007245Y-71561484D01*
X173722626Y-71404574D01*
X174416561Y-71292780D01*
X175116226Y-71224176D01*
X175848798Y-71196835D01*
X176641453Y-71208831D01*
X177521368Y-71258237D01*
X177541073Y-71259667D01*
X178115841Y-71306248D01*
X178595731Y-71356487D01*
X179004922Y-71413754D01*
X179367593Y-71481417D01*
X179707925Y-71562845D01*
X179970357Y-71642309D01*
X180238849Y-71740129D01*
X180449281Y-71833429D01*
X180741345Y-71984858D01*
X180704240Y-71785661D01*
X180659541Y-71541446D01*
X180490928Y-70509641D01*
X180370028Y-69544677D01*
X180293906Y-68612717D01*
X180259628Y-67679928D01*
X180264259Y-66712472D01*
X180268874Y-66524719D01*
X180286636Y-65974904D01*
X180309632Y-65524856D01*
X180339754Y-65159203D01*
X180378894Y-64862568D01*
X180428944Y-64619580D01*
X180491794Y-64414863D01*
X180569337Y-64233043D01*
X180622766Y-64121551D01*
X180679412Y-63996956D01*
X180696790Y-63948491D01*
X180690291Y-63949740D01*
X180602725Y-63970885D01*
X180435597Y-64012755D01*
X180217123Y-64068302D01*
X180113352Y-64092435D01*
X179655265Y-64158577D01*
X179103307Y-64186466D01*
X178472507Y-64177597D01*
X177777896Y-64133470D01*
X177034503Y-64055580D01*
X176257357Y-63945425D01*
X175461488Y-63804503D01*
X174661927Y-63634311D01*
X173873702Y-63436346D01*
X173802378Y-63417049D01*
X173525940Y-63344064D01*
X173299738Y-63287178D01*
X173145504Y-63251719D01*
X173084974Y-63243012D01*
X173076706Y-63280299D01*
X173064097Y-63409099D01*
X173052920Y-63594952D01*
X173051312Y-63757471D01*
X173082679Y-63960855D01*
X173166081Y-64138540D01*
X173188795Y-64177255D01*
X173294505Y-64432065D01*
X173365995Y-64759953D01*
X173403356Y-65167903D01*
X173406681Y-65662900D01*
X173376059Y-66251928D01*
X173311584Y-66941970D01*
X173213347Y-67740011D01*
X173194819Y-67876243D01*
X173115420Y-68421942D01*
X173035194Y-68894790D01*
X172946028Y-69331843D01*
X172839810Y-69770161D01*
X172708429Y-70246799D01*
X172543772Y-70798816D01*
X172489688Y-70977771D01*
X172406421Y-71262435D01*
X172342523Y-71492978D01*
X172303473Y-71649329D01*
X172294747Y-71711414D01*
X171679211Y-71711414D01*
X171632156Y-71538529D01*
X171544186Y-71182100D01*
X171495409Y-70977016D01*
X171366557Y-70402949D01*
X171268020Y-69893855D01*
X171197763Y-69423489D01*
X171153754Y-68965610D01*
X171133958Y-68493975D01*
X171136343Y-67982341D01*
X171158875Y-67404465D01*
X171199519Y-66734104D01*
X171258424Y-66003435D01*
X171337624Y-65320048D01*
X171435675Y-64737821D01*
X171555343Y-64247467D01*
X171699393Y-63839698D01*
X171870589Y-63505225D01*
X172071696Y-63234760D01*
X172305480Y-63019016D01*
X172323250Y-63005145D01*
X172466778Y-62857060D01*
X172519245Y-62723049D01*
X172525110Y-62671107D01*
X172561323Y-62620889D01*
X172650130Y-62580362D01*
X172813493Y-62540357D01*
X173073373Y-62491706D01*
X173263719Y-62458356D01*
X174451602Y-62273456D01*
X175553451Y-62145414D01*
X176585683Y-62073439D01*
X177564718Y-62056742D01*
X178506973Y-62094533D01*
X179428867Y-62186024D01*
X179793849Y-62246050D01*
X180230064Y-62367957D01*
X180561678Y-62533092D01*
X180793664Y-62743487D01*
X180909929Y-62891293D01*
X181001239Y-62760930D01*
X181028218Y-62726266D01*
X181153701Y-62644764D01*
X181323458Y-62651512D01*
X181556418Y-62745999D01*
X181762346Y-62870791D01*
X181891963Y-63008029D01*
X181904188Y-63136070D01*
X181904332Y-63214268D01*
X181941892Y-63374655D01*
X182010740Y-63571148D01*
X182062972Y-63704460D01*
X182171133Y-64021874D01*
X182249372Y-64335295D01*
X182300829Y-64669316D01*
X182328642Y-65048526D01*
X182335947Y-65497518D01*
X182325884Y-66040882D01*
X182304971Y-66530347D01*
X182206479Y-67658034D01*
X182034782Y-68801374D01*
X181786022Y-69983372D01*
X181456344Y-71227029D01*
X181236810Y-71984858D01*
X181230743Y-72005802D01*
G37*
G36*
X151640281Y-71646368D02*
G01*
X151409564Y-71676321D01*
X151178848Y-71706274D01*
X151314111Y-71826085D01*
X151397773Y-71917770D01*
X151531218Y-72133319D01*
X151630838Y-72375826D01*
X151670760Y-72589883D01*
X151672076Y-72754623D01*
X151092712Y-72754623D01*
X150988151Y-72755207D01*
X150702905Y-72766520D01*
X150517951Y-72793625D01*
X150418774Y-72838325D01*
X150381951Y-72865340D01*
X150237184Y-72943094D01*
X150054623Y-73018910D01*
X149932417Y-73052047D01*
X149637177Y-73091170D01*
X149251307Y-73108015D01*
X148791731Y-73103952D01*
X148275375Y-73080347D01*
X147719165Y-73038569D01*
X147140026Y-72979985D01*
X146554883Y-72905964D01*
X145980663Y-72817873D01*
X145434289Y-72717081D01*
X144932689Y-72604954D01*
X144649084Y-72532449D01*
X144256789Y-72425982D01*
X143861995Y-72312807D01*
X143481594Y-72198303D01*
X143132477Y-72087850D01*
X142831537Y-71986827D01*
X142595666Y-71900614D01*
X142441755Y-71834590D01*
X142386698Y-71794136D01*
X142369370Y-71762798D01*
X142278505Y-71736227D01*
X142251807Y-71730918D01*
X142207088Y-71689475D01*
X142160265Y-71593643D01*
X142105698Y-71427707D01*
X142089312Y-71366993D01*
X142686226Y-71366993D01*
X142706199Y-71376067D01*
X142817109Y-71367554D01*
X143003463Y-71333097D01*
X143240354Y-71276752D01*
X143478222Y-71215866D01*
X144006585Y-71090217D01*
X144471388Y-70998185D01*
X144907900Y-70935306D01*
X145351389Y-70897120D01*
X145837126Y-70879164D01*
X146400377Y-70876976D01*
X146465627Y-70877478D01*
X147449621Y-70900098D01*
X148319158Y-70950333D01*
X149076303Y-71028452D01*
X149723123Y-71134721D01*
X150261683Y-71269407D01*
X150694049Y-71432779D01*
X150716403Y-71443222D01*
X150907293Y-71530876D01*
X151048084Y-71592889D01*
X151109698Y-71616416D01*
X151118423Y-71614606D01*
X151127565Y-71595869D01*
X151127152Y-71542933D01*
X151115052Y-71439018D01*
X151089130Y-71267346D01*
X151047254Y-71011138D01*
X150987290Y-70653617D01*
X150956862Y-70470250D01*
X150829556Y-69612678D01*
X150740475Y-68818241D01*
X150686584Y-68046028D01*
X150664849Y-67255125D01*
X150672238Y-66404623D01*
X150678777Y-66146404D01*
X150697293Y-65600656D01*
X150721137Y-65153537D01*
X150752158Y-64790086D01*
X150792204Y-64495343D01*
X150843125Y-64254347D01*
X150906769Y-64052138D01*
X150984984Y-63873756D01*
X151036380Y-63769322D01*
X151085744Y-63651275D01*
X151082151Y-63606913D01*
X151029015Y-63616280D01*
X150739798Y-63699299D01*
X150334436Y-63766334D01*
X149849465Y-63810080D01*
X149304623Y-63829853D01*
X148719650Y-63824966D01*
X148114284Y-63794735D01*
X147508265Y-63738475D01*
X146992811Y-63669281D01*
X146302090Y-63554498D01*
X145577544Y-63413566D01*
X144862139Y-63254943D01*
X144198844Y-63087087D01*
X143465000Y-62887221D01*
X143465000Y-63294509D01*
X143473326Y-63504714D01*
X143495174Y-63664605D01*
X143525813Y-63739382D01*
X143539771Y-63751068D01*
X143610054Y-63848401D01*
X143689730Y-63997517D01*
X143715295Y-64059169D01*
X143747552Y-64176749D01*
X143769487Y-64332998D01*
X143782736Y-64548186D01*
X143788934Y-64842584D01*
X143789718Y-65236463D01*
X143734309Y-66491488D01*
X143574015Y-67802227D01*
X143311669Y-69131322D01*
X142950056Y-70461441D01*
X142906585Y-70602536D01*
X142819582Y-70889792D01*
X142749675Y-71127300D01*
X142703134Y-71293540D01*
X142686226Y-71366993D01*
X142089312Y-71366993D01*
X142037752Y-71175953D01*
X141950790Y-70822666D01*
X141854370Y-70413038D01*
X141741052Y-69892187D01*
X141655199Y-69426540D01*
X141594892Y-68991214D01*
X141558209Y-68561323D01*
X141543230Y-68111983D01*
X141548034Y-67618309D01*
X141570700Y-67055417D01*
X141609308Y-66398421D01*
X141634565Y-66042637D01*
X141708687Y-65275799D01*
X141804000Y-64617741D01*
X141922449Y-64061698D01*
X142065982Y-63600904D01*
X142236543Y-63228592D01*
X142436079Y-62937998D01*
X142666535Y-62722355D01*
X142713435Y-62686281D01*
X142867345Y-62531547D01*
X142935287Y-62392692D01*
X142936004Y-62387641D01*
X142951341Y-62328536D01*
X142990131Y-62283279D01*
X143071357Y-62245383D01*
X143213998Y-62208359D01*
X143437037Y-62165720D01*
X143759454Y-62110976D01*
X144291276Y-62027270D01*
X145467074Y-61876647D01*
X146600872Y-61778944D01*
X147676716Y-61734981D01*
X148678654Y-61745577D01*
X149590730Y-61811552D01*
X149762800Y-61831345D01*
X150167067Y-61890805D01*
X150483633Y-61963403D01*
X150736076Y-62057173D01*
X150947973Y-62180147D01*
X151142902Y-62340359D01*
X151335148Y-62519943D01*
X151437535Y-62384207D01*
X151455867Y-62360393D01*
X151529601Y-62290837D01*
X151621032Y-62280267D01*
X151777604Y-62319681D01*
X151815039Y-62331317D01*
X152097169Y-62459214D01*
X152265682Y-62624242D01*
X152320366Y-62826206D01*
X152324793Y-62881605D01*
X152362590Y-63062785D01*
X152430777Y-63300857D01*
X152519384Y-63559104D01*
X152720425Y-64098255D01*
X152715616Y-65476085D01*
X152712712Y-65884394D01*
X152703960Y-66330404D01*
X152687999Y-66706221D01*
X152663111Y-67039853D01*
X152627577Y-67359309D01*
X152579682Y-67692595D01*
X152500179Y-68159355D01*
X152360482Y-68867988D01*
X152195944Y-69607014D01*
X152017235Y-70329224D01*
X151835026Y-70987406D01*
X151655205Y-71595869D01*
X151640281Y-71646368D01*
G37*
G36*
X107179909Y-69857762D02*
G01*
X107118765Y-69876409D01*
X107041508Y-69879151D01*
X106857974Y-69879151D01*
X106987161Y-70013939D01*
X107087882Y-70139844D01*
X107229554Y-70432835D01*
X107281981Y-70742943D01*
X107281981Y-70951621D01*
X106769411Y-70915448D01*
X106634793Y-70906566D01*
X106418496Y-70899529D01*
X106266425Y-70912863D01*
X106141244Y-70951746D01*
X106005614Y-71021354D01*
X105910149Y-71069537D01*
X105668156Y-71165234D01*
X105424906Y-71235139D01*
X105315679Y-71255997D01*
X105027025Y-71294366D01*
X104757314Y-71311867D01*
X104569996Y-71309602D01*
X104208946Y-71290314D01*
X103771493Y-71254600D01*
X103282453Y-71205394D01*
X102766641Y-71145629D01*
X102248872Y-71078239D01*
X101753963Y-71006157D01*
X101306727Y-70932318D01*
X100931981Y-70859653D01*
X100699275Y-70805669D01*
X100357199Y-70717144D01*
X99978046Y-70611317D01*
X99580913Y-70494243D01*
X99184896Y-70371979D01*
X98809090Y-70250582D01*
X98472592Y-70136108D01*
X98194496Y-70034615D01*
X97993900Y-69952158D01*
X97889899Y-69894795D01*
X97873504Y-69878191D01*
X97808894Y-69768320D01*
X97736717Y-69574813D01*
X97730735Y-69554156D01*
X98310602Y-69554156D01*
X98315449Y-69555650D01*
X98399637Y-69545167D01*
X98563543Y-69510514D01*
X98777661Y-69457780D01*
X98986052Y-69404455D01*
X99646478Y-69251452D01*
X100256368Y-69140062D01*
X100849283Y-69066870D01*
X101458784Y-69028462D01*
X102118432Y-69021425D01*
X102861790Y-69042345D01*
X103167314Y-69057009D01*
X103884459Y-69105940D01*
X104536603Y-69171504D01*
X105110136Y-69251914D01*
X105591451Y-69345383D01*
X105966938Y-69450123D01*
X106096684Y-69497372D01*
X106340164Y-69595804D01*
X106540656Y-69687978D01*
X106782011Y-69811108D01*
X106670934Y-69171191D01*
X106546962Y-68393092D01*
X106413554Y-67338076D01*
X106322509Y-66309227D01*
X106275156Y-65327483D01*
X106272822Y-64413780D01*
X106316836Y-63589057D01*
X106331988Y-63421213D01*
X106378719Y-62977686D01*
X106428347Y-62630113D01*
X106484377Y-62360497D01*
X106550314Y-62150844D01*
X106629664Y-61983156D01*
X106650096Y-61947126D01*
X106716180Y-61826011D01*
X106742830Y-61769123D01*
X106740936Y-61768124D01*
X106669700Y-61779132D01*
X106516125Y-61813501D01*
X106308514Y-61864983D01*
X105983587Y-61936322D01*
X105570046Y-61992515D01*
X105110582Y-62017139D01*
X104581691Y-62011308D01*
X103959866Y-61976134D01*
X103131121Y-61897013D01*
X102216349Y-61766050D01*
X101259940Y-61583412D01*
X100231450Y-61343937D01*
X99891631Y-61259169D01*
X99588934Y-61184595D01*
X99345706Y-61125661D01*
X99180843Y-61086943D01*
X99113240Y-61073019D01*
X99094696Y-61121013D01*
X99080384Y-61258859D01*
X99074906Y-61455071D01*
X99079187Y-61617450D01*
X99107597Y-61810694D01*
X99165369Y-61912201D01*
X99182293Y-61927421D01*
X99295587Y-62109545D01*
X99376294Y-62400712D01*
X99424218Y-62795326D01*
X99439163Y-63287794D01*
X99420932Y-63872521D01*
X99369329Y-64543910D01*
X99284157Y-65296368D01*
X99209614Y-65844468D01*
X99115545Y-66441368D01*
X99012019Y-66983699D01*
X98891329Y-67507464D01*
X98745768Y-68048665D01*
X98567627Y-68643304D01*
X98511848Y-68824394D01*
X98426822Y-69108340D01*
X98361189Y-69337907D01*
X98320573Y-69493158D01*
X98310602Y-69554156D01*
X97730735Y-69554156D01*
X97653113Y-69286124D01*
X97554224Y-68890708D01*
X97475675Y-68556672D01*
X97365182Y-68059940D01*
X97282696Y-67637060D01*
X97225168Y-67261897D01*
X97189547Y-66908315D01*
X97172781Y-66550180D01*
X97171821Y-66161356D01*
X97183615Y-65715708D01*
X97190032Y-65543080D01*
X97233512Y-64658679D01*
X97291877Y-63884507D01*
X97366815Y-63213037D01*
X97460012Y-62636746D01*
X97573155Y-62148109D01*
X97707932Y-61739601D01*
X97866030Y-61403697D01*
X98049135Y-61132874D01*
X98258935Y-60919607D01*
X98341104Y-60846796D01*
X98484769Y-60683994D01*
X98535755Y-60557630D01*
X98536865Y-60507363D01*
X98550176Y-60466937D01*
X98590823Y-60433106D01*
X98673944Y-60401459D01*
X98814672Y-60367586D01*
X99028145Y-60327075D01*
X99329498Y-60275517D01*
X99733868Y-60208500D01*
X100299110Y-60121909D01*
X101121756Y-60018253D01*
X101932753Y-59940759D01*
X102697840Y-59892544D01*
X103382759Y-59876721D01*
X103682271Y-59881134D01*
X104099252Y-59896812D01*
X104532148Y-59921909D01*
X104958343Y-59954438D01*
X105355220Y-59992414D01*
X105700162Y-60033851D01*
X105970552Y-60076762D01*
X106143774Y-60119162D01*
X106244647Y-60160278D01*
X106450953Y-60268701D01*
X106648936Y-60397738D01*
X106804856Y-60524343D01*
X106884973Y-60625467D01*
X106911837Y-60669694D01*
X106965433Y-60657899D01*
X107062618Y-60557425D01*
X107203515Y-60393622D01*
X107467394Y-60498723D01*
X107565886Y-60540159D01*
X107784941Y-60662534D01*
X107903528Y-60793847D01*
X107935864Y-60947723D01*
X107937468Y-60980740D01*
X107967699Y-61137179D01*
X108028338Y-61355991D01*
X108109649Y-61600606D01*
X108213317Y-61913449D01*
X108309504Y-62293434D01*
X108370475Y-62684296D01*
X108398891Y-63112632D01*
X108397416Y-63605038D01*
X108368713Y-64188114D01*
X108298269Y-65043662D01*
X108183566Y-65966718D01*
X108025233Y-66881168D01*
X107816792Y-67823838D01*
X107551764Y-68831552D01*
X107510359Y-68978932D01*
X107415596Y-69311542D01*
X107342782Y-69550101D01*
X107284305Y-69710238D01*
X107232551Y-69807582D01*
X107228852Y-69811108D01*
X107179909Y-69857762D01*
G37*
G36*
X102542184Y-98094717D02*
G01*
X102333316Y-98094717D01*
X102124449Y-98094717D01*
X102307927Y-98323032D01*
X102441321Y-98522070D01*
X102563990Y-98805026D01*
X102609340Y-99067789D01*
X102602581Y-99106641D01*
X102562183Y-99141441D01*
X102466278Y-99161544D01*
X102293446Y-99170790D01*
X102022264Y-99173019D01*
X101867377Y-99175137D01*
X101631319Y-99187432D01*
X101456938Y-99208286D01*
X101373282Y-99234926D01*
X101331552Y-99264717D01*
X101196363Y-99334926D01*
X101016843Y-99411841D01*
X100944709Y-99437951D01*
X100777753Y-99481574D01*
X100574995Y-99509341D01*
X100308490Y-99524338D01*
X99950299Y-99529651D01*
X99615303Y-99522997D01*
X99142846Y-99497586D01*
X98613729Y-99456272D01*
X98060859Y-99402309D01*
X97517146Y-99338955D01*
X97015497Y-99269464D01*
X96588821Y-99197092D01*
X96553569Y-99190215D01*
X96187200Y-99110234D01*
X95761686Y-99005076D01*
X95302173Y-98882096D01*
X94833811Y-98748647D01*
X94381747Y-98612084D01*
X93971129Y-98479759D01*
X93627104Y-98359027D01*
X93374820Y-98257242D01*
X93243593Y-98194403D01*
X93151453Y-98128989D01*
X93088139Y-98035812D01*
X93034072Y-97885454D01*
X92996671Y-97747836D01*
X93591983Y-97747836D01*
X93594861Y-97782985D01*
X93646871Y-97794412D01*
X93764636Y-97780202D01*
X93964780Y-97738437D01*
X94263926Y-97667200D01*
X94692889Y-97564942D01*
X95167931Y-97462151D01*
X95588401Y-97387861D01*
X95987950Y-97338087D01*
X96400224Y-97308842D01*
X96858874Y-97296140D01*
X97397547Y-97295996D01*
X97869634Y-97304329D01*
X98588469Y-97333912D01*
X99275762Y-97382023D01*
X99909561Y-97446663D01*
X100467914Y-97525833D01*
X100928872Y-97617534D01*
X100972111Y-97628255D01*
X101258671Y-97712552D01*
X101537080Y-97813363D01*
X101752575Y-97911167D01*
X101898389Y-97988624D01*
X102022481Y-98050937D01*
X102070189Y-98069671D01*
X102068326Y-98056488D01*
X102051253Y-97950917D01*
X102019202Y-97757547D01*
X101975683Y-97497482D01*
X101924205Y-97191824D01*
X101872921Y-96879432D01*
X101692744Y-95566962D01*
X101585104Y-94344510D01*
X101549726Y-93207943D01*
X101586332Y-92153126D01*
X101616951Y-91755837D01*
X101659350Y-91314615D01*
X101705704Y-90964503D01*
X101758756Y-90689048D01*
X101821248Y-90471795D01*
X101895925Y-90296292D01*
X101923847Y-90240911D01*
X101985634Y-90112266D01*
X102010283Y-90050688D01*
X102009975Y-90049929D01*
X101949734Y-90055228D01*
X101805298Y-90085513D01*
X101605920Y-90134707D01*
X101565358Y-90144569D01*
X101274204Y-90191331D01*
X100892043Y-90223491D01*
X100442580Y-90240867D01*
X99949525Y-90243278D01*
X99436584Y-90230542D01*
X98927465Y-90202478D01*
X98445875Y-90158905D01*
X98325315Y-90144621D01*
X97828180Y-90073417D01*
X97261863Y-89976907D01*
X96662080Y-89862172D01*
X96064547Y-89736295D01*
X95504982Y-89606356D01*
X95019099Y-89479438D01*
X94731350Y-89400145D01*
X94539334Y-89359870D01*
X94423920Y-89366221D01*
X94365613Y-89426707D01*
X94344924Y-89548836D01*
X94342359Y-89740117D01*
X94362716Y-89932912D01*
X94484912Y-90212197D01*
X94607724Y-90459386D01*
X94704144Y-90843019D01*
X94748915Y-91322034D01*
X94740910Y-91889052D01*
X94718949Y-92198207D01*
X94675284Y-92662662D01*
X94617853Y-93174852D01*
X94550422Y-93706909D01*
X94476758Y-94230962D01*
X94400628Y-94719141D01*
X94325799Y-95143574D01*
X94256038Y-95476393D01*
X94218722Y-95626658D01*
X94140991Y-95919328D01*
X94046003Y-96261081D01*
X93941784Y-96624444D01*
X93836365Y-96981945D01*
X93737773Y-97306110D01*
X93654039Y-97569467D01*
X93593189Y-97744543D01*
X93591983Y-97747836D01*
X92996671Y-97747836D01*
X92969673Y-97648495D01*
X92808133Y-97014137D01*
X92679219Y-96456565D01*
X92582989Y-95961928D01*
X92516453Y-95504772D01*
X92476623Y-95059644D01*
X92460510Y-94601090D01*
X92465125Y-94103655D01*
X92487480Y-93541887D01*
X92524411Y-92899172D01*
X92585233Y-92126308D01*
X92660243Y-91458552D01*
X92751379Y-90887727D01*
X92860582Y-90405656D01*
X92989789Y-90004161D01*
X93140941Y-89675066D01*
X93315977Y-89410193D01*
X93516835Y-89201364D01*
X93608493Y-89116223D01*
X93750491Y-88956460D01*
X93836242Y-88822250D01*
X93842876Y-88806791D01*
X93877607Y-88744447D01*
X93931711Y-88696861D01*
X94024998Y-88657443D01*
X94177277Y-88619606D01*
X94408359Y-88576760D01*
X94738054Y-88522316D01*
X95178682Y-88453420D01*
X96306680Y-88302666D01*
X97352629Y-88203602D01*
X98335028Y-88155154D01*
X99272372Y-88156246D01*
X100183160Y-88205803D01*
X100648675Y-88249794D01*
X101040280Y-88303866D01*
X101350338Y-88371279D01*
X101598455Y-88457494D01*
X101804235Y-88567970D01*
X101987284Y-88708165D01*
X102251367Y-88940620D01*
X102364511Y-88800893D01*
X102391641Y-88768078D01*
X102467294Y-88701674D01*
X102556598Y-88696382D01*
X102708238Y-88744166D01*
X102899572Y-88820072D01*
X103083485Y-88925222D01*
X103180255Y-89041726D01*
X103208396Y-89185940D01*
X103227341Y-89320930D01*
X103283065Y-89529240D01*
X103362695Y-89754730D01*
X103402827Y-89858106D01*
X103525423Y-90234066D01*
X103609759Y-90619750D01*
X103659332Y-91042058D01*
X103677640Y-91527891D01*
X103668182Y-92104151D01*
X103661182Y-92280885D01*
X103589010Y-93298289D01*
X103460087Y-94315204D01*
X103270187Y-95355378D01*
X103015087Y-96442560D01*
X102690563Y-97600496D01*
X102549704Y-98069671D01*
X102542184Y-98094717D01*
G37*
G36*
X195971772Y-72177922D02*
G01*
X195899770Y-72210239D01*
X195790187Y-72215472D01*
X195582925Y-72215472D01*
X195708039Y-72340587D01*
X195801677Y-72456550D01*
X195928902Y-72682686D01*
X196023234Y-72927782D01*
X196060854Y-73138004D01*
X196062170Y-73311715D01*
X195518181Y-73273101D01*
X195296373Y-73258920D01*
X195102944Y-73255490D01*
X194965124Y-73272230D01*
X194847745Y-73314088D01*
X194715639Y-73386010D01*
X194647382Y-73423265D01*
X194414873Y-73525437D01*
X194196302Y-73592978D01*
X194124457Y-73605423D01*
X193848281Y-73627087D01*
X193479946Y-73629923D01*
X193038511Y-73615618D01*
X192543032Y-73585861D01*
X192012569Y-73542339D01*
X191466178Y-73486740D01*
X190922918Y-73420750D01*
X190401847Y-73346059D01*
X189922021Y-73264354D01*
X189502500Y-73177322D01*
X189461440Y-73167572D01*
X189216697Y-73104311D01*
X188916298Y-73020361D01*
X188579221Y-72921700D01*
X188224443Y-72814309D01*
X187870941Y-72704168D01*
X187537693Y-72597257D01*
X187243675Y-72499557D01*
X187007865Y-72417048D01*
X186849240Y-72355710D01*
X186786777Y-72321524D01*
X186763464Y-72298686D01*
X186665009Y-72275378D01*
X186651090Y-72273507D01*
X186605912Y-72236911D01*
X186557410Y-72142250D01*
X186500302Y-71974718D01*
X186483952Y-71915944D01*
X187069946Y-71915944D01*
X187072670Y-71915738D01*
X187155075Y-71899184D01*
X187327580Y-71859966D01*
X187566787Y-71803509D01*
X187849295Y-71735239D01*
X188258773Y-71638559D01*
X188770179Y-71531935D01*
X189232543Y-71457205D01*
X189683389Y-71409659D01*
X190160238Y-71384587D01*
X190700613Y-71377277D01*
X190895568Y-71378151D01*
X191623365Y-71396260D01*
X192336310Y-71436197D01*
X193013518Y-71495861D01*
X193634105Y-71573147D01*
X194177186Y-71665952D01*
X194621875Y-71772173D01*
X194733169Y-71807210D01*
X194999968Y-71906661D01*
X195235908Y-72012095D01*
X195352012Y-72068084D01*
X195475204Y-72118481D01*
X195523019Y-72124466D01*
X195521325Y-72109619D01*
X195504294Y-71999584D01*
X195471871Y-71802280D01*
X195427667Y-71539507D01*
X195375297Y-71233068D01*
X195321056Y-70901438D01*
X195217005Y-70147296D01*
X195135642Y-69380362D01*
X195077093Y-68615102D01*
X195041484Y-67865986D01*
X195028943Y-67147481D01*
X195039594Y-66474055D01*
X195073565Y-65860176D01*
X195130982Y-65320312D01*
X195211972Y-64868930D01*
X195316660Y-64520499D01*
X195382957Y-64345880D01*
X195429172Y-64205603D01*
X195439598Y-64144630D01*
X195390836Y-64146847D01*
X195255469Y-64174959D01*
X195067275Y-64223742D01*
X194714236Y-64295564D01*
X194222734Y-64342271D01*
X193646834Y-64354192D01*
X193002084Y-64332840D01*
X192304030Y-64279726D01*
X191568220Y-64196364D01*
X190810200Y-64084264D01*
X190045518Y-63944940D01*
X189289721Y-63779903D01*
X188558355Y-63590666D01*
X188329926Y-63526790D01*
X188109083Y-63465914D01*
X187955345Y-63424577D01*
X187892798Y-63409340D01*
X187880638Y-63441198D01*
X187859332Y-63563309D01*
X187837152Y-63745590D01*
X187830369Y-63817203D01*
X187826685Y-64007442D01*
X187861768Y-64150253D01*
X187946268Y-64299718D01*
X188016694Y-64424072D01*
X188110570Y-64680417D01*
X188172495Y-65001413D01*
X188202616Y-65395571D01*
X188201079Y-65871401D01*
X188168033Y-66437413D01*
X188103624Y-67102117D01*
X188007998Y-67874024D01*
X187877599Y-68730249D01*
X187715854Y-69550311D01*
X187515984Y-70350766D01*
X187266674Y-71182100D01*
X187250542Y-71232538D01*
X187168387Y-71499771D01*
X187107119Y-71716864D01*
X187072414Y-71862645D01*
X187069946Y-71915944D01*
X186483952Y-71915944D01*
X186429306Y-71719509D01*
X186339142Y-71361816D01*
X186268749Y-71070152D01*
X186144026Y-70515233D01*
X186049004Y-70017445D01*
X185981784Y-69551671D01*
X185940470Y-69092796D01*
X185923163Y-68615703D01*
X185927966Y-68095278D01*
X185952983Y-67506403D01*
X185996314Y-66823963D01*
X186024833Y-66452270D01*
X186097322Y-65734976D01*
X186187200Y-65122734D01*
X186297172Y-64605982D01*
X186429941Y-64175158D01*
X186588212Y-63820701D01*
X186774688Y-63533048D01*
X186992074Y-63302639D01*
X187109996Y-63193194D01*
X187262550Y-63015518D01*
X187315188Y-62885166D01*
X187321290Y-62801340D01*
X187341740Y-62750378D01*
X187405347Y-62741414D01*
X187568467Y-62716226D01*
X187812083Y-62677803D01*
X188117236Y-62629135D01*
X188464971Y-62573212D01*
X189464661Y-62426297D01*
X190527635Y-62307982D01*
X191512426Y-62242914D01*
X192434145Y-62230142D01*
X193307899Y-62268718D01*
X193445243Y-62279396D01*
X193795337Y-62309995D01*
X194119358Y-62342733D01*
X194386143Y-62374318D01*
X194564528Y-62401459D01*
X194790571Y-62457597D01*
X195114905Y-62581687D01*
X195389350Y-62737882D01*
X195578960Y-62908708D01*
X195706627Y-63071010D01*
X195797937Y-62940647D01*
X195820040Y-62912606D01*
X195973647Y-62823082D01*
X196179035Y-62831477D01*
X196421604Y-62937857D01*
X196442841Y-62950849D01*
X196616691Y-63074510D01*
X196694246Y-63177843D01*
X196690412Y-63279811D01*
X196694132Y-63348180D01*
X196730965Y-63510101D01*
X196796062Y-63735678D01*
X196882415Y-63998679D01*
X196966138Y-64246387D01*
X197030435Y-64463790D01*
X197073180Y-64662906D01*
X197100059Y-64878257D01*
X197116757Y-65144367D01*
X197128959Y-65495760D01*
X197128998Y-66198734D01*
X197065109Y-67237708D01*
X196929658Y-68336922D01*
X196725588Y-69477888D01*
X196455845Y-70642114D01*
X196123372Y-71811109D01*
X196085186Y-71932327D01*
X196026731Y-72093593D01*
X196006610Y-72124466D01*
X195971772Y-72177922D01*
G37*
G36*
X136096604Y-115467359D02*
G01*
X136096604Y-116066416D01*
X138867438Y-116066416D01*
X141638272Y-116066416D01*
X145052500Y-119481038D01*
X148466729Y-122895661D01*
X149650062Y-122895661D01*
X150833396Y-122895661D01*
X150833396Y-124902500D01*
X150833396Y-126909340D01*
X149611945Y-126909340D01*
X148390493Y-126909340D01*
X145020974Y-130323963D01*
X141651455Y-133738585D01*
X138802916Y-133738585D01*
X135954377Y-133738585D01*
X136130325Y-133554674D01*
X136164128Y-133520654D01*
X136283384Y-133403009D01*
X136478669Y-133211563D01*
X136743958Y-132952192D01*
X137073225Y-132630767D01*
X137460444Y-132253161D01*
X137899589Y-131825248D01*
X138384634Y-131352901D01*
X138909554Y-130841993D01*
X139468322Y-130298396D01*
X140054913Y-129727985D01*
X140663301Y-129136632D01*
X145020328Y-124902500D01*
X144587121Y-124472271D01*
X144580800Y-124466001D01*
X144466920Y-124354009D01*
X144274552Y-124165835D01*
X144010538Y-123908142D01*
X143681720Y-123587590D01*
X143294941Y-123210839D01*
X142857042Y-122784552D01*
X142374866Y-122315388D01*
X141855256Y-121810009D01*
X141305052Y-121275075D01*
X140731098Y-120717249D01*
X140140236Y-120143189D01*
X136126557Y-116244337D01*
X136093853Y-123089457D01*
X136091426Y-123600484D01*
X136086653Y-124607669D01*
X136082193Y-125505417D01*
X136077744Y-126300793D01*
X136073007Y-127000863D01*
X136067681Y-127612691D01*
X136061466Y-128143342D01*
X136054061Y-128599882D01*
X136045167Y-128989375D01*
X136034482Y-129318887D01*
X136021706Y-129595483D01*
X136006539Y-129826228D01*
X135988680Y-130018187D01*
X135967830Y-130178425D01*
X135943687Y-130314007D01*
X135915952Y-130431999D01*
X135884324Y-130539465D01*
X135848502Y-130643470D01*
X135808186Y-130751080D01*
X135763076Y-130869359D01*
X135750810Y-130901399D01*
X135449304Y-131516326D01*
X135048005Y-132070757D01*
X134553371Y-132559216D01*
X133971863Y-132976225D01*
X133309940Y-133316305D01*
X132574059Y-133573979D01*
X132485536Y-133597798D01*
X132379062Y-133622729D01*
X132263766Y-133643579D01*
X132128547Y-133660817D01*
X131962309Y-133674912D01*
X131753951Y-133686332D01*
X131492377Y-133695545D01*
X131166485Y-133703021D01*
X130765179Y-133709226D01*
X130277359Y-133714630D01*
X129691927Y-133719701D01*
X128997783Y-133724907D01*
X128956500Y-133725203D01*
X128167449Y-133729968D01*
X127486786Y-133731747D01*
X126903639Y-133729897D01*
X126407135Y-133723774D01*
X125986403Y-133712733D01*
X125630569Y-133696132D01*
X125328762Y-133673326D01*
X125070109Y-133643670D01*
X124843738Y-133606522D01*
X124638775Y-133561237D01*
X124444349Y-133507171D01*
X124249588Y-133443681D01*
X124210026Y-133429917D01*
X123750540Y-133244580D01*
X123351819Y-133025519D01*
X122975433Y-132748415D01*
X122582951Y-132388947D01*
X122475812Y-132281598D01*
X122263061Y-132051896D01*
X122097499Y-131836520D01*
X121948966Y-131593457D01*
X121787297Y-131280692D01*
X121738120Y-131180632D01*
X121614081Y-130921610D01*
X121511581Y-130688669D01*
X121428414Y-130467220D01*
X121362376Y-130242673D01*
X121311262Y-130000440D01*
X121272865Y-129725931D01*
X121244982Y-129404557D01*
X121225407Y-129021729D01*
X121211934Y-128562859D01*
X121202359Y-128013356D01*
X121194477Y-127358633D01*
X121193033Y-127220859D01*
X121187875Y-126476179D01*
X121188922Y-125837630D01*
X121196851Y-125293623D01*
X121212334Y-124832570D01*
X121236045Y-124442880D01*
X121268659Y-124112964D01*
X121310848Y-123831233D01*
X121363288Y-123586096D01*
X121426653Y-123365965D01*
X121459173Y-123269225D01*
X121746749Y-122593917D01*
X122114833Y-122002887D01*
X122567559Y-121492115D01*
X123109058Y-121057584D01*
X123743463Y-120695273D01*
X124474906Y-120401163D01*
X124984104Y-120230842D01*
X128413703Y-120212632D01*
X131843302Y-120194422D01*
X131843302Y-122174051D01*
X131843302Y-124153680D01*
X128803090Y-124153773D01*
X128678797Y-124153783D01*
X128010925Y-124154186D01*
X127450791Y-124155415D01*
X126988070Y-124157803D01*
X126612436Y-124161683D01*
X126313563Y-124167388D01*
X126081124Y-124175251D01*
X125904794Y-124185607D01*
X125774247Y-124198787D01*
X125679156Y-124215125D01*
X125609196Y-124234954D01*
X125554041Y-124258608D01*
X125514589Y-124278474D01*
X125433964Y-124323306D01*
X125368134Y-124375167D01*
X125315688Y-124445337D01*
X125275214Y-124545093D01*
X125245300Y-124685713D01*
X125224536Y-124878475D01*
X125211509Y-125134657D01*
X125204808Y-125465536D01*
X125203022Y-125882391D01*
X125204740Y-126396499D01*
X125208549Y-127019139D01*
X125223726Y-129375401D01*
X125419365Y-129550154D01*
X125615003Y-129724906D01*
X128615075Y-129724906D01*
X129115241Y-129724740D01*
X129721385Y-129723793D01*
X130225047Y-129721735D01*
X130636345Y-129718254D01*
X130965396Y-129713043D01*
X131222317Y-129705790D01*
X131417225Y-129696186D01*
X131560238Y-129683921D01*
X131661473Y-129668687D01*
X131731047Y-129650173D01*
X131779078Y-129628069D01*
X131800238Y-129616083D01*
X131847568Y-129591526D01*
X131889879Y-129568011D01*
X131927465Y-129539179D01*
X131960620Y-129498669D01*
X131989640Y-129440121D01*
X132014818Y-129357172D01*
X132036449Y-129243464D01*
X132054827Y-129092634D01*
X132070246Y-128898323D01*
X132083002Y-128654170D01*
X132093387Y-128353814D01*
X132101698Y-127990894D01*
X132108227Y-127559050D01*
X132113270Y-127051920D01*
X132117121Y-126463145D01*
X132120075Y-125786363D01*
X132122425Y-125015214D01*
X132124466Y-124143338D01*
X132126492Y-123164372D01*
X132128799Y-122071958D01*
X132144720Y-114868302D01*
X134120662Y-114868302D01*
X136096604Y-114868302D01*
X136096604Y-115467359D01*
G37*
G36*
X206023924Y-100448255D02*
G01*
X205962377Y-100476250D01*
X205889018Y-100490944D01*
X205693221Y-100520897D01*
X205828180Y-100640708D01*
X205956948Y-100793547D01*
X206080452Y-101061880D01*
X206126321Y-101354736D01*
X206126321Y-101563414D01*
X205613751Y-101527241D01*
X205479133Y-101518358D01*
X205262836Y-101511321D01*
X205110765Y-101524655D01*
X204985583Y-101563538D01*
X204849953Y-101633146D01*
X204753999Y-101681765D01*
X204512205Y-101778821D01*
X204269245Y-101851063D01*
X204219836Y-101861142D01*
X203933323Y-101891355D01*
X203552392Y-101898889D01*
X203095642Y-101885583D01*
X202581672Y-101853275D01*
X202029079Y-101803806D01*
X201456464Y-101739013D01*
X200882424Y-101660737D01*
X200325559Y-101570816D01*
X199804467Y-101471090D01*
X199337748Y-101363398D01*
X199335495Y-101362821D01*
X198920526Y-101251885D01*
X198495007Y-101130073D01*
X198076985Y-101003334D01*
X197684511Y-100877619D01*
X197335631Y-100758879D01*
X197048396Y-100653064D01*
X196840855Y-100566124D01*
X196731056Y-100504010D01*
X196725476Y-100498843D01*
X196660410Y-100395801D01*
X196586082Y-100201410D01*
X196575101Y-100164032D01*
X197153025Y-100164032D01*
X197158073Y-100165728D01*
X197243118Y-100155973D01*
X197407638Y-100121625D01*
X197622001Y-100068708D01*
X197780712Y-100027607D01*
X198435300Y-99872781D01*
X199026667Y-99761778D01*
X199592140Y-99689574D01*
X200169047Y-99651140D01*
X200794717Y-99641449D01*
X201001528Y-99643158D01*
X201774100Y-99663292D01*
X202509787Y-99703774D01*
X203192127Y-99762961D01*
X203804658Y-99839213D01*
X204330919Y-99930887D01*
X204754447Y-100036341D01*
X204852194Y-100068998D01*
X205096743Y-100165149D01*
X205328613Y-100271679D01*
X205627247Y-100423009D01*
X205488511Y-99603321D01*
X205479075Y-99547336D01*
X205339281Y-98639656D01*
X205237167Y-97795818D01*
X205168020Y-96970362D01*
X205127126Y-96117831D01*
X205122446Y-95951828D01*
X205117263Y-95277396D01*
X205134241Y-94643413D01*
X205172004Y-94062973D01*
X205229176Y-93549166D01*
X205304380Y-93115085D01*
X205396240Y-92773821D01*
X205503380Y-92538467D01*
X205515996Y-92518982D01*
X205557270Y-92451750D01*
X205557999Y-92418453D01*
X205499153Y-92417427D01*
X205361703Y-92447008D01*
X205126618Y-92505534D01*
X205095479Y-92513079D01*
X204858413Y-92556925D01*
X204572505Y-92585982D01*
X204214226Y-92601990D01*
X203760047Y-92606693D01*
X203361993Y-92601963D01*
X202535922Y-92561576D01*
X201707048Y-92476946D01*
X200849963Y-92344454D01*
X199939260Y-92160478D01*
X198949531Y-91921400D01*
X198759400Y-91872643D01*
X198463744Y-91798178D01*
X198220533Y-91738624D01*
X198050922Y-91699122D01*
X197976064Y-91684812D01*
X197949789Y-91726446D01*
X197927724Y-91858573D01*
X197919245Y-92049773D01*
X197926141Y-92240118D01*
X197962730Y-92428729D01*
X198038853Y-92566792D01*
X198058086Y-92593169D01*
X198152631Y-92767486D01*
X198225652Y-92965628D01*
X198244874Y-93053883D01*
X198275425Y-93331887D01*
X198287658Y-93699561D01*
X198282035Y-94136985D01*
X198259021Y-94624236D01*
X198219081Y-95141394D01*
X198162678Y-95668538D01*
X198088445Y-96246015D01*
X198001005Y-96842281D01*
X197907457Y-97375582D01*
X197801202Y-97876600D01*
X197675641Y-98376020D01*
X197524175Y-98904526D01*
X197340205Y-99492802D01*
X197265623Y-99730544D01*
X197201269Y-99949493D01*
X197161548Y-100101839D01*
X197153025Y-100164032D01*
X196575101Y-100164032D01*
X196499487Y-99906650D01*
X196397623Y-99502500D01*
X196396434Y-99497529D01*
X196263381Y-98921784D01*
X196162537Y-98432254D01*
X196090676Y-98000930D01*
X196044572Y-97599805D01*
X196021001Y-97200872D01*
X196016737Y-96776122D01*
X196028555Y-96297548D01*
X196033888Y-96156569D01*
X196077673Y-95271433D01*
X196136239Y-94496741D01*
X196211292Y-93824934D01*
X196304536Y-93248455D01*
X196417675Y-92759743D01*
X196552414Y-92351240D01*
X196710458Y-92015388D01*
X196893509Y-91744627D01*
X197103274Y-91531399D01*
X197180105Y-91463685D01*
X197328119Y-91297450D01*
X197380094Y-91167688D01*
X197379994Y-91152897D01*
X197381947Y-91107114D01*
X197398735Y-91070657D01*
X197445127Y-91039420D01*
X197535895Y-91009291D01*
X197685808Y-90976162D01*
X197909635Y-90935924D01*
X198222147Y-90884467D01*
X198638113Y-90817682D01*
X198903523Y-90775606D01*
X199433854Y-90696114D01*
X199897300Y-90635317D01*
X200328906Y-90589792D01*
X200763720Y-90556119D01*
X201236789Y-90530875D01*
X201783160Y-90510640D01*
X201999013Y-90504829D01*
X202721515Y-90501481D01*
X203384302Y-90523672D01*
X203975686Y-90570260D01*
X204483976Y-90640102D01*
X204897485Y-90732057D01*
X205204524Y-90844981D01*
X205393577Y-90950557D01*
X205568377Y-91073360D01*
X205672515Y-91177133D01*
X205770939Y-91327347D01*
X205903701Y-91175946D01*
X206002384Y-91080506D01*
X206101247Y-91054061D01*
X206254176Y-91086004D01*
X206340712Y-91113878D01*
X206573736Y-91232350D01*
X206728906Y-91382873D01*
X206785283Y-91547262D01*
X206788499Y-91585811D01*
X206821371Y-91745611D01*
X206882194Y-91967866D01*
X206961563Y-92216853D01*
X207060228Y-92528930D01*
X207155840Y-92919049D01*
X207216306Y-93315115D01*
X207244326Y-93744968D01*
X207242601Y-94236451D01*
X207213831Y-94817404D01*
X207153136Y-95542514D01*
X207015526Y-96599435D01*
X206814687Y-97689527D01*
X206545515Y-98843538D01*
X206436225Y-99270582D01*
X206336399Y-99652276D01*
X206255947Y-99942413D01*
X206189671Y-100154037D01*
X206132374Y-100300191D01*
X206078857Y-100393916D01*
X206049446Y-100423009D01*
X206023924Y-100448255D01*
G37*
G36*
X149236209Y-85782359D02*
G01*
X149166168Y-85809955D01*
X149063573Y-85814057D01*
X148856509Y-85814057D01*
X148981624Y-85939172D01*
X149076023Y-86056295D01*
X149202840Y-86282025D01*
X149296911Y-86526275D01*
X149334439Y-86735345D01*
X149335755Y-86907813D01*
X148799573Y-86865868D01*
X148573372Y-86849798D01*
X148384892Y-86845665D01*
X148249836Y-86862602D01*
X148132462Y-86905692D01*
X147997030Y-86980020D01*
X147919111Y-87022352D01*
X147685801Y-87124689D01*
X147469887Y-87191591D01*
X147349332Y-87210267D01*
X147049753Y-87228164D01*
X146661957Y-87226998D01*
X146205014Y-87208548D01*
X145697996Y-87174588D01*
X145159974Y-87126896D01*
X144610019Y-87067248D01*
X144067202Y-86997422D01*
X143550593Y-86919194D01*
X143079264Y-86834340D01*
X142672286Y-86744638D01*
X142507328Y-86702155D01*
X142202313Y-86618360D01*
X141861561Y-86519886D01*
X141503939Y-86412689D01*
X141148311Y-86302727D01*
X140813542Y-86195955D01*
X140518498Y-86098332D01*
X140282043Y-86015813D01*
X140123043Y-85954354D01*
X140060362Y-85919914D01*
X140037051Y-85897174D01*
X139938594Y-85873963D01*
X139924570Y-85872067D01*
X139879441Y-85835421D01*
X139831040Y-85740753D01*
X139774093Y-85573241D01*
X139757810Y-85514529D01*
X140320607Y-85514529D01*
X140322442Y-85514297D01*
X140397062Y-85498154D01*
X140562781Y-85460291D01*
X140797047Y-85405904D01*
X141077305Y-85340188D01*
X141345188Y-85277832D01*
X141835991Y-85170001D01*
X142259246Y-85089928D01*
X142646129Y-85034416D01*
X143027816Y-85000268D01*
X143435480Y-84984290D01*
X143900297Y-84983284D01*
X144453443Y-84994054D01*
X145112234Y-85017112D01*
X145937769Y-85066979D01*
X146658332Y-85137253D01*
X147269484Y-85227475D01*
X147766785Y-85337185D01*
X148015559Y-85413526D01*
X148285945Y-85512111D01*
X148500629Y-85606188D01*
X148625543Y-85665185D01*
X148748708Y-85710987D01*
X148796207Y-85710231D01*
X148787473Y-85643437D01*
X148761943Y-85481417D01*
X148723689Y-85250323D01*
X148676807Y-84975378D01*
X148514410Y-83926145D01*
X148363015Y-82533298D01*
X148298912Y-81221085D01*
X148322044Y-79988728D01*
X148342280Y-79655620D01*
X148380881Y-79161808D01*
X148425651Y-78764763D01*
X148478781Y-78449866D01*
X148542461Y-78202499D01*
X148618882Y-78008046D01*
X148652357Y-77936419D01*
X148705454Y-77807501D01*
X148718523Y-77748555D01*
X148680393Y-77749947D01*
X148554526Y-77776333D01*
X148374478Y-77823749D01*
X148094073Y-77885351D01*
X147617871Y-77939282D01*
X147054264Y-77957847D01*
X146418522Y-77942484D01*
X145725914Y-77894632D01*
X144991709Y-77815726D01*
X144231177Y-77707206D01*
X143459587Y-77570508D01*
X142692210Y-77407071D01*
X141944315Y-77218332D01*
X141877087Y-77199923D01*
X141601038Y-77124703D01*
X141375128Y-77063728D01*
X141221147Y-77022851D01*
X141160888Y-77007925D01*
X141150859Y-77037813D01*
X141130147Y-77157639D01*
X141106402Y-77337825D01*
X141097293Y-77422757D01*
X141093250Y-77603435D01*
X141129691Y-77742205D01*
X141217702Y-77894502D01*
X141280139Y-78002749D01*
X141376662Y-78257864D01*
X141440870Y-78579434D01*
X141472910Y-78975654D01*
X141472931Y-79454717D01*
X141441080Y-80024817D01*
X141377506Y-80694145D01*
X141282357Y-81470897D01*
X141158062Y-82295050D01*
X140995871Y-83123786D01*
X140793861Y-83934827D01*
X140540259Y-84780684D01*
X140524450Y-84829943D01*
X140439935Y-85097594D01*
X140373552Y-85315066D01*
X140331657Y-85461124D01*
X140320607Y-85514529D01*
X139757810Y-85514529D01*
X139703325Y-85318064D01*
X139613461Y-84960401D01*
X139514639Y-84548491D01*
X139393342Y-84005017D01*
X139303038Y-83532514D01*
X139240884Y-83104886D01*
X139204036Y-82696032D01*
X139189649Y-82279854D01*
X139194880Y-81830254D01*
X139216885Y-81321133D01*
X139251105Y-80738552D01*
X139306944Y-79986231D01*
X139372071Y-79337355D01*
X139448797Y-78782300D01*
X139539432Y-78311442D01*
X139646286Y-77915156D01*
X139771669Y-77583817D01*
X139917891Y-77307803D01*
X140087262Y-77077487D01*
X140282092Y-76883247D01*
X140380915Y-76793637D01*
X140536394Y-76616511D01*
X140589499Y-76483750D01*
X140595151Y-76399915D01*
X140615325Y-76348963D01*
X140678932Y-76339999D01*
X140842052Y-76314811D01*
X141085668Y-76276388D01*
X141390821Y-76227720D01*
X141738556Y-76171797D01*
X142289148Y-76087002D01*
X143314923Y-75954816D01*
X144264798Y-75870493D01*
X145160834Y-75832835D01*
X146025089Y-75840644D01*
X146879623Y-75892724D01*
X147185942Y-75920816D01*
X147610668Y-75969345D01*
X147945208Y-76024584D01*
X148208062Y-76091703D01*
X148417728Y-76175875D01*
X148592706Y-76282273D01*
X148751493Y-76416067D01*
X148890488Y-76544451D01*
X148973338Y-76600247D01*
X149026773Y-76591676D01*
X149079078Y-76528443D01*
X149103315Y-76498683D01*
X149254391Y-76419667D01*
X149458234Y-76432338D01*
X149695189Y-76536442D01*
X149716426Y-76549434D01*
X149890276Y-76673095D01*
X149967831Y-76776428D01*
X149963997Y-76878396D01*
X149967717Y-76946765D01*
X150004550Y-77108686D01*
X150069647Y-77334263D01*
X150156000Y-77597264D01*
X150240956Y-77848766D01*
X150304736Y-78065085D01*
X150347142Y-78263740D01*
X150373825Y-78479098D01*
X150390435Y-78745526D01*
X150402622Y-79097392D01*
X150407164Y-79398542D01*
X150377693Y-80301476D01*
X150289058Y-81272120D01*
X150145123Y-82285923D01*
X149949753Y-83318329D01*
X149706810Y-84344784D01*
X149420159Y-85340735D01*
X149347739Y-85564945D01*
X149290973Y-85708334D01*
X149289570Y-85710231D01*
X149236209Y-85782359D01*
G37*
G36*
X141414989Y-107507413D02*
G01*
X142924301Y-107508398D01*
X144445145Y-107510262D01*
X145969795Y-107512986D01*
X147490526Y-107516550D01*
X148999610Y-107520934D01*
X150489323Y-107526120D01*
X151951937Y-107532088D01*
X153379728Y-107538817D01*
X154764969Y-107546290D01*
X156099933Y-107554485D01*
X157376896Y-107563385D01*
X158588131Y-107572969D01*
X159725911Y-107583217D01*
X160782512Y-107594110D01*
X161750207Y-107605630D01*
X162621269Y-107617755D01*
X163387974Y-107630468D01*
X164042594Y-107643748D01*
X164642942Y-107657501D01*
X167391357Y-107723106D01*
X170030243Y-107790637D01*
X172568070Y-107860393D01*
X175013306Y-107932672D01*
X177374419Y-108007771D01*
X179659879Y-108085990D01*
X181878153Y-108167626D01*
X184037712Y-108252977D01*
X186147023Y-108342343D01*
X188214556Y-108436021D01*
X190248779Y-108534309D01*
X192258160Y-108637506D01*
X192706401Y-108661198D01*
X193236689Y-108689195D01*
X193741892Y-108715837D01*
X194203101Y-108740129D01*
X194601401Y-108761072D01*
X194917883Y-108777673D01*
X195133632Y-108788935D01*
X195589573Y-108815627D01*
X196170889Y-108855249D01*
X196822506Y-108904118D01*
X197519178Y-108960084D01*
X198235658Y-109020997D01*
X198946699Y-109084706D01*
X199627054Y-109149062D01*
X200251476Y-109211913D01*
X200794717Y-109271110D01*
X201866814Y-109410106D01*
X203050902Y-109608120D01*
X204121818Y-109840527D01*
X205080627Y-110107976D01*
X205928392Y-110411122D01*
X206666176Y-110750614D01*
X207295044Y-111127104D01*
X207816060Y-111541244D01*
X208230286Y-111993686D01*
X208538787Y-112485081D01*
X208742626Y-113016080D01*
X208842867Y-113587336D01*
X208840574Y-114199500D01*
X208803627Y-114638952D01*
X208198818Y-114598359D01*
X207594009Y-114557766D01*
X207234576Y-114775116D01*
X207078449Y-114862749D01*
X206552901Y-115084693D01*
X205919224Y-115259135D01*
X205178959Y-115385710D01*
X204333648Y-115464051D01*
X203988275Y-115482518D01*
X203559543Y-115498342D01*
X203117178Y-115506070D01*
X202649448Y-115505282D01*
X202144621Y-115495559D01*
X201590965Y-115476481D01*
X200976747Y-115447628D01*
X200290236Y-115408580D01*
X199519700Y-115358919D01*
X198653406Y-115298225D01*
X197679623Y-115226077D01*
X197035603Y-115178387D01*
X195789048Y-115090960D01*
X194438892Y-115001894D01*
X192995540Y-114911674D01*
X191469397Y-114820785D01*
X189870870Y-114729710D01*
X188210362Y-114638934D01*
X186498279Y-114548943D01*
X184745026Y-114460219D01*
X182961008Y-114373249D01*
X181156631Y-114288516D01*
X179342300Y-114206506D01*
X177528419Y-114127702D01*
X175725394Y-114052589D01*
X173943630Y-113981651D01*
X172193532Y-113915374D01*
X170485506Y-113854242D01*
X168829956Y-113798739D01*
X167237288Y-113749350D01*
X165717906Y-113706559D01*
X164282217Y-113670851D01*
X164252365Y-113670163D01*
X163578714Y-113654419D01*
X162847992Y-113636963D01*
X162089673Y-113618522D01*
X161333235Y-113599825D01*
X160608152Y-113581600D01*
X159943899Y-113564576D01*
X159369953Y-113549481D01*
X158806946Y-113534650D01*
X157420230Y-113499997D01*
X155958180Y-113466025D01*
X154418016Y-113432693D01*
X152796959Y-113399958D01*
X151092228Y-113367780D01*
X149301045Y-113336117D01*
X147420628Y-113304929D01*
X145448198Y-113274172D01*
X143380975Y-113243807D01*
X141216180Y-113213793D01*
X138951033Y-113184086D01*
X136582753Y-113154647D01*
X134108561Y-113125434D01*
X131525677Y-113096405D01*
X128831322Y-113067519D01*
X126022714Y-113038736D01*
X123097076Y-113010013D01*
X120719114Y-112985887D01*
X118122858Y-112956364D01*
X115638833Y-112924481D01*
X113263014Y-112890084D01*
X110991375Y-112853016D01*
X108819892Y-112813123D01*
X106744539Y-112770249D01*
X104761293Y-112724240D01*
X102866127Y-112674939D01*
X101055017Y-112622191D01*
X99323938Y-112565842D01*
X97668865Y-112505735D01*
X96085773Y-112441716D01*
X94570637Y-112373629D01*
X93119432Y-112301319D01*
X91728133Y-112224631D01*
X90392716Y-112143409D01*
X89109154Y-112057499D01*
X87873424Y-111966744D01*
X86681500Y-111870990D01*
X85529358Y-111770080D01*
X84412971Y-111663861D01*
X83328316Y-111552177D01*
X82271368Y-111434872D01*
X81133160Y-111303916D01*
X81116283Y-110600024D01*
X81112763Y-110378843D01*
X81117158Y-110107629D01*
X81134510Y-109948246D01*
X81165135Y-109896133D01*
X81166317Y-109896109D01*
X81247120Y-109887967D01*
X81429834Y-109866561D01*
X81698437Y-109833860D01*
X82036908Y-109791837D01*
X82429226Y-109742462D01*
X82859371Y-109687706D01*
X83208903Y-109643419D01*
X85411998Y-109383671D01*
X87731041Y-109142480D01*
X90163931Y-108920018D01*
X92708563Y-108716454D01*
X95362836Y-108531959D01*
X98124644Y-108366702D01*
X100991887Y-108220854D01*
X101911761Y-108178339D01*
X102994539Y-108129405D01*
X104038080Y-108083658D01*
X105049956Y-108040915D01*
X106037742Y-108000991D01*
X107009011Y-107963700D01*
X107971337Y-107928859D01*
X108932293Y-107896282D01*
X109899453Y-107865784D01*
X110880391Y-107837181D01*
X111882680Y-107810287D01*
X112913895Y-107784918D01*
X113981608Y-107760890D01*
X115093394Y-107738016D01*
X116256826Y-107716113D01*
X117479478Y-107694996D01*
X118768924Y-107674479D01*
X120132737Y-107654379D01*
X121578490Y-107634509D01*
X123113759Y-107614686D01*
X124746115Y-107594724D01*
X126483134Y-107574439D01*
X128332388Y-107553646D01*
X128655855Y-107550206D01*
X129624916Y-107541328D01*
X130682768Y-107533523D01*
X131821687Y-107526772D01*
X133033947Y-107521057D01*
X134311820Y-107516358D01*
X135647581Y-107512655D01*
X137033505Y-107509928D01*
X138461865Y-107508158D01*
X139924935Y-107507327D01*
X141414989Y-107507413D01*
G37*
G36*
X166438821Y-71826085D02*
G01*
X166235006Y-71856038D01*
X166031192Y-71885991D01*
X166193668Y-72078623D01*
X166275431Y-72189398D01*
X166416925Y-72489560D01*
X166468774Y-72799157D01*
X166468545Y-72818981D01*
X166458002Y-72873899D01*
X166415559Y-72907873D01*
X166319237Y-72925924D01*
X166147060Y-72933073D01*
X165877052Y-72934340D01*
X165612787Y-72937867D01*
X165405058Y-72952182D01*
X165277858Y-72980164D01*
X165210398Y-73024629D01*
X165175906Y-73055085D01*
X165039113Y-73131160D01*
X164858605Y-73200173D01*
X164782381Y-73220227D01*
X164482711Y-73263465D01*
X164089404Y-73282714D01*
X163619937Y-73279478D01*
X163091792Y-73255263D01*
X162522445Y-73211570D01*
X161929378Y-73149906D01*
X161330069Y-73071775D01*
X160741997Y-72978679D01*
X160182641Y-72872124D01*
X159669481Y-72753614D01*
X159538008Y-72719557D01*
X159134872Y-72610759D01*
X158729466Y-72495583D01*
X158338647Y-72379369D01*
X157979272Y-72267454D01*
X157668201Y-72165176D01*
X157422289Y-72077873D01*
X157258397Y-72010884D01*
X157193381Y-71969546D01*
X157170964Y-71943443D01*
X157073569Y-71915776D01*
X157059172Y-71913504D01*
X157014652Y-71874065D01*
X156966017Y-71774545D01*
X156908288Y-71600621D01*
X156890861Y-71536872D01*
X157503224Y-71536872D01*
X157546026Y-71537871D01*
X157685061Y-71516187D01*
X157895233Y-71473117D01*
X158151304Y-71413465D01*
X158497219Y-71329931D01*
X158919123Y-71234506D01*
X159286165Y-71163269D01*
X159627441Y-71112921D01*
X159972053Y-71080160D01*
X160349098Y-71061685D01*
X160787677Y-71054197D01*
X161316887Y-71054393D01*
X162155806Y-71071161D01*
X162962382Y-71114228D01*
X163692265Y-71182241D01*
X164337135Y-71274006D01*
X164888669Y-71388330D01*
X165338547Y-71524020D01*
X165678448Y-71679882D01*
X165714367Y-71700707D01*
X165839282Y-71768704D01*
X165903094Y-71796133D01*
X165913605Y-71792829D01*
X165925190Y-71759826D01*
X165922432Y-71677394D01*
X165903396Y-71528449D01*
X165866149Y-71295910D01*
X165808758Y-70962694D01*
X165770832Y-70738068D01*
X165666326Y-70019225D01*
X165582462Y-69281669D01*
X165519320Y-68539060D01*
X165476977Y-67805056D01*
X165455510Y-67093317D01*
X165454997Y-66417503D01*
X165475516Y-65791273D01*
X165517144Y-65228286D01*
X165579960Y-64742201D01*
X165664040Y-64346679D01*
X165769463Y-64055379D01*
X165798981Y-63994922D01*
X165859241Y-63855615D01*
X165864242Y-63796450D01*
X165817396Y-63799189D01*
X165491357Y-63893782D01*
X165028899Y-63966347D01*
X164477030Y-64003702D01*
X163848925Y-64006176D01*
X163157759Y-63974101D01*
X162416706Y-63907809D01*
X161638942Y-63807631D01*
X160837642Y-63673899D01*
X160554611Y-63617758D01*
X160206410Y-63542744D01*
X159828551Y-63456834D01*
X159445516Y-63365959D01*
X159081788Y-63276053D01*
X158761850Y-63193046D01*
X158510185Y-63122872D01*
X158351275Y-63071462D01*
X158325679Y-63065234D01*
X158286119Y-63092950D01*
X158266800Y-63196368D01*
X158261698Y-63397402D01*
X158266508Y-63547693D01*
X158313542Y-63809949D01*
X158426439Y-64075716D01*
X158485432Y-64193485D01*
X158529032Y-64300789D01*
X158558430Y-64416966D01*
X158576295Y-64564203D01*
X158585293Y-64764688D01*
X158588093Y-65040606D01*
X158587361Y-65414145D01*
X158584800Y-65639244D01*
X158510657Y-66900945D01*
X158337899Y-68192450D01*
X158070725Y-69488051D01*
X157713340Y-70762037D01*
X157695614Y-70817811D01*
X157612022Y-71090838D01*
X157548098Y-71316424D01*
X157509834Y-71472469D01*
X157503224Y-71536872D01*
X156890861Y-71536872D01*
X156836487Y-71337968D01*
X156745634Y-70972262D01*
X156624014Y-70459342D01*
X156524323Y-70006131D01*
X156450759Y-69615764D01*
X156400233Y-69261272D01*
X156369660Y-68915684D01*
X156355951Y-68552030D01*
X156356019Y-68143339D01*
X156366778Y-67662642D01*
X156376066Y-67368713D01*
X156412890Y-66553990D01*
X156463960Y-65844977D01*
X156530797Y-65231544D01*
X156614917Y-64703560D01*
X156717841Y-64250894D01*
X156841087Y-63863416D01*
X156986173Y-63530994D01*
X157088920Y-63342076D01*
X157269428Y-63082712D01*
X157462410Y-62901985D01*
X157502880Y-62871236D01*
X157662352Y-62713544D01*
X157731985Y-62570824D01*
X157752327Y-62494150D01*
X157809596Y-62436625D01*
X157930201Y-62393621D01*
X158141887Y-62350203D01*
X158380084Y-62308163D01*
X158873171Y-62227672D01*
X159400419Y-62148522D01*
X159923885Y-62076084D01*
X160405623Y-62015731D01*
X160807689Y-61972834D01*
X161079970Y-61951945D01*
X161556450Y-61929197D01*
X162088744Y-61916563D01*
X162647637Y-61913848D01*
X163203913Y-61920854D01*
X163728358Y-61937382D01*
X164191755Y-61963236D01*
X164564889Y-61998219D01*
X164891406Y-62044852D01*
X165229748Y-62116730D01*
X165500172Y-62211658D01*
X165731915Y-62340491D01*
X165954217Y-62514086D01*
X166044869Y-62592385D01*
X166132220Y-62652505D01*
X166182547Y-62643949D01*
X166227565Y-62573624D01*
X166268583Y-62515493D01*
X166382002Y-62459393D01*
X166553318Y-62480034D01*
X166799491Y-62577532D01*
X166822917Y-62588741D01*
X167004983Y-62704402D01*
X167095625Y-62845814D01*
X167119892Y-63049906D01*
X167125828Y-63088010D01*
X167164789Y-63228876D01*
X167232115Y-63435774D01*
X167318404Y-63678916D01*
X167517123Y-64218066D01*
X167514249Y-65625850D01*
X167511461Y-66089858D01*
X167503131Y-66526918D01*
X167487815Y-66894207D01*
X167463957Y-67218291D01*
X167430002Y-67525737D01*
X167384393Y-67843111D01*
X167235292Y-68694152D01*
X166993497Y-69801518D01*
X166687247Y-70957453D01*
X166457771Y-71759826D01*
X166438821Y-71826085D01*
G37*
G36*
X134447730Y-85414379D02*
G01*
X134373337Y-85448859D01*
X134258391Y-85454623D01*
X134047400Y-85454623D01*
X134230055Y-85662655D01*
X134378300Y-85880981D01*
X134494283Y-86161473D01*
X134538723Y-86428090D01*
X134532276Y-86466247D01*
X134492256Y-86501170D01*
X134396699Y-86521368D01*
X134224193Y-86530675D01*
X133953329Y-86532925D01*
X133694323Y-86536531D01*
X133473553Y-86552327D01*
X133324541Y-86584065D01*
X133221329Y-86635379D01*
X133178741Y-86661958D01*
X133003976Y-86744763D01*
X132803637Y-86814899D01*
X132773844Y-86822708D01*
X132514826Y-86861035D01*
X132158743Y-86877887D01*
X131723376Y-86874727D01*
X131226506Y-86853019D01*
X130685913Y-86814227D01*
X130119379Y-86759815D01*
X129544683Y-86691247D01*
X128979607Y-86609987D01*
X128441930Y-86517499D01*
X127949434Y-86415246D01*
X127774565Y-86373164D01*
X127453913Y-86289229D01*
X127100398Y-86190254D01*
X126732569Y-86082090D01*
X126368972Y-85970590D01*
X126028156Y-85861605D01*
X125728670Y-85760989D01*
X125489060Y-85674592D01*
X125327875Y-85608266D01*
X125263664Y-85567865D01*
X125240329Y-85541446D01*
X125141983Y-85514529D01*
X125104963Y-85501414D01*
X125055193Y-85434941D01*
X124999539Y-85298118D01*
X124939996Y-85101842D01*
X125555346Y-85101842D01*
X125556490Y-85155095D01*
X125560866Y-85154764D01*
X125650514Y-85137736D01*
X125829440Y-85098699D01*
X126074085Y-85042911D01*
X126360887Y-84975627D01*
X126743162Y-84887233D01*
X127220343Y-84787521D01*
X127652772Y-84714222D01*
X128067760Y-84665062D01*
X128492622Y-84637768D01*
X128954672Y-84630064D01*
X129481223Y-84639678D01*
X130099590Y-84664334D01*
X130245398Y-84671426D01*
X131126434Y-84728557D01*
X131890490Y-84804854D01*
X132538715Y-84900516D01*
X133072259Y-85015742D01*
X133492271Y-85150731D01*
X133799900Y-85305683D01*
X133841855Y-85332599D01*
X133951449Y-85386421D01*
X133990437Y-85354705D01*
X133976224Y-85229977D01*
X133918326Y-84931525D01*
X133765365Y-84011026D01*
X133643966Y-83067604D01*
X133556327Y-82128245D01*
X133504645Y-81219933D01*
X133491120Y-80369652D01*
X133517950Y-79604386D01*
X133555917Y-79089477D01*
X133597123Y-78654527D01*
X133642362Y-78309005D01*
X133694089Y-78037395D01*
X133754764Y-77824181D01*
X133826841Y-77653848D01*
X133860768Y-77584229D01*
X133913918Y-77453877D01*
X133923571Y-77390867D01*
X133901968Y-77388103D01*
X133794974Y-77411271D01*
X133634840Y-77464304D01*
X133566152Y-77485443D01*
X133323875Y-77530138D01*
X132994371Y-77564357D01*
X132600496Y-77587375D01*
X132165107Y-77598467D01*
X131711063Y-77596909D01*
X131261221Y-77581977D01*
X130838438Y-77552945D01*
X130779998Y-77547528D01*
X130003598Y-77454466D01*
X129161597Y-77318629D01*
X128293856Y-77147125D01*
X127440236Y-76947060D01*
X127273650Y-76904450D01*
X126971685Y-76825970D01*
X126717770Y-76758373D01*
X126534625Y-76707753D01*
X126444969Y-76680200D01*
X126430423Y-76675233D01*
X126375345Y-76686311D01*
X126337853Y-76772266D01*
X126306688Y-76955515D01*
X126290521Y-77134484D01*
X126304485Y-77281626D01*
X126358715Y-77441690D01*
X126463276Y-77659954D01*
X126661462Y-78050808D01*
X126655806Y-78982079D01*
X126624973Y-79831090D01*
X126513561Y-80964876D01*
X126326099Y-82128243D01*
X126067721Y-83290573D01*
X125743561Y-84421250D01*
X125727292Y-84472191D01*
X125646137Y-84739246D01*
X125587026Y-84956178D01*
X125555346Y-85101842D01*
X124939996Y-85101842D01*
X124931936Y-85075272D01*
X124846315Y-84750732D01*
X124732096Y-84291207D01*
X124605485Y-83740253D01*
X124511053Y-83257537D01*
X124445828Y-82816671D01*
X124406838Y-82391270D01*
X124391111Y-81954945D01*
X124395674Y-81481308D01*
X124417557Y-80943974D01*
X124430831Y-80695555D01*
X124483949Y-79886796D01*
X124548110Y-79185704D01*
X124625567Y-78583018D01*
X124718575Y-78069478D01*
X124829388Y-77635824D01*
X124960261Y-77272796D01*
X125113446Y-76971135D01*
X125291200Y-76721580D01*
X125495775Y-76514871D01*
X125616265Y-76402401D01*
X125745570Y-76247808D01*
X125792801Y-76134581D01*
X125794874Y-76107823D01*
X125816035Y-76065960D01*
X125873596Y-76029812D01*
X125983978Y-75994702D01*
X126163601Y-75955956D01*
X126428885Y-75908896D01*
X126796250Y-75848848D01*
X127091049Y-75801685D01*
X127558423Y-75728687D01*
X127947957Y-75671851D01*
X128285782Y-75628660D01*
X128598031Y-75596597D01*
X128910836Y-75573145D01*
X129250330Y-75555786D01*
X129642645Y-75542004D01*
X130113912Y-75529282D01*
X130679237Y-75520164D01*
X131380278Y-75524740D01*
X132007058Y-75547923D01*
X132548455Y-75589046D01*
X132993349Y-75647439D01*
X133330617Y-75722436D01*
X133424667Y-75756437D01*
X133673119Y-75887028D01*
X133904867Y-76057390D01*
X133963343Y-76108766D01*
X134094792Y-76218505D01*
X134172572Y-76260649D01*
X134224015Y-76244029D01*
X134276448Y-76177479D01*
X134397951Y-76073649D01*
X134568095Y-76061769D01*
X134796631Y-76146517D01*
X134806900Y-76151743D01*
X135035759Y-76290283D01*
X135152937Y-76417037D01*
X135164843Y-76538834D01*
X135166615Y-76639325D01*
X135207010Y-76815289D01*
X135277972Y-77023005D01*
X135303383Y-77088066D01*
X135424360Y-77431821D01*
X135511937Y-77760657D01*
X135569628Y-78101310D01*
X135600947Y-78480516D01*
X135609409Y-78925012D01*
X135598529Y-79461532D01*
X135538802Y-80422010D01*
X135399117Y-81593461D01*
X135190303Y-82784765D01*
X134918935Y-83959243D01*
X134591586Y-85080213D01*
X134566638Y-85156139D01*
X134504515Y-85325400D01*
X134485813Y-85354705D01*
X134447730Y-85414379D01*
G37*
G36*
X210731942Y-72183900D02*
G01*
X210625444Y-72204362D01*
X210437637Y-72223204D01*
X210617516Y-72473937D01*
X210745820Y-72702406D01*
X210837596Y-73018864D01*
X210877796Y-73313058D01*
X210323138Y-73273688D01*
X210189086Y-73264722D01*
X209960679Y-73255533D01*
X209807989Y-73263932D01*
X209701022Y-73292943D01*
X209609782Y-73345589D01*
X209507691Y-73407395D01*
X209223413Y-73526363D01*
X208881981Y-73615904D01*
X208735568Y-73633725D01*
X208442205Y-73642238D01*
X208063151Y-73633195D01*
X207617269Y-73608464D01*
X207123422Y-73569913D01*
X206600472Y-73519411D01*
X206067280Y-73458827D01*
X205542708Y-73390029D01*
X205045620Y-73314885D01*
X204594876Y-73235264D01*
X204209340Y-73153035D01*
X204098579Y-73125587D01*
X203812582Y-73049000D01*
X203482341Y-72954729D01*
X203127793Y-72849083D01*
X202768874Y-72738368D01*
X202425517Y-72628892D01*
X202117660Y-72526961D01*
X201865238Y-72438884D01*
X201688185Y-72370967D01*
X201606439Y-72329518D01*
X201572676Y-72306336D01*
X201452579Y-72275378D01*
X201428673Y-72267563D01*
X201385415Y-72212051D01*
X201335734Y-72091960D01*
X201275312Y-71894074D01*
X201272735Y-71884212D01*
X201881224Y-71884212D01*
X201894927Y-71886189D01*
X202001308Y-71872520D01*
X202193893Y-71835917D01*
X202451309Y-71780634D01*
X202752184Y-71710922D01*
X202957021Y-71662503D01*
X203416856Y-71560668D01*
X203822823Y-71484619D01*
X204203811Y-71431587D01*
X204588707Y-71398801D01*
X205006399Y-71383494D01*
X205485775Y-71382895D01*
X206055723Y-71394236D01*
X206438656Y-71406373D01*
X207325460Y-71453649D01*
X208095801Y-71524744D01*
X208750380Y-71619735D01*
X209289898Y-71738696D01*
X209538259Y-71815013D01*
X209812118Y-71915159D01*
X210031319Y-72011442D01*
X210334870Y-72165263D01*
X210297701Y-71965722D01*
X210255237Y-71733931D01*
X210086202Y-70701816D01*
X209964864Y-69736348D01*
X209888243Y-68803217D01*
X209853357Y-67868114D01*
X209857225Y-66896731D01*
X209872730Y-66335196D01*
X209894254Y-65845773D01*
X209922876Y-65445974D01*
X209960398Y-65120338D01*
X210008622Y-64853406D01*
X210069352Y-64629719D01*
X210144389Y-64433816D01*
X210182473Y-64344218D01*
X210231604Y-64211405D01*
X210242776Y-64151110D01*
X210204209Y-64152013D01*
X210077863Y-64177922D01*
X209897592Y-64225164D01*
X209673844Y-64276919D01*
X209205069Y-64336803D01*
X208646394Y-64360074D01*
X208012681Y-64348139D01*
X207318798Y-64302407D01*
X206579609Y-64224285D01*
X205809979Y-64115181D01*
X205024774Y-63976505D01*
X204238858Y-63809663D01*
X203467098Y-63616063D01*
X203395624Y-63596724D01*
X203119340Y-63523755D01*
X202893402Y-63466883D01*
X202739505Y-63431433D01*
X202679350Y-63422729D01*
X202671252Y-63457996D01*
X202657120Y-63584756D01*
X202643215Y-63768774D01*
X202639533Y-63949528D01*
X202670507Y-64137855D01*
X202753759Y-64309713D01*
X202771565Y-64339213D01*
X202867384Y-64535765D01*
X202939018Y-64764903D01*
X202986502Y-65037230D01*
X203009868Y-65363346D01*
X203009151Y-65753855D01*
X202984385Y-66219356D01*
X202935604Y-66770453D01*
X202862842Y-67417747D01*
X202766133Y-68171840D01*
X202698877Y-68633673D01*
X202594706Y-69216053D01*
X202466715Y-69788662D01*
X202305865Y-70390905D01*
X202103117Y-71062187D01*
X202073191Y-71157945D01*
X201989747Y-71435437D01*
X201926084Y-71663255D01*
X201887983Y-71819985D01*
X201881224Y-71884212D01*
X201272735Y-71884212D01*
X201199826Y-71605177D01*
X201104957Y-71212052D01*
X201040248Y-70932948D01*
X200956778Y-70559542D01*
X200883052Y-70215033D01*
X200825275Y-69928591D01*
X200789650Y-69729387D01*
X200770518Y-69580947D01*
X200741698Y-69184022D01*
X200729648Y-68696633D01*
X200734340Y-68137997D01*
X200755746Y-67527336D01*
X200793838Y-66883868D01*
X200798267Y-66822233D01*
X200861625Y-66076106D01*
X200936857Y-65438057D01*
X201026942Y-64897479D01*
X201134860Y-64443762D01*
X201263590Y-64066296D01*
X201416111Y-63754472D01*
X201595403Y-63497682D01*
X201804446Y-63285316D01*
X201922898Y-63176109D01*
X202062980Y-63012039D01*
X202112612Y-62891315D01*
X202112727Y-62880148D01*
X202118787Y-62839142D01*
X202143203Y-62804055D01*
X202198494Y-62771959D01*
X202297184Y-62739930D01*
X202451793Y-62705041D01*
X202674843Y-62664367D01*
X202978856Y-62614981D01*
X203376354Y-62553957D01*
X203879859Y-62478371D01*
X204202199Y-62433016D01*
X205008569Y-62342249D01*
X205827532Y-62279709D01*
X206637661Y-62245697D01*
X207417524Y-62240516D01*
X208145693Y-62264470D01*
X208800737Y-62317860D01*
X209361226Y-62400989D01*
X209587345Y-62457404D01*
X209911807Y-62581757D01*
X210186194Y-62738006D01*
X210375658Y-62908708D01*
X210503325Y-63071010D01*
X210594635Y-62940647D01*
X210602061Y-62930437D01*
X210746500Y-62828533D01*
X210950554Y-62828097D01*
X211216333Y-62929090D01*
X211261257Y-62953751D01*
X211421808Y-63081465D01*
X211504889Y-63219179D01*
X211493096Y-63340990D01*
X211495486Y-63412906D01*
X211535037Y-63564139D01*
X211603755Y-63758736D01*
X211682037Y-63969858D01*
X211802362Y-64374496D01*
X211881124Y-64790103D01*
X211924126Y-65252141D01*
X211937170Y-65796068D01*
X211924440Y-66462117D01*
X211881471Y-67141771D01*
X211804435Y-67846980D01*
X211689528Y-68621133D01*
X211672870Y-68718482D01*
X211599418Y-69099357D01*
X211502324Y-69553941D01*
X211389119Y-70050623D01*
X211267336Y-70557791D01*
X211144508Y-71043831D01*
X211028168Y-71477134D01*
X210925848Y-71826085D01*
X210862278Y-72015034D01*
X210803450Y-72130155D01*
X210756739Y-72165263D01*
X210731942Y-72183900D01*
G37*
G36*
X104915708Y-83927029D02*
G01*
X104683265Y-83946086D01*
X104450823Y-83965144D01*
X104630302Y-84155756D01*
X104757653Y-84319860D01*
X104895018Y-84606908D01*
X104945660Y-84894459D01*
X104945568Y-84910503D01*
X104937104Y-84970357D01*
X104898808Y-85007162D01*
X104808184Y-85026518D01*
X104642740Y-85034025D01*
X104379981Y-85035283D01*
X104338963Y-85035342D01*
X104063196Y-85041366D01*
X103869734Y-85061114D01*
X103725379Y-85100025D01*
X103596930Y-85163536D01*
X103565813Y-85181281D01*
X103369060Y-85275168D01*
X103189143Y-85337121D01*
X103139912Y-85347509D01*
X102857315Y-85378999D01*
X102479965Y-85388787D01*
X102026329Y-85378557D01*
X101514877Y-85349995D01*
X100964074Y-85304786D01*
X100392389Y-85244614D01*
X99818289Y-85171163D01*
X99260243Y-85086120D01*
X98736717Y-84991168D01*
X98266179Y-84887993D01*
X98260600Y-84886632D01*
X97917062Y-84798786D01*
X97545572Y-84697035D01*
X97164081Y-84587033D01*
X96790538Y-84474435D01*
X96442892Y-84364892D01*
X96139093Y-84264060D01*
X95897089Y-84177591D01*
X95734831Y-84111138D01*
X95670267Y-84070357D01*
X95646199Y-84043512D01*
X95547098Y-84016887D01*
X95529752Y-84014171D01*
X95484893Y-83976035D01*
X95437264Y-83880996D01*
X95381528Y-83713940D01*
X95360953Y-83638347D01*
X95980642Y-83638347D01*
X96023291Y-83639172D01*
X96162145Y-83617300D01*
X96372183Y-83574103D01*
X96628191Y-83514409D01*
X96780858Y-83477202D01*
X97252417Y-83366928D01*
X97653026Y-83284247D01*
X98014460Y-83225441D01*
X98368491Y-83186795D01*
X98746895Y-83164591D01*
X99181445Y-83155113D01*
X99703915Y-83154644D01*
X100273826Y-83161739D01*
X101113334Y-83191774D01*
X101854350Y-83245552D01*
X102508794Y-83324036D01*
X103088585Y-83428190D01*
X103185633Y-83450201D01*
X103496705Y-83533086D01*
X103796685Y-83628519D01*
X104032099Y-83719964D01*
X104215546Y-83796129D01*
X104356707Y-83835654D01*
X104406499Y-83818437D01*
X104405995Y-83808239D01*
X104391123Y-83698246D01*
X104359795Y-83511857D01*
X104317654Y-83283069D01*
X104222161Y-82734515D01*
X104124259Y-82037655D01*
X104045951Y-81318494D01*
X103987378Y-80591057D01*
X103948681Y-79869370D01*
X103930001Y-79167459D01*
X103931477Y-78499350D01*
X103953252Y-77879068D01*
X103995466Y-77320639D01*
X104058260Y-76838090D01*
X104141773Y-76445445D01*
X104246148Y-76156731D01*
X104275754Y-76096089D01*
X104336051Y-75956686D01*
X104341088Y-75897438D01*
X104294282Y-75900132D01*
X104169487Y-75942617D01*
X103769002Y-76030893D01*
X103274294Y-76086077D01*
X102700384Y-76108614D01*
X102062291Y-76098955D01*
X101375034Y-76057545D01*
X100653633Y-75984834D01*
X99913107Y-75881269D01*
X99168476Y-75747297D01*
X99052882Y-75723672D01*
X98694015Y-75646405D01*
X98308575Y-75558695D01*
X97920523Y-75466435D01*
X97553819Y-75375521D01*
X97232424Y-75291849D01*
X96980297Y-75221313D01*
X96821399Y-75169810D01*
X96793556Y-75166452D01*
X96760260Y-75210664D01*
X96743315Y-75335431D01*
X96738585Y-75560244D01*
X96738611Y-75572706D01*
X96747496Y-75785110D01*
X96769252Y-75945513D01*
X96799398Y-76020043D01*
X96813356Y-76031728D01*
X96883639Y-76129062D01*
X96963315Y-76278177D01*
X96988880Y-76339829D01*
X97021137Y-76457410D01*
X97043072Y-76613658D01*
X97056321Y-76828846D01*
X97062519Y-77123244D01*
X97063303Y-77517123D01*
X97010865Y-78737896D01*
X96851154Y-80060370D01*
X96586601Y-81402765D01*
X96219589Y-82750314D01*
X96172655Y-82903432D01*
X96089241Y-83186455D01*
X96025751Y-83416973D01*
X95987709Y-83574449D01*
X95980642Y-83638347D01*
X95360953Y-83638347D01*
X95312344Y-83459755D01*
X95224375Y-83103326D01*
X95185693Y-82941009D01*
X95054443Y-82359054D01*
X94953900Y-81842823D01*
X94882037Y-81365975D01*
X94836830Y-80902170D01*
X94816255Y-80425064D01*
X94818285Y-79908317D01*
X94840897Y-79325588D01*
X94882064Y-78650535D01*
X94915996Y-78205657D01*
X94993980Y-77456180D01*
X95092184Y-76814672D01*
X95212640Y-76274202D01*
X95357381Y-75827840D01*
X95528441Y-75468657D01*
X95727852Y-75189721D01*
X95957648Y-74984103D01*
X95975492Y-74971399D01*
X96139307Y-74818262D01*
X96210229Y-74672061D01*
X96211604Y-74662012D01*
X96235931Y-74584813D01*
X96299164Y-74532285D01*
X96427898Y-74490751D01*
X96648726Y-74446532D01*
X97256027Y-74342370D01*
X98000871Y-74229712D01*
X98721778Y-74136196D01*
X99372968Y-74068181D01*
X99480550Y-74059694D01*
X99849467Y-74040645D01*
X100289292Y-74029151D01*
X100776196Y-74024844D01*
X101286349Y-74027358D01*
X101795924Y-74036327D01*
X102281092Y-74051383D01*
X102718024Y-74072161D01*
X103082891Y-74098292D01*
X103351864Y-74129411D01*
X103670145Y-74203605D01*
X104000825Y-74330648D01*
X104280134Y-74489793D01*
X104473853Y-74664713D01*
X104590117Y-74812519D01*
X104681427Y-74682156D01*
X104708407Y-74647492D01*
X104833890Y-74565991D01*
X105003647Y-74572738D01*
X105236606Y-74667226D01*
X105444044Y-74793322D01*
X105572456Y-74928263D01*
X105586500Y-75051764D01*
X105588512Y-75115180D01*
X105623159Y-75273926D01*
X105686729Y-75496584D01*
X105772178Y-75756418D01*
X105831731Y-75929118D01*
X105896483Y-76132506D01*
X105941655Y-76312141D01*
X105971521Y-76496734D01*
X105990355Y-76714994D01*
X106002431Y-76995633D01*
X106012026Y-77367359D01*
X106004755Y-78188100D01*
X105920003Y-79318409D01*
X105751810Y-80509998D01*
X105501977Y-81750723D01*
X105172306Y-83028444D01*
X104946717Y-83818437D01*
X104915708Y-83927029D01*
G37*
G36*
X119674029Y-84979226D02*
G01*
X119453595Y-84939709D01*
X119233160Y-84900192D01*
X119394723Y-85072573D01*
X119435699Y-85119181D01*
X119590782Y-85353421D01*
X119700644Y-85611305D01*
X119742359Y-85842086D01*
X119742229Y-85868090D01*
X119733616Y-85929400D01*
X119695174Y-85966600D01*
X119604407Y-85985713D01*
X119438819Y-85992763D01*
X119175915Y-85993774D01*
X119010435Y-85994681D01*
X118785906Y-86003412D01*
X118630110Y-86026512D01*
X118510206Y-86070135D01*
X118393354Y-86140436D01*
X118343452Y-86171076D01*
X118123824Y-86267114D01*
X117896472Y-86323960D01*
X117813473Y-86335159D01*
X117637215Y-86360935D01*
X117525849Y-86380019D01*
X117513182Y-86382471D01*
X117335302Y-86395574D01*
X117060210Y-86392878D01*
X116707088Y-86376182D01*
X116295123Y-86347282D01*
X115843497Y-86307974D01*
X115371397Y-86260054D01*
X114898006Y-86205320D01*
X114442509Y-86145567D01*
X114024090Y-86082592D01*
X113661934Y-86018192D01*
X113562585Y-85997873D01*
X113194059Y-85913324D01*
X112769305Y-85805000D01*
X112313025Y-85680181D01*
X111849920Y-85546150D01*
X111404692Y-85410187D01*
X111002044Y-85279574D01*
X110666677Y-85161593D01*
X110423292Y-85063524D01*
X110390893Y-85048194D01*
X110326405Y-85006983D01*
X110273530Y-84943919D01*
X110224406Y-84840060D01*
X110171167Y-84676464D01*
X110152390Y-84606710D01*
X110756509Y-84606710D01*
X110776229Y-84613850D01*
X110886994Y-84603257D01*
X111073464Y-84568096D01*
X111310637Y-84512612D01*
X111643031Y-84430235D01*
X112153069Y-84313643D01*
X112601464Y-84228224D01*
X113021322Y-84169761D01*
X113445746Y-84134039D01*
X113907840Y-84116841D01*
X114440708Y-84113950D01*
X115116473Y-84124696D01*
X116121344Y-84173061D01*
X117014672Y-84259639D01*
X117795425Y-84384347D01*
X117875986Y-84401227D01*
X118212565Y-84487293D01*
X118538158Y-84591700D01*
X118798844Y-84697615D01*
X118840373Y-84717242D01*
X119024698Y-84795330D01*
X119154263Y-84835326D01*
X119203197Y-84828836D01*
X119202617Y-84818631D01*
X119187494Y-84711174D01*
X119156035Y-84526824D01*
X119113833Y-84298754D01*
X119073009Y-84082173D01*
X118975158Y-83523109D01*
X118898671Y-83007025D01*
X118841222Y-82506826D01*
X118800486Y-81995420D01*
X118774135Y-81445713D01*
X118759843Y-80830610D01*
X118755285Y-80123019D01*
X118755704Y-79772758D01*
X118760577Y-79190132D01*
X118771925Y-78706486D01*
X118791086Y-78308216D01*
X118819402Y-77981719D01*
X118858212Y-77713390D01*
X118908857Y-77489627D01*
X118972677Y-77296824D01*
X119051012Y-77121379D01*
X119193954Y-76836788D01*
X118946416Y-76924124D01*
X118945804Y-76924339D01*
X118788961Y-76963276D01*
X118545839Y-77004756D01*
X118249538Y-77043830D01*
X117933156Y-77075554D01*
X117625119Y-77093474D01*
X116985031Y-77093457D01*
X116267549Y-77053169D01*
X115494556Y-76975434D01*
X114687935Y-76863076D01*
X113869570Y-76718920D01*
X113061344Y-76545791D01*
X112285140Y-76346513D01*
X112071028Y-76287219D01*
X111842906Y-76226158D01*
X111678256Y-76184594D01*
X111602939Y-76169246D01*
X111578543Y-76199798D01*
X111544697Y-76320640D01*
X111517706Y-76501954D01*
X111511539Y-76566531D01*
X111507247Y-76757471D01*
X111541690Y-76898820D01*
X111625518Y-77044132D01*
X111735611Y-77258762D01*
X111821079Y-77564639D01*
X111870953Y-77952313D01*
X111885414Y-78428361D01*
X111864638Y-78999357D01*
X111808806Y-79671879D01*
X111718095Y-80452500D01*
X111692849Y-80644153D01*
X111600279Y-81275885D01*
X111498928Y-81842780D01*
X111379619Y-82387889D01*
X111233177Y-82954261D01*
X111050425Y-83584946D01*
X110974921Y-83837175D01*
X110887900Y-84132263D01*
X110818698Y-84372068D01*
X110773005Y-84536809D01*
X110756509Y-84606710D01*
X110152390Y-84606710D01*
X110105950Y-84434189D01*
X110020889Y-84094292D01*
X110001642Y-84015828D01*
X109913611Y-83644191D01*
X109829193Y-83269350D01*
X109757161Y-82931043D01*
X109706285Y-82669010D01*
X109699430Y-82628910D01*
X109649271Y-82201950D01*
X109621295Y-81685824D01*
X109614140Y-81103706D01*
X109626440Y-80478771D01*
X109656833Y-79834192D01*
X109703954Y-79193144D01*
X109766440Y-78578800D01*
X109842925Y-78014334D01*
X109932046Y-77522922D01*
X110032440Y-77127736D01*
X110176602Y-76749003D01*
X110359993Y-76402616D01*
X110563919Y-76122384D01*
X110771945Y-75934815D01*
X110937972Y-75795080D01*
X110996132Y-75654048D01*
X110997963Y-75603131D01*
X111014707Y-75553092D01*
X111063581Y-75513078D01*
X111161799Y-75477170D01*
X111326577Y-75439454D01*
X111575129Y-75394013D01*
X111924670Y-75334931D01*
X112221584Y-75286828D01*
X113406648Y-75126468D01*
X114550393Y-75022226D01*
X115637114Y-74974883D01*
X116651104Y-74985220D01*
X117576659Y-75054017D01*
X117806458Y-75081541D01*
X118218436Y-75144787D01*
X118541898Y-75220047D01*
X118798136Y-75314353D01*
X119008444Y-75434738D01*
X119194116Y-75588234D01*
X119394694Y-75779859D01*
X119485975Y-75645071D01*
X119493243Y-75634497D01*
X119576015Y-75545552D01*
X119675391Y-75519284D01*
X119819483Y-75556315D01*
X120036403Y-75657269D01*
X120060872Y-75669882D01*
X120272858Y-75807193D01*
X120376839Y-75937759D01*
X120367677Y-76055406D01*
X120367157Y-76056327D01*
X120372179Y-76138439D01*
X120415491Y-76296199D01*
X120488000Y-76496297D01*
X120528303Y-76599316D01*
X120640392Y-76924505D01*
X120721628Y-77243226D01*
X120775213Y-77580551D01*
X120804351Y-77961550D01*
X120812245Y-78411296D01*
X120802097Y-78954859D01*
X120783642Y-79397311D01*
X120706653Y-80358043D01*
X120576177Y-81323934D01*
X120388131Y-82318036D01*
X120138434Y-83363401D01*
X119823002Y-84483080D01*
X119719185Y-84828836D01*
X119674029Y-84979226D01*
G37*
G36*
X208444229Y-86363088D02*
G01*
X208233482Y-86323551D01*
X208022736Y-86284015D01*
X208211870Y-86499427D01*
X208240370Y-86532200D01*
X208336405Y-86655708D01*
X208398665Y-86777549D01*
X208443473Y-86937893D01*
X208487150Y-87176911D01*
X208519552Y-87371604D01*
X207946217Y-87371604D01*
X207925887Y-87371618D01*
X207642902Y-87376818D01*
X207449049Y-87394435D01*
X207315611Y-87428902D01*
X207213870Y-87484653D01*
X207048291Y-87575633D01*
X206763541Y-87677749D01*
X206425849Y-87755844D01*
X206387530Y-87761294D01*
X206167796Y-87771023D01*
X205853184Y-87763404D01*
X205462266Y-87740472D01*
X205013617Y-87704267D01*
X204525810Y-87656824D01*
X204017417Y-87600181D01*
X203507012Y-87536375D01*
X203013168Y-87467444D01*
X202554458Y-87395425D01*
X202149456Y-87322356D01*
X201816734Y-87250273D01*
X201809609Y-87248530D01*
X201470078Y-87160498D01*
X201089955Y-87053877D01*
X200691569Y-86935764D01*
X200297250Y-86813253D01*
X199929327Y-86693439D01*
X199610127Y-86583416D01*
X199361981Y-86490279D01*
X199207217Y-86421124D01*
X199189515Y-86411497D01*
X199069387Y-86346981D01*
X199011721Y-86317460D01*
X198999983Y-86293605D01*
X198962920Y-86174317D01*
X198908571Y-85975356D01*
X198903288Y-85954855D01*
X199501896Y-85954855D01*
X199503752Y-85973936D01*
X199562619Y-85985642D01*
X199701881Y-85969173D01*
X199933116Y-85922868D01*
X200267905Y-85845069D01*
X200579357Y-85774750D01*
X201020940Y-85685626D01*
X201467953Y-85604898D01*
X201859854Y-85544015D01*
X202127346Y-85509190D01*
X202373846Y-85483256D01*
X202608662Y-85468044D01*
X202858034Y-85463058D01*
X203148207Y-85467803D01*
X203505421Y-85481786D01*
X203955920Y-85504511D01*
X204461334Y-85533472D01*
X205128200Y-85580388D01*
X205697747Y-85633339D01*
X206183450Y-85694408D01*
X206598786Y-85765679D01*
X206957233Y-85849239D01*
X207272267Y-85947170D01*
X207557366Y-86061559D01*
X207561717Y-86063512D01*
X207778446Y-86160109D01*
X207906361Y-86211531D01*
X207965825Y-86221159D01*
X207977201Y-86192376D01*
X207960851Y-86128562D01*
X207937716Y-86029713D01*
X207897434Y-85816627D01*
X207848292Y-85527492D01*
X207793971Y-85186198D01*
X207738154Y-84816638D01*
X207684521Y-84442702D01*
X207636754Y-84088280D01*
X207598534Y-83777265D01*
X207564343Y-83453413D01*
X207509666Y-82768185D01*
X207476896Y-82081427D01*
X207465431Y-81408153D01*
X207474670Y-80763378D01*
X207504010Y-80162116D01*
X207552850Y-79619382D01*
X207620587Y-79150190D01*
X207706622Y-78769555D01*
X207810350Y-78492491D01*
X207867053Y-78374970D01*
X207881820Y-78300526D01*
X207830734Y-78276895D01*
X207697177Y-78297510D01*
X207464535Y-78355802D01*
X207333220Y-78382089D01*
X207037076Y-78415066D01*
X206659123Y-78435858D01*
X206222523Y-78444459D01*
X205750434Y-78440861D01*
X205266017Y-78425056D01*
X204792432Y-78397037D01*
X204352839Y-78356797D01*
X203875043Y-78294820D01*
X203182909Y-78182178D01*
X202453166Y-78041335D01*
X201727917Y-77880556D01*
X201049262Y-77708109D01*
X201011803Y-77697906D01*
X200737187Y-77626265D01*
X200509395Y-77572190D01*
X200351222Y-77540782D01*
X200285465Y-77537146D01*
X200275516Y-77550865D01*
X200249970Y-77669404D01*
X200250382Y-77852709D01*
X200272723Y-78059308D01*
X200312960Y-78247731D01*
X200367062Y-78376507D01*
X200417094Y-78451974D01*
X200511195Y-78633972D01*
X200576111Y-78841765D01*
X200616135Y-79098705D01*
X200635563Y-79428147D01*
X200638689Y-79853444D01*
X200624720Y-80276138D01*
X200585887Y-80824240D01*
X200526434Y-81425717D01*
X200450440Y-82047496D01*
X200361981Y-82656506D01*
X200265134Y-83219675D01*
X200163978Y-83703930D01*
X200146193Y-83777640D01*
X200072915Y-84060267D01*
X199979206Y-84400556D01*
X199873572Y-84769591D01*
X199764519Y-85138455D01*
X199660552Y-85478231D01*
X199570176Y-85760004D01*
X199501896Y-85954855D01*
X198903288Y-85954855D01*
X198842691Y-85719700D01*
X198771035Y-85430328D01*
X198699360Y-85130217D01*
X198633419Y-84842346D01*
X198578969Y-84589694D01*
X198522627Y-84307109D01*
X198450427Y-83894840D01*
X198401390Y-83518190D01*
X198373536Y-83146221D01*
X198364887Y-82747993D01*
X198373465Y-82292568D01*
X198397290Y-81749007D01*
X198397903Y-81737127D01*
X198449741Y-80891208D01*
X198513135Y-80155943D01*
X198590190Y-79522662D01*
X198683006Y-78982691D01*
X198793689Y-78527360D01*
X198924341Y-78147997D01*
X199077064Y-77835930D01*
X199253963Y-77582487D01*
X199457141Y-77378997D01*
X199551022Y-77293047D01*
X199678043Y-77147771D01*
X199742318Y-77032687D01*
X199756168Y-76983737D01*
X199784549Y-76932112D01*
X199840714Y-76891037D01*
X199942745Y-76854479D01*
X200108725Y-76816408D01*
X200356735Y-76770790D01*
X200704859Y-76711594D01*
X200977214Y-76666996D01*
X202356140Y-76481587D01*
X203662151Y-76376932D01*
X204907697Y-76352329D01*
X206105227Y-76407076D01*
X206544909Y-76448109D01*
X206948320Y-76503654D01*
X207268988Y-76574175D01*
X207526577Y-76665325D01*
X207740750Y-76782760D01*
X207931172Y-76932133D01*
X208162801Y-77141395D01*
X208276831Y-77000573D01*
X208304534Y-76967064D01*
X208380465Y-76900342D01*
X208469833Y-76894968D01*
X208621445Y-76942751D01*
X208774378Y-77002223D01*
X208978310Y-77110898D01*
X209088537Y-77227850D01*
X209121604Y-77367116D01*
X209121616Y-77369238D01*
X209143498Y-77509746D01*
X209199166Y-77716059D01*
X209276820Y-77944307D01*
X209417086Y-78376462D01*
X209555429Y-79080786D01*
X209600231Y-79843737D01*
X209600198Y-79862305D01*
X209558120Y-80906400D01*
X209438300Y-82026578D01*
X209242870Y-83209894D01*
X208973961Y-84443404D01*
X208633705Y-85714162D01*
X208494074Y-86192376D01*
X208444229Y-86363088D01*
G37*
G36*
X191311707Y-100420203D02*
G01*
X191234928Y-100479276D01*
X191092600Y-100491861D01*
X191053974Y-100492815D01*
X190954057Y-100508401D01*
X190947613Y-100536790D01*
X191059295Y-100641125D01*
X191193198Y-100846057D01*
X191291447Y-101083757D01*
X191329623Y-101305114D01*
X191329623Y-101563414D01*
X190817053Y-101527241D01*
X190682435Y-101518358D01*
X190466138Y-101511321D01*
X190314067Y-101524655D01*
X190188885Y-101563538D01*
X190053255Y-101633146D01*
X189957301Y-101681765D01*
X189715507Y-101778821D01*
X189472547Y-101851063D01*
X189423138Y-101861142D01*
X189136625Y-101891355D01*
X188755694Y-101898889D01*
X188298944Y-101885583D01*
X187784973Y-101853275D01*
X187232381Y-101803806D01*
X186659766Y-101739013D01*
X186085726Y-101660737D01*
X185528861Y-101570816D01*
X185007769Y-101471090D01*
X184541050Y-101363398D01*
X184114515Y-101249463D01*
X183679350Y-101124815D01*
X183256176Y-100996068D01*
X182862306Y-100868987D01*
X182515052Y-100749337D01*
X182231726Y-100642882D01*
X182029642Y-100555389D01*
X181926111Y-100492621D01*
X181918796Y-100483989D01*
X181862873Y-100368215D01*
X181794391Y-100169534D01*
X182361829Y-100169534D01*
X182366369Y-100170636D01*
X182449068Y-100158336D01*
X182611780Y-100122243D01*
X182825302Y-100068708D01*
X182831262Y-100067149D01*
X183069505Y-100009140D01*
X183384031Y-99938376D01*
X183734616Y-99863660D01*
X184081038Y-99793800D01*
X184200538Y-99770808D01*
X184487671Y-99719788D01*
X184743490Y-99683743D01*
X184998210Y-99660374D01*
X185282046Y-99647380D01*
X185625212Y-99642462D01*
X186057925Y-99643320D01*
X186526198Y-99650830D01*
X187203763Y-99676874D01*
X187866313Y-99719028D01*
X188487711Y-99775185D01*
X189041819Y-99843237D01*
X189502500Y-99921077D01*
X189792140Y-99994604D01*
X190127664Y-100104561D01*
X190419711Y-100223342D01*
X190635612Y-100320868D01*
X190765909Y-100368303D01*
X190824165Y-100368256D01*
X190827446Y-100324984D01*
X190804055Y-100224570D01*
X190763802Y-100010893D01*
X190714569Y-99720759D01*
X190659977Y-99377646D01*
X190603646Y-99005032D01*
X190549197Y-98626393D01*
X190500250Y-98265208D01*
X190460425Y-97944953D01*
X190442994Y-97789340D01*
X190384399Y-97136787D01*
X190346355Y-96474448D01*
X190328215Y-95816623D01*
X190329336Y-95177610D01*
X190349071Y-94571706D01*
X190386776Y-94013211D01*
X190441805Y-93516423D01*
X190513512Y-93095640D01*
X190601253Y-92765161D01*
X190704382Y-92539284D01*
X190717331Y-92519680D01*
X190759736Y-92452065D01*
X190761104Y-92418547D01*
X190702529Y-92417422D01*
X190565103Y-92446985D01*
X190329920Y-92505534D01*
X190300783Y-92512607D01*
X190063463Y-92556666D01*
X189777089Y-92585912D01*
X189418204Y-92602083D01*
X188963349Y-92606920D01*
X188877077Y-92606660D01*
X187989446Y-92577583D01*
X187097370Y-92497985D01*
X186176685Y-92364421D01*
X185203227Y-92173451D01*
X184152833Y-91921631D01*
X183962663Y-91872815D01*
X183667020Y-91798282D01*
X183423822Y-91738674D01*
X183254220Y-91699135D01*
X183179366Y-91684812D01*
X183155604Y-91715589D01*
X183131774Y-91836822D01*
X183122547Y-92018602D01*
X183124216Y-92102535D01*
X183164476Y-92367150D01*
X183271330Y-92606272D01*
X183284641Y-92629566D01*
X183385931Y-92860153D01*
X183457688Y-93141456D01*
X183499905Y-93482815D01*
X183512571Y-93893569D01*
X183495678Y-94383061D01*
X183449216Y-94960629D01*
X183373175Y-95635615D01*
X183267547Y-96417359D01*
X183222133Y-96723092D01*
X183132008Y-97261914D01*
X183032193Y-97758713D01*
X182913889Y-98251768D01*
X182768299Y-98779356D01*
X182586624Y-99379753D01*
X182562161Y-99458522D01*
X182478859Y-99732777D01*
X182413650Y-99956936D01*
X182372614Y-100109641D01*
X182361829Y-100169534D01*
X181794391Y-100169534D01*
X181789269Y-100154674D01*
X181702533Y-99860338D01*
X181607219Y-99502182D01*
X181507875Y-99097180D01*
X181409053Y-98662304D01*
X181315305Y-98214529D01*
X181310374Y-98188694D01*
X181273835Y-97894327D01*
X181251076Y-97503911D01*
X181241390Y-97038038D01*
X181244073Y-96517300D01*
X181258419Y-95962288D01*
X181283724Y-95393594D01*
X181319281Y-94831808D01*
X181364386Y-94297523D01*
X181418334Y-93811329D01*
X181480418Y-93393818D01*
X181574978Y-92947116D01*
X181731440Y-92439194D01*
X181922183Y-92017594D01*
X182142178Y-91692963D01*
X182386395Y-91475949D01*
X182533451Y-91347400D01*
X182581089Y-91197084D01*
X182581420Y-91142497D01*
X182589424Y-91097380D01*
X182618892Y-91060441D01*
X182683657Y-91027804D01*
X182797554Y-90995590D01*
X182974416Y-90959920D01*
X183228077Y-90916918D01*
X183572371Y-90862705D01*
X184021132Y-90793403D01*
X184210123Y-90764712D01*
X185304783Y-90621595D01*
X186319510Y-90532029D01*
X187277205Y-90495032D01*
X188200772Y-90509621D01*
X189113113Y-90574811D01*
X189499305Y-90617369D01*
X189889981Y-90676258D01*
X190195408Y-90746859D01*
X190434799Y-90835038D01*
X190627365Y-90946663D01*
X190792317Y-91087600D01*
X191016701Y-91311984D01*
X191128233Y-91167661D01*
X191213679Y-91076507D01*
X191306309Y-91052714D01*
X191457478Y-91085401D01*
X191547490Y-91114821D01*
X191778136Y-91233381D01*
X191932371Y-91382727D01*
X191988585Y-91544190D01*
X191990780Y-91574207D01*
X192022018Y-91727225D01*
X192082527Y-91943654D01*
X192162384Y-92186812D01*
X192255034Y-92470133D01*
X192366048Y-92917538D01*
X192431206Y-93377207D01*
X192454684Y-93883411D01*
X192440659Y-94470425D01*
X192439314Y-94497551D01*
X192395967Y-95183232D01*
X192334262Y-95838585D01*
X192250461Y-96483835D01*
X192140826Y-97139202D01*
X192001618Y-97824909D01*
X191829098Y-98561180D01*
X191619528Y-99368235D01*
X191369169Y-100266298D01*
X191365156Y-100280208D01*
X191348061Y-100324984D01*
X191311707Y-100420203D01*
G37*
G36*
X164099077Y-85858314D02*
G01*
X164045845Y-85949712D01*
X163980990Y-85986794D01*
X163887245Y-85993774D01*
X163707016Y-85993774D01*
X163853946Y-86188467D01*
X163882491Y-86228867D01*
X164006130Y-86465487D01*
X164096656Y-86734105D01*
X164132119Y-86972832D01*
X164125118Y-87020450D01*
X164087614Y-87051412D01*
X163997369Y-87063375D01*
X163832193Y-87059034D01*
X163569895Y-87041081D01*
X163327813Y-87024621D01*
X163140296Y-87020142D01*
X163014400Y-87034275D01*
X162919559Y-87070815D01*
X162825205Y-87133560D01*
X162768436Y-87170923D01*
X162569817Y-87269804D01*
X162354390Y-87345820D01*
X162118161Y-87392496D01*
X161817536Y-87418036D01*
X161448213Y-87420009D01*
X160998059Y-87398109D01*
X160454947Y-87352028D01*
X159806746Y-87281460D01*
X159694036Y-87268125D01*
X159106135Y-87195291D01*
X158611647Y-87127087D01*
X158188354Y-87059732D01*
X157814041Y-86989446D01*
X157466492Y-86912452D01*
X157123491Y-86824968D01*
X157006351Y-86792850D01*
X156691733Y-86702941D01*
X156350637Y-86601346D01*
X156003276Y-86494523D01*
X155669866Y-86388932D01*
X155370621Y-86291033D01*
X155125755Y-86207285D01*
X154955485Y-86144148D01*
X154880024Y-86108081D01*
X154847008Y-86085130D01*
X154727230Y-86053680D01*
X154708739Y-86042905D01*
X154652576Y-85941492D01*
X154581340Y-85747704D01*
X154534756Y-85594951D01*
X155163762Y-85594951D01*
X155168367Y-85658147D01*
X155198852Y-85667523D01*
X155199748Y-85667247D01*
X155342263Y-85628804D01*
X155570691Y-85573070D01*
X155853956Y-85507058D01*
X156160979Y-85437780D01*
X156460682Y-85372252D01*
X156721989Y-85317486D01*
X156913821Y-85280495D01*
X157188074Y-85234895D01*
X157629270Y-85175589D01*
X158058399Y-85139427D01*
X158508128Y-85124879D01*
X159011122Y-85130412D01*
X159600046Y-85154493D01*
X159921369Y-85171577D01*
X160501716Y-85207175D01*
X160989979Y-85245132D01*
X161404808Y-85287498D01*
X161764853Y-85336321D01*
X162088763Y-85393650D01*
X162395189Y-85461533D01*
X162436643Y-85471875D01*
X162729561Y-85556805D01*
X163019360Y-85657657D01*
X163248844Y-85754784D01*
X163359268Y-85808310D01*
X163506492Y-85866272D01*
X163573278Y-85849747D01*
X163576845Y-85745898D01*
X163534412Y-85541885D01*
X163532300Y-85532670D01*
X163479501Y-85263749D01*
X163420481Y-84901572D01*
X163358388Y-84471222D01*
X163296368Y-83997781D01*
X163237568Y-83506334D01*
X163185136Y-83021964D01*
X163142219Y-82569755D01*
X163111963Y-82174788D01*
X163100132Y-81966070D01*
X163081534Y-81368439D01*
X163083413Y-80767974D01*
X163104349Y-80182131D01*
X163142920Y-79628364D01*
X163197705Y-79124127D01*
X163267284Y-78686874D01*
X163350234Y-78334061D01*
X163445134Y-78083140D01*
X163470235Y-78034418D01*
X163514430Y-77934878D01*
X163494788Y-77908542D01*
X163404566Y-77929946D01*
X163329172Y-77950991D01*
X162750508Y-78070231D01*
X162118245Y-78126594D01*
X161406745Y-78122552D01*
X160776904Y-78086519D01*
X159824485Y-77995994D01*
X158884806Y-77858872D01*
X157919920Y-77669260D01*
X156891875Y-77421263D01*
X156693121Y-77370255D01*
X156403321Y-77298799D01*
X156168865Y-77244632D01*
X156009882Y-77212326D01*
X155946500Y-77206456D01*
X155935227Y-77235478D01*
X155910791Y-77356445D01*
X155885828Y-77533816D01*
X155872868Y-77727933D01*
X155899072Y-77876778D01*
X155977191Y-78014957D01*
X155985538Y-78026848D01*
X156131936Y-78314278D01*
X156226381Y-78683177D01*
X156270511Y-79143120D01*
X156265963Y-79703680D01*
X156187532Y-80772662D01*
X156006583Y-82135130D01*
X155740134Y-83473505D01*
X155394285Y-84752446D01*
X155333395Y-84950497D01*
X155243458Y-85254320D01*
X155187852Y-85464740D01*
X155163762Y-85594951D01*
X154534756Y-85594951D01*
X154499500Y-85479345D01*
X154411524Y-85154216D01*
X154321881Y-84790118D01*
X154235040Y-84404854D01*
X154155469Y-84016225D01*
X154087637Y-83642033D01*
X154036013Y-83300080D01*
X154026338Y-83219151D01*
X153997001Y-82804255D01*
X153987197Y-82296091D01*
X153996383Y-81714803D01*
X154024014Y-81080534D01*
X154069545Y-80413429D01*
X154132432Y-79733633D01*
X154221556Y-79066546D01*
X154348364Y-78443742D01*
X154506081Y-77917373D01*
X154692772Y-77492716D01*
X154906503Y-77175052D01*
X155145339Y-76969658D01*
X155285159Y-76852232D01*
X155366986Y-76698698D01*
X155376258Y-76659165D01*
X155405615Y-76599669D01*
X155468081Y-76554224D01*
X155584904Y-76514259D01*
X155777328Y-76471206D01*
X156066598Y-76416495D01*
X157045618Y-76254349D01*
X158198246Y-76109342D01*
X159304845Y-76020172D01*
X160337021Y-75989674D01*
X160586674Y-75993896D01*
X160953611Y-76010360D01*
X161352034Y-76037003D01*
X161756742Y-76071411D01*
X162142530Y-76111172D01*
X162484195Y-76153870D01*
X162756532Y-76197093D01*
X162934340Y-76238426D01*
X163068597Y-76292849D01*
X163269803Y-76400918D01*
X163464108Y-76528265D01*
X163617420Y-76652014D01*
X163695647Y-76749288D01*
X163716325Y-76784845D01*
X163770659Y-76780666D01*
X163870161Y-76687567D01*
X163935006Y-76623597D01*
X164045019Y-76567558D01*
X164182861Y-76585861D01*
X164301750Y-76626404D01*
X164507674Y-76728398D01*
X164668699Y-76847509D01*
X164762018Y-76965064D01*
X164764826Y-77062388D01*
X164765913Y-77127767D01*
X164800238Y-77285375D01*
X164863239Y-77507866D01*
X164948383Y-77770054D01*
X164985614Y-77879409D01*
X165069377Y-78143143D01*
X165125543Y-78367269D01*
X165161070Y-78591641D01*
X165182911Y-78856114D01*
X165198023Y-79200544D01*
X165198407Y-79985343D01*
X165132826Y-80986215D01*
X164997804Y-82057328D01*
X164795429Y-83185417D01*
X164527792Y-84357216D01*
X164196978Y-85559458D01*
X164157953Y-85688390D01*
X164138027Y-85745898D01*
X164099077Y-85858314D01*
G37*
G36*
X117352746Y-98985685D02*
G01*
X117300420Y-99071014D01*
X117240519Y-99106222D01*
X117159624Y-99113114D01*
X116991647Y-99113114D01*
X117169040Y-99398480D01*
X117209594Y-99468499D01*
X117313837Y-99708176D01*
X117361259Y-99922654D01*
X117376085Y-100161463D01*
X116831252Y-100141984D01*
X116632788Y-100136161D01*
X116431142Y-100138525D01*
X116291264Y-100158579D01*
X116179308Y-100202182D01*
X116061430Y-100275188D01*
X116014776Y-100304814D01*
X115809936Y-100405497D01*
X115617819Y-100464313D01*
X115590570Y-100468964D01*
X115434591Y-100499738D01*
X115339292Y-100525277D01*
X115337202Y-100525989D01*
X115249510Y-100533025D01*
X115069084Y-100535032D01*
X114821058Y-100532046D01*
X114530566Y-100524103D01*
X114458782Y-100521375D01*
X113936977Y-100489160D01*
X113352964Y-100435203D01*
X112737072Y-100363631D01*
X112119631Y-100278575D01*
X111530972Y-100184163D01*
X111001426Y-100084523D01*
X110561322Y-99983784D01*
X110478893Y-99962220D01*
X110113279Y-99862769D01*
X109731434Y-99753659D01*
X109352181Y-99640805D01*
X108994344Y-99530121D01*
X108676744Y-99427519D01*
X108418207Y-99338914D01*
X108237554Y-99270219D01*
X108153609Y-99227349D01*
X108116288Y-99202540D01*
X107994660Y-99173019D01*
X107968133Y-99165570D01*
X107924058Y-99115034D01*
X107874873Y-99004457D01*
X107815632Y-98819552D01*
X107807815Y-98790753D01*
X108377388Y-98790753D01*
X108382017Y-98791959D01*
X108465120Y-98780099D01*
X108628145Y-98744306D01*
X108841812Y-98690878D01*
X108847771Y-98689319D01*
X109086014Y-98631310D01*
X109400540Y-98560545D01*
X109751126Y-98485830D01*
X110097547Y-98415970D01*
X110217048Y-98392978D01*
X110504181Y-98341958D01*
X110759999Y-98305913D01*
X111014719Y-98282544D01*
X111298555Y-98269550D01*
X111641722Y-98264632D01*
X112074434Y-98265490D01*
X112542707Y-98273000D01*
X113220272Y-98299044D01*
X113882822Y-98341198D01*
X114504220Y-98397355D01*
X115058329Y-98465407D01*
X115519009Y-98543247D01*
X115808434Y-98616778D01*
X116145293Y-98727295D01*
X116439102Y-98846880D01*
X116619829Y-98930784D01*
X116764363Y-98992083D01*
X116836958Y-99008122D01*
X116857725Y-98982439D01*
X116846773Y-98918569D01*
X116844510Y-98909237D01*
X116803126Y-98709334D01*
X116751451Y-98418831D01*
X116693562Y-98064296D01*
X116633536Y-97672296D01*
X116575447Y-97269396D01*
X116523373Y-96882166D01*
X116481390Y-96537170D01*
X116466392Y-96400145D01*
X116402615Y-95680911D01*
X116362649Y-94964541D01*
X116345898Y-94265461D01*
X116351768Y-93598101D01*
X116379664Y-92976888D01*
X116428993Y-92416250D01*
X116499158Y-91930615D01*
X116589566Y-91534411D01*
X116699622Y-91242066D01*
X116818017Y-91008990D01*
X116677712Y-91049647D01*
X116229250Y-91159772D01*
X115775782Y-91226586D01*
X115281932Y-91253177D01*
X114710283Y-91243226D01*
X113933576Y-91197084D01*
X113016345Y-91105333D01*
X112108124Y-90969668D01*
X111171570Y-90784337D01*
X110169342Y-90543584D01*
X109979209Y-90494823D01*
X109683554Y-90420355D01*
X109440343Y-90360797D01*
X109270733Y-90321292D01*
X109195875Y-90306982D01*
X109170222Y-90345660D01*
X109147720Y-90474987D01*
X109139057Y-90663755D01*
X109147929Y-90868806D01*
X109191425Y-91062042D01*
X109283494Y-91233370D01*
X109363172Y-91371427D01*
X109449556Y-91601610D01*
X109507224Y-91884980D01*
X109536477Y-92232132D01*
X109537617Y-92653658D01*
X109510942Y-93160154D01*
X109456755Y-93762211D01*
X109375355Y-94470425D01*
X109322572Y-94872621D01*
X109170899Y-95820588D01*
X108985982Y-96702777D01*
X108759386Y-97556496D01*
X108482677Y-98419051D01*
X108426843Y-98588328D01*
X108386308Y-98729841D01*
X108377388Y-98790753D01*
X107807815Y-98790753D01*
X107741386Y-98546029D01*
X107647187Y-98169600D01*
X107566669Y-97835049D01*
X107446090Y-97297826D01*
X107356889Y-96829767D01*
X107296134Y-96401725D01*
X107260895Y-95984550D01*
X107248243Y-95549094D01*
X107255247Y-95066207D01*
X107278977Y-94506741D01*
X107289976Y-94298618D01*
X107334638Y-93579029D01*
X107385354Y-92961843D01*
X107444125Y-92433320D01*
X107512951Y-91979720D01*
X107593834Y-91587304D01*
X107688775Y-91242331D01*
X107799776Y-90931061D01*
X107860639Y-90793949D01*
X108005875Y-90534376D01*
X108170557Y-90303629D01*
X108333776Y-90129340D01*
X108474626Y-90039142D01*
X108560166Y-89967808D01*
X108620123Y-89831486D01*
X108631439Y-89783223D01*
X108656232Y-89729116D01*
X108704487Y-89683691D01*
X108789786Y-89643219D01*
X108925710Y-89603970D01*
X109125843Y-89562213D01*
X109403766Y-89514218D01*
X109773061Y-89456254D01*
X110247311Y-89384592D01*
X111049102Y-89277055D01*
X111952596Y-89185551D01*
X112815581Y-89129195D01*
X113602028Y-89110926D01*
X113859033Y-89115660D01*
X114227057Y-89131861D01*
X114626591Y-89157383D01*
X115032429Y-89189962D01*
X115419363Y-89227334D01*
X115762184Y-89267235D01*
X116035685Y-89307402D01*
X116214658Y-89345570D01*
X116333268Y-89390859D01*
X116533219Y-89497017D01*
X116729122Y-89627691D01*
X116885783Y-89758595D01*
X116968011Y-89865444D01*
X116990886Y-89903793D01*
X117043336Y-89893866D01*
X117136391Y-89791734D01*
X117269162Y-89625225D01*
X117532293Y-89727053D01*
X117618818Y-89761028D01*
X117804311Y-89844737D01*
X117913026Y-89927136D01*
X117972477Y-90035223D01*
X118010180Y-90195999D01*
X118052917Y-90377793D01*
X118124492Y-90625158D01*
X118207631Y-90876085D01*
X118358196Y-91388058D01*
X118453154Y-91968244D01*
X118483269Y-92613350D01*
X118456716Y-93419674D01*
X118369598Y-94378877D01*
X118225405Y-95396770D01*
X118027841Y-96451151D01*
X117780612Y-97519818D01*
X117487424Y-98580568D01*
X117410919Y-98828433D01*
X117353947Y-98982439D01*
X117352746Y-98985685D01*
G37*
G36*
X153003320Y-90326314D02*
G01*
X155411580Y-90338330D01*
X157752500Y-90362132D01*
X157974751Y-90365006D01*
X159345540Y-90383683D01*
X160604155Y-90402735D01*
X161757211Y-90422500D01*
X162811324Y-90443318D01*
X163773109Y-90465527D01*
X164649181Y-90489468D01*
X165446155Y-90515477D01*
X166170648Y-90543896D01*
X166829273Y-90575062D01*
X167428647Y-90609315D01*
X167975384Y-90646993D01*
X168476100Y-90688437D01*
X168937409Y-90733984D01*
X169365929Y-90783974D01*
X169768272Y-90838747D01*
X170151056Y-90898640D01*
X170520895Y-90963993D01*
X170884403Y-91035145D01*
X171496024Y-91160261D01*
X172052564Y-91022505D01*
X172093905Y-91012287D01*
X172267574Y-90970858D01*
X172418579Y-90940722D01*
X172567245Y-90921228D01*
X172733900Y-90911728D01*
X172938869Y-90911571D01*
X173202481Y-90920107D01*
X173545060Y-90936687D01*
X173986934Y-90960661D01*
X174146674Y-90969579D01*
X174569757Y-90994261D01*
X174971256Y-91019103D01*
X175326655Y-91042510D01*
X175611436Y-91062888D01*
X175801085Y-91078643D01*
X176020886Y-91096287D01*
X176173254Y-91094921D01*
X176267370Y-91068560D01*
X176334544Y-91013375D01*
X176381875Y-90968385D01*
X176524432Y-90912841D01*
X176693067Y-90961197D01*
X176900247Y-91115708D01*
X176989356Y-91192053D01*
X177119629Y-91287912D01*
X177199046Y-91325378D01*
X177232585Y-91347676D01*
X177235702Y-91440345D01*
X177233148Y-91460331D01*
X177248798Y-91592835D01*
X177297470Y-91792512D01*
X177371067Y-92024426D01*
X177498635Y-92426020D01*
X177590814Y-92829942D01*
X177643652Y-93247420D01*
X177661419Y-93712883D01*
X177648384Y-94260755D01*
X177556754Y-95471799D01*
X177355509Y-96906986D01*
X177050952Y-98382812D01*
X176641729Y-99906864D01*
X176521255Y-100311227D01*
X176293691Y-100311227D01*
X176066126Y-100311227D01*
X175968258Y-99778680D01*
X175895913Y-99370282D01*
X175695335Y-98000942D01*
X175572584Y-96705455D01*
X175528063Y-95489215D01*
X175562178Y-94357621D01*
X175592392Y-93941458D01*
X175633433Y-93491633D01*
X175680411Y-93131782D01*
X175737782Y-92845021D01*
X175810003Y-92614466D01*
X175901528Y-92423233D01*
X176016815Y-92254439D01*
X176160318Y-92091201D01*
X176262179Y-91975035D01*
X176307514Y-91885972D01*
X176272476Y-91835960D01*
X176147912Y-91821703D01*
X175924670Y-91839909D01*
X175593596Y-91887284D01*
X175483378Y-91904297D01*
X174588144Y-92025263D01*
X173587434Y-92133098D01*
X172493316Y-92227321D01*
X171317861Y-92307454D01*
X170073139Y-92373017D01*
X168771218Y-92423533D01*
X167424169Y-92458522D01*
X166044062Y-92477504D01*
X164642966Y-92480002D01*
X163232950Y-92465535D01*
X161826085Y-92433626D01*
X161825219Y-92433601D01*
X161008348Y-92410992D01*
X160130592Y-92388989D01*
X159187042Y-92367513D01*
X158172786Y-92346485D01*
X157082914Y-92325827D01*
X155912516Y-92305459D01*
X154656681Y-92285302D01*
X153310498Y-92265279D01*
X151869057Y-92245309D01*
X150327447Y-92225315D01*
X148680758Y-92205217D01*
X146924079Y-92184937D01*
X145052500Y-92164395D01*
X144658843Y-92160143D01*
X143038086Y-92141892D01*
X141528791Y-92123572D01*
X140124184Y-92105022D01*
X138817492Y-92086085D01*
X137601940Y-92066600D01*
X136470756Y-92046408D01*
X135417165Y-92025350D01*
X134434393Y-92003266D01*
X133515667Y-91979998D01*
X132654213Y-91955385D01*
X131843257Y-91929269D01*
X131076025Y-91901490D01*
X130345744Y-91871889D01*
X129645640Y-91840307D01*
X128968939Y-91806583D01*
X128308868Y-91770560D01*
X127981092Y-91751231D01*
X127215897Y-91700660D01*
X126499960Y-91645674D01*
X125845036Y-91587451D01*
X125262878Y-91527169D01*
X124765241Y-91466005D01*
X124363878Y-91405139D01*
X124070542Y-91345748D01*
X124054919Y-91342088D01*
X123960461Y-91345858D01*
X123935755Y-91431360D01*
X123948720Y-91504550D01*
X124022330Y-91622181D01*
X124082219Y-91686563D01*
X124190167Y-91908563D01*
X124265987Y-92236153D01*
X124309428Y-92662514D01*
X124320240Y-93180824D01*
X124298172Y-93784262D01*
X124242974Y-94466010D01*
X124154396Y-95219246D01*
X124068010Y-95814204D01*
X123935207Y-96560412D01*
X123775273Y-97275107D01*
X123577767Y-98003656D01*
X123332249Y-98791424D01*
X123284120Y-98937734D01*
X123181744Y-99242070D01*
X123104280Y-99454636D01*
X123043856Y-99591680D01*
X122992597Y-99669451D01*
X122942630Y-99704199D01*
X122886081Y-99712170D01*
X122784726Y-99689486D01*
X122686328Y-99607335D01*
X122684807Y-99604385D01*
X122640770Y-99481529D01*
X122580344Y-99263910D01*
X122508365Y-98973646D01*
X122429664Y-98632856D01*
X122349077Y-98263658D01*
X122271436Y-97888170D01*
X122201576Y-97528509D01*
X122144330Y-97206795D01*
X122104532Y-96945145D01*
X122080203Y-96742354D01*
X122057886Y-96481515D01*
X122046978Y-96208349D01*
X122047121Y-95896088D01*
X122057957Y-95517965D01*
X122079127Y-95047214D01*
X122084913Y-94933819D01*
X122137109Y-94101318D01*
X122201641Y-93379040D01*
X122279914Y-92758900D01*
X122373334Y-92232815D01*
X122483304Y-91792700D01*
X122611231Y-91430472D01*
X122758519Y-91138045D01*
X122842747Y-91007529D01*
X123098012Y-90709897D01*
X123378956Y-90522943D01*
X123693774Y-90440557D01*
X123995660Y-90411549D01*
X123995660Y-90628841D01*
X123995660Y-90846133D01*
X124340118Y-90846007D01*
X124437991Y-90844742D01*
X124655752Y-90840006D01*
X124968265Y-90832122D01*
X125361761Y-90821472D01*
X125822470Y-90808441D01*
X126336624Y-90793410D01*
X126890453Y-90776764D01*
X127470189Y-90758886D01*
X130690660Y-90662624D01*
X133824346Y-90577908D01*
X136849200Y-90505522D01*
X139770410Y-90445397D01*
X142593162Y-90397465D01*
X145322642Y-90361659D01*
X147964038Y-90337910D01*
X150522535Y-90326151D01*
X153003320Y-90326314D01*
G37*
G36*
X136802588Y-71311830D02*
G01*
X136733405Y-71355628D01*
X136634531Y-71376793D01*
X136632231Y-71377141D01*
X136505668Y-71401824D01*
X136482092Y-71434523D01*
X136545654Y-71496604D01*
X136639102Y-71603485D01*
X136753875Y-71810035D01*
X136839655Y-72044648D01*
X136874062Y-72255600D01*
X136875377Y-72445492D01*
X136305773Y-72411509D01*
X136244243Y-72407953D01*
X135983910Y-72397718D01*
X135812143Y-72403454D01*
X135703296Y-72427462D01*
X135631725Y-72472047D01*
X135541924Y-72538289D01*
X135282824Y-72657914D01*
X134928443Y-72757334D01*
X134811648Y-72775799D01*
X134516889Y-72792446D01*
X134133287Y-72788519D01*
X133679358Y-72765963D01*
X133173619Y-72726719D01*
X132634587Y-72672729D01*
X132080779Y-72605937D01*
X131530711Y-72528283D01*
X131002900Y-72441712D01*
X130515862Y-72348164D01*
X130088116Y-72249583D01*
X129879459Y-72195023D01*
X129474669Y-72084135D01*
X129058225Y-71964524D01*
X128651377Y-71842747D01*
X128275372Y-71725357D01*
X127951458Y-71618909D01*
X127700885Y-71529958D01*
X127544899Y-71465058D01*
X127521527Y-71452861D01*
X127459765Y-71409235D01*
X127407944Y-71342073D01*
X127358775Y-71232714D01*
X127304971Y-71062495D01*
X127300967Y-71047283D01*
X127899484Y-71047283D01*
X127927188Y-71047434D01*
X128049654Y-71025814D01*
X128245623Y-70982150D01*
X128489141Y-70921959D01*
X128606310Y-70892137D01*
X129387872Y-70715124D01*
X130114469Y-70595148D01*
X130827899Y-70528064D01*
X131569961Y-70509729D01*
X132382453Y-70536000D01*
X132916103Y-70568663D01*
X133701311Y-70632399D01*
X134371560Y-70708746D01*
X134929489Y-70798027D01*
X135377736Y-70900563D01*
X135381620Y-70901642D01*
X135641720Y-70983665D01*
X135893020Y-71078833D01*
X136081627Y-71166765D01*
X136158798Y-71207440D01*
X136290441Y-71257088D01*
X136336226Y-71235301D01*
X136333986Y-71208896D01*
X136316387Y-71077611D01*
X136284142Y-70861652D01*
X136240673Y-70583604D01*
X136189400Y-70266051D01*
X136111224Y-69778702D01*
X136037655Y-69282760D01*
X135981878Y-68843255D01*
X135941572Y-68430822D01*
X135914411Y-68016097D01*
X135898072Y-67569717D01*
X135890232Y-67062315D01*
X135888565Y-66464529D01*
X135890442Y-66025341D01*
X135899269Y-65453430D01*
X135916542Y-64977995D01*
X135943652Y-64585100D01*
X135981990Y-64260808D01*
X136032944Y-63991182D01*
X136097906Y-63762285D01*
X136178264Y-63560179D01*
X136317730Y-63255546D01*
X135892662Y-63374677D01*
X135799006Y-63399614D01*
X135614026Y-63438926D01*
X135412298Y-63465395D01*
X135168078Y-63481039D01*
X134855625Y-63487878D01*
X134449198Y-63487932D01*
X133790782Y-63473519D01*
X133037282Y-63426619D01*
X132290638Y-63343596D01*
X131522174Y-63220435D01*
X130703214Y-63053120D01*
X129805080Y-62837635D01*
X129492839Y-62758724D01*
X129191008Y-62683511D01*
X128947367Y-62623956D01*
X128781203Y-62584770D01*
X128711802Y-62570661D01*
X128692461Y-62607587D01*
X128675023Y-62735224D01*
X128668302Y-62922549D01*
X128674152Y-63084733D01*
X128721396Y-63325996D01*
X128831674Y-63566535D01*
X128839132Y-63580170D01*
X128939578Y-63848414D01*
X129002541Y-64210200D01*
X129028086Y-64669599D01*
X129016277Y-65230683D01*
X128967179Y-65897526D01*
X128880856Y-66674199D01*
X128796283Y-67306250D01*
X128701262Y-67913531D01*
X128596681Y-68466036D01*
X128475413Y-68997699D01*
X128330334Y-69542459D01*
X128154316Y-70134250D01*
X128098675Y-70315965D01*
X128014183Y-70600263D01*
X127949106Y-70830226D01*
X127909015Y-70985888D01*
X127899484Y-71047283D01*
X127300967Y-71047283D01*
X127239244Y-70812755D01*
X127154307Y-70464833D01*
X127112706Y-70291174D01*
X126996063Y-69790936D01*
X126906511Y-69373331D01*
X126841104Y-69013010D01*
X126796899Y-68684622D01*
X126770953Y-68362816D01*
X126760320Y-68022244D01*
X126762057Y-67637554D01*
X126773220Y-67183397D01*
X126778353Y-67019926D01*
X126809391Y-66269218D01*
X126850441Y-65618217D01*
X126902978Y-65050402D01*
X126968473Y-64549254D01*
X127048402Y-64098255D01*
X127074852Y-63971135D01*
X127175892Y-63551253D01*
X127285103Y-63218972D01*
X127414026Y-62948883D01*
X127574202Y-62715574D01*
X127777170Y-62493637D01*
X127825535Y-62444941D01*
X127980216Y-62272874D01*
X128088419Y-62126801D01*
X128129151Y-62034127D01*
X128129142Y-62028593D01*
X128131434Y-61986968D01*
X128148403Y-61953404D01*
X128194847Y-61924013D01*
X128285567Y-61894906D01*
X128435360Y-61862193D01*
X128659026Y-61821985D01*
X128971363Y-61770395D01*
X129387170Y-61703531D01*
X130114972Y-61595152D01*
X131250222Y-61464688D01*
X132316909Y-61394267D01*
X133336232Y-61382711D01*
X134329387Y-61428842D01*
X134668374Y-61456548D01*
X135095658Y-61501658D01*
X135434023Y-61554851D01*
X135702096Y-61621109D01*
X135918504Y-61705414D01*
X136101872Y-61812746D01*
X136270826Y-61948087D01*
X136558169Y-62206434D01*
X136637037Y-62059066D01*
X136647182Y-62040216D01*
X136704170Y-61952635D01*
X136770909Y-61921064D01*
X136881203Y-61941727D01*
X137068859Y-62010850D01*
X137219524Y-62074496D01*
X137406406Y-62187143D01*
X137503254Y-62314240D01*
X137528588Y-62474463D01*
X137532412Y-62528234D01*
X137568449Y-62706334D01*
X137634491Y-62942252D01*
X137720906Y-63199670D01*
X137772079Y-63342145D01*
X137831238Y-63523288D01*
X137872941Y-63689930D01*
X137901016Y-63868931D01*
X137919294Y-64087151D01*
X137931606Y-64371451D01*
X137941780Y-64748689D01*
X137944540Y-64901926D01*
X137944647Y-65321805D01*
X137935700Y-65748999D01*
X137918853Y-66141174D01*
X137895259Y-66456001D01*
X137873145Y-66658391D01*
X137764479Y-67433309D01*
X137613625Y-68274534D01*
X137427423Y-69149220D01*
X137212714Y-70024522D01*
X136976342Y-70867595D01*
X136917844Y-71058076D01*
X136858571Y-71220835D01*
X136849671Y-71235301D01*
X136802588Y-71311830D01*
G37*
G36*
X223010862Y-50157906D02*
G01*
X223665667Y-50290421D01*
X223892003Y-50359464D01*
X224173759Y-50458376D01*
X224406581Y-50553231D01*
X224727028Y-50699524D01*
X224292712Y-50704432D01*
X224191368Y-50706333D01*
X223981202Y-50720304D01*
X223880168Y-50750106D01*
X223880703Y-50799764D01*
X223975241Y-50873302D01*
X224055358Y-50952008D01*
X224125104Y-51151941D01*
X224130563Y-51449391D01*
X224071927Y-51846273D01*
X224043744Y-51976686D01*
X223945334Y-52349339D01*
X223810644Y-52761677D01*
X223635347Y-53224150D01*
X223415117Y-53747206D01*
X223145629Y-54341295D01*
X222822557Y-55016865D01*
X222441575Y-55784365D01*
X222323221Y-56020143D01*
X222140346Y-56391184D01*
X221994877Y-56701921D01*
X221875341Y-56981676D01*
X221770267Y-57259768D01*
X221668185Y-57565516D01*
X221557621Y-57928242D01*
X221427106Y-58377265D01*
X221354804Y-58630212D01*
X220816602Y-60608029D01*
X220295901Y-62689923D01*
X219795502Y-64862758D01*
X219318207Y-67113397D01*
X218866815Y-69428703D01*
X218444130Y-71795539D01*
X218052952Y-74200768D01*
X217994703Y-74578792D01*
X217882454Y-75317450D01*
X217773774Y-76047711D01*
X217667661Y-76777546D01*
X217563115Y-77514930D01*
X217459134Y-78267833D01*
X217354717Y-79044229D01*
X217248862Y-79852091D01*
X217140569Y-80699390D01*
X217028835Y-81594099D01*
X216912661Y-82544191D01*
X216791044Y-83557638D01*
X216662984Y-84642412D01*
X216527478Y-85806487D01*
X216383526Y-87057834D01*
X216230127Y-88404426D01*
X216066279Y-89854236D01*
X215890980Y-91415236D01*
X215782546Y-92379617D01*
X215563835Y-94299826D01*
X215353931Y-96106910D01*
X215152204Y-97805115D01*
X214958025Y-99398688D01*
X214770766Y-100891879D01*
X214589797Y-102288934D01*
X214414490Y-103594100D01*
X214244215Y-104811625D01*
X214078345Y-105945757D01*
X213916249Y-107000743D01*
X213757299Y-107980831D01*
X213600866Y-108890268D01*
X213446321Y-109733302D01*
X213293035Y-110514180D01*
X213140379Y-111237150D01*
X212987724Y-111906459D01*
X212834442Y-112526355D01*
X212679903Y-113101085D01*
X212651932Y-113200524D01*
X212551527Y-113553930D01*
X212461961Y-113863838D01*
X212388533Y-114112259D01*
X212336539Y-114281207D01*
X212311279Y-114352691D01*
X212272454Y-114367249D01*
X212132939Y-114378721D01*
X211916906Y-114379049D01*
X211649447Y-114367668D01*
X211474916Y-114357550D01*
X211184087Y-114342935D01*
X210932255Y-114332888D01*
X210759690Y-114329151D01*
X210499434Y-114329151D01*
X210499434Y-113167288D01*
X210499681Y-113040084D01*
X210502998Y-112704959D01*
X210510825Y-112365744D01*
X210523974Y-112010932D01*
X210543256Y-111629018D01*
X210569482Y-111208498D01*
X210603463Y-110737865D01*
X210646012Y-110205615D01*
X210697938Y-109600242D01*
X210760055Y-108910240D01*
X210833172Y-108124105D01*
X210918102Y-107230331D01*
X210963843Y-106751832D01*
X211026395Y-106093849D01*
X211084500Y-105476939D01*
X211139064Y-104890397D01*
X211190989Y-104323522D01*
X211241179Y-103765611D01*
X211290538Y-103205961D01*
X211339968Y-102633872D01*
X211390374Y-102038639D01*
X211442658Y-101409561D01*
X211497726Y-100735935D01*
X211556479Y-100007059D01*
X211619821Y-99212230D01*
X211688657Y-98340746D01*
X211763889Y-97381905D01*
X211846421Y-96325004D01*
X211937157Y-95159340D01*
X212018250Y-94119120D01*
X212130712Y-92687276D01*
X212236099Y-91360102D01*
X212335196Y-90128766D01*
X212428788Y-88984437D01*
X212517661Y-87918286D01*
X212602600Y-86921482D01*
X212684390Y-85985194D01*
X212763816Y-85100592D01*
X212841664Y-84258845D01*
X212918719Y-83451124D01*
X212995767Y-82668596D01*
X213073591Y-81902433D01*
X213152979Y-81143803D01*
X213234715Y-80383876D01*
X213319584Y-79613821D01*
X213451378Y-78462056D01*
X213851047Y-75295725D01*
X214293119Y-72240790D01*
X214777689Y-69296726D01*
X215304853Y-66463010D01*
X215874706Y-63739116D01*
X216487344Y-61124520D01*
X217142861Y-58618700D01*
X217185158Y-58464357D01*
X217261045Y-58180671D01*
X217319976Y-57951107D01*
X217356785Y-57796070D01*
X217366307Y-57735961D01*
X217365105Y-57735590D01*
X217291865Y-57741391D01*
X217117030Y-57762231D01*
X216855867Y-57796090D01*
X216523646Y-57840948D01*
X216135636Y-57894783D01*
X215707105Y-57955574D01*
X214747767Y-58088893D01*
X212851343Y-58327327D01*
X210940595Y-58533473D01*
X208994887Y-58709104D01*
X206993584Y-58855997D01*
X204916050Y-58975926D01*
X202741651Y-59070665D01*
X202557012Y-59077398D01*
X202052227Y-59094442D01*
X201554207Y-59108974D01*
X201051447Y-59121084D01*
X200532439Y-59130861D01*
X199985679Y-59138396D01*
X199399660Y-59143780D01*
X198762875Y-59147103D01*
X198063820Y-59148454D01*
X197290987Y-59147924D01*
X196432871Y-59145603D01*
X195477965Y-59141582D01*
X194414764Y-59135950D01*
X194318022Y-59135397D01*
X193595900Y-59131252D01*
X192927472Y-59127265D01*
X192305511Y-59123236D01*
X191722793Y-59118963D01*
X191172091Y-59114247D01*
X190646181Y-59108885D01*
X190137836Y-59102678D01*
X189639830Y-59095425D01*
X189144940Y-59086925D01*
X188645937Y-59076977D01*
X188135598Y-59065381D01*
X187606697Y-59051936D01*
X187052007Y-59036440D01*
X186464304Y-59018694D01*
X185836362Y-58998497D01*
X185160954Y-58975648D01*
X184430857Y-58949945D01*
X183638843Y-58921190D01*
X182777688Y-58889180D01*
X181840166Y-58853714D01*
X180819051Y-58814594D01*
X179707117Y-58771616D01*
X178497140Y-58724582D01*
X177181893Y-58673289D01*
X175754151Y-58617538D01*
X175217989Y-58596965D01*
X174335343Y-58564821D01*
X173458955Y-58535230D01*
X172578318Y-58507975D01*
X171682927Y-58482837D01*
X170762276Y-58459599D01*
X169805860Y-58438042D01*
X168803172Y-58417949D01*
X167743708Y-58399100D01*
X166616960Y-58381279D01*
X165412424Y-58364266D01*
X164119594Y-58347844D01*
X162727964Y-58331794D01*
X161227028Y-58315899D01*
X161026387Y-58313834D01*
X160129472Y-58304134D01*
X159231847Y-58293701D01*
X158345564Y-58282712D01*
X157482675Y-58271346D01*
X156655231Y-58259781D01*
X155875284Y-58248194D01*
X155154886Y-58236762D01*
X154506088Y-58225665D01*
X153940942Y-58215079D01*
X153471499Y-58205182D01*
X153109811Y-58196152D01*
X151740578Y-58156105D01*
X150155284Y-58106161D01*
X148488426Y-58050041D01*
X146737082Y-57987623D01*
X144898329Y-57918784D01*
X142969243Y-57843402D01*
X140946902Y-57761353D01*
X138828384Y-57672514D01*
X136610766Y-57576764D01*
X134291125Y-57473980D01*
X131866539Y-57364038D01*
X129334084Y-57246816D01*
X126690838Y-57122191D01*
X123933879Y-56990040D01*
X121060283Y-56850241D01*
X118976649Y-56749481D01*
X116708352Y-56642847D01*
X114497425Y-56542152D01*
X112350774Y-56447678D01*
X110275303Y-56359703D01*
X108277916Y-56278509D01*
X106365519Y-56204375D01*
X104545016Y-56137581D01*
X102823311Y-56078408D01*
X101207309Y-56027134D01*
X99703915Y-55984041D01*
X99230288Y-55971160D01*
X98673988Y-55955736D01*
X98135028Y-55940497D01*
X97633896Y-55926037D01*
X97191076Y-55912946D01*
X96827054Y-55901819D01*
X96562317Y-55893245D01*
X96175511Y-55886825D01*
X95738313Y-55890963D01*
X95313191Y-55904823D01*
X94953897Y-55927270D01*
X94557406Y-55953726D01*
X94080471Y-55958282D01*
X93632524Y-55926421D01*
X93427934Y-55899608D01*
X93114383Y-55849139D01*
X92771018Y-55786223D01*
X92427498Y-55716906D01*
X92113484Y-55647233D01*
X91858634Y-55583249D01*
X91692609Y-55531001D01*
X91689519Y-55529820D01*
X91652252Y-55535524D01*
X91658902Y-55604649D01*
X91713404Y-55751409D01*
X91819694Y-55990018D01*
X91916622Y-56208953D01*
X92120719Y-56751612D01*
X92280849Y-57319797D01*
X92400133Y-57931681D01*
X92481688Y-58605442D01*
X92528635Y-59359256D01*
X92544091Y-60211297D01*
X92542727Y-60654926D01*
X92537348Y-61100420D01*
X92527305Y-61551078D01*
X92511954Y-62018312D01*
X92490652Y-62513537D01*
X92462756Y-63048165D01*
X92427624Y-63633609D01*
X92384611Y-64281284D01*
X92333075Y-65002602D01*
X92272374Y-65808976D01*
X92201863Y-66711820D01*
X92120901Y-67722548D01*
X92030527Y-68830496D01*
X91900732Y-70384264D01*
X91775425Y-71835698D01*
X91653528Y-73195145D01*
X91533966Y-74472957D01*
X91415661Y-75679483D01*
X91297539Y-76825071D01*
X91178523Y-77920072D01*
X91057536Y-78974834D01*
X90933502Y-79999708D01*
X90805346Y-81005042D01*
X90671990Y-82001187D01*
X90532359Y-82998491D01*
X90064955Y-85985362D01*
X89519003Y-88933401D01*
X88902455Y-91785996D01*
X88215066Y-94544015D01*
X87456587Y-97208323D01*
X86626773Y-99779787D01*
X85725376Y-102259274D01*
X84752150Y-104647649D01*
X83706847Y-106945779D01*
X83537061Y-107292729D01*
X83398971Y-107557048D01*
X83294349Y-107732305D01*
X83216636Y-107829446D01*
X83159272Y-107859417D01*
X83138797Y-107858726D01*
X83003340Y-107846502D01*
X82795596Y-107822160D01*
X82551499Y-107789814D01*
X82052857Y-107720136D01*
X82091308Y-107055894D01*
X82106167Y-106803783D01*
X82160260Y-105956921D01*
X82220471Y-105124570D01*
X82287949Y-104298492D01*
X82363842Y-103470452D01*
X82449298Y-102632210D01*
X82545464Y-101775531D01*
X82653489Y-100892178D01*
X82774521Y-99973913D01*
X82909707Y-99012499D01*
X83060197Y-97999700D01*
X83227137Y-96927277D01*
X83411676Y-95786995D01*
X83614962Y-94570616D01*
X83838143Y-93269902D01*
X84082367Y-91876618D01*
X84348782Y-90382525D01*
X84638535Y-88779387D01*
X84689243Y-88500196D01*
X84938438Y-87120835D01*
X85165881Y-85847897D01*
X85372998Y-84672100D01*
X85561214Y-83584164D01*
X85731956Y-82574809D01*
X85886648Y-81634754D01*
X86026716Y-80754718D01*
X86153586Y-79925421D01*
X86268684Y-79137582D01*
X86373435Y-78381921D01*
X86469264Y-77649158D01*
X86557598Y-76930010D01*
X86639862Y-76215199D01*
X86717482Y-75495443D01*
X86791883Y-74761463D01*
X86870384Y-73940618D01*
X86938221Y-73168915D01*
X86993131Y-72456362D01*
X87036354Y-71777406D01*
X87069131Y-71106490D01*
X87092704Y-70418059D01*
X87108313Y-69686557D01*
X87117198Y-68886431D01*
X87120603Y-67992123D01*
X87120737Y-67834877D01*
X87119627Y-67050398D01*
X87114648Y-66360349D01*
X87104744Y-65743334D01*
X87088861Y-65177960D01*
X87065942Y-64642831D01*
X87034934Y-64116554D01*
X86994781Y-63577735D01*
X86944427Y-63004978D01*
X86882818Y-62376890D01*
X86808898Y-61672076D01*
X86778553Y-61370319D01*
X86726877Y-60746531D01*
X86686699Y-60103590D01*
X86658233Y-59458773D01*
X86641692Y-58829362D01*
X86637288Y-58232634D01*
X86645235Y-57685870D01*
X86665746Y-57206350D01*
X86699035Y-56811352D01*
X86745314Y-56518156D01*
X86756934Y-56467031D01*
X86921848Y-55891183D01*
X87127263Y-55424165D01*
X87377564Y-55060869D01*
X87677139Y-54796184D01*
X88030372Y-54625002D01*
X88441651Y-54542214D01*
X88575017Y-54529842D01*
X88730843Y-54511879D01*
X88788788Y-54493590D01*
X88762668Y-54467945D01*
X88666297Y-54427915D01*
X88471604Y-54351865D01*
X88471604Y-53766818D01*
X88471604Y-53181770D01*
X89376376Y-52811359D01*
X89686857Y-52686238D01*
X90353984Y-52430261D01*
X91003116Y-52197896D01*
X91611972Y-51996655D01*
X92158271Y-51834053D01*
X92619732Y-51717604D01*
X92711294Y-51696922D01*
X92799904Y-51676678D01*
X92883636Y-51658745D01*
X92969418Y-51643049D01*
X93064176Y-51629517D01*
X93174837Y-51618075D01*
X93308329Y-51608649D01*
X93471577Y-51601165D01*
X93671510Y-51595549D01*
X93915053Y-51591727D01*
X94209135Y-51589625D01*
X94560681Y-51589169D01*
X94976619Y-51590286D01*
X95463876Y-51592901D01*
X96029378Y-51596940D01*
X96680054Y-51602329D01*
X97422828Y-51608995D01*
X98264629Y-51616864D01*
X99212384Y-51625861D01*
X100273019Y-51635913D01*
X101177082Y-51643076D01*
X102552451Y-51649530D01*
X104037253Y-51651729D01*
X105625458Y-51649716D01*
X107311034Y-51643532D01*
X109087950Y-51633222D01*
X110950176Y-51618827D01*
X112891680Y-51600390D01*
X114906431Y-51577954D01*
X116988399Y-51551561D01*
X119131551Y-51521254D01*
X121329859Y-51487076D01*
X123072304Y-51459238D01*
X125992862Y-51414742D01*
X128800002Y-51374860D01*
X131497719Y-51339598D01*
X134090010Y-51308961D01*
X136580868Y-51282955D01*
X138974289Y-51261586D01*
X141274268Y-51244861D01*
X143484800Y-51232785D01*
X145609879Y-51225364D01*
X147653502Y-51222604D01*
X149619662Y-51224511D01*
X151512355Y-51231091D01*
X153335576Y-51242349D01*
X155093320Y-51258292D01*
X156789582Y-51278926D01*
X158428357Y-51304256D01*
X160013640Y-51334289D01*
X161549426Y-51369030D01*
X163039710Y-51408485D01*
X164488487Y-51452661D01*
X165899752Y-51501563D01*
X167277500Y-51555197D01*
X167609172Y-51566777D01*
X167998247Y-51576461D01*
X168450377Y-51584256D01*
X168971237Y-51590173D01*
X169566501Y-51594223D01*
X170241844Y-51596414D01*
X171002939Y-51596758D01*
X171855461Y-51595264D01*
X172805084Y-51591942D01*
X173857482Y-51586801D01*
X175018330Y-51579853D01*
X176293302Y-51571108D01*
X177478090Y-51562941D01*
X178969926Y-51553754D01*
X180459530Y-51545756D01*
X181940714Y-51538941D01*
X183407289Y-51533302D01*
X184853068Y-51528832D01*
X186271862Y-51525524D01*
X187657483Y-51523372D01*
X189003743Y-51522367D01*
X190304453Y-51522504D01*
X191553427Y-51523775D01*
X192744475Y-51526174D01*
X193871410Y-51529694D01*
X194928043Y-51534328D01*
X195908186Y-51540068D01*
X196805652Y-51546908D01*
X197614251Y-51554841D01*
X198327797Y-51563861D01*
X198940100Y-51573960D01*
X199444972Y-51585131D01*
X199836226Y-51597367D01*
X200363896Y-51617894D01*
X201574117Y-51667294D01*
X202685398Y-51716407D01*
X203712539Y-51766140D01*
X204670340Y-51817401D01*
X205573599Y-51871099D01*
X206437116Y-51928140D01*
X207275692Y-51989433D01*
X208104125Y-52055885D01*
X208937215Y-52128404D01*
X209789762Y-52207898D01*
X210500137Y-52277301D01*
X212149582Y-52448506D01*
X213683097Y-52622708D01*
X215103415Y-52800240D01*
X216413270Y-52981438D01*
X217615396Y-53166636D01*
X217951074Y-53220460D01*
X218273753Y-53270372D01*
X218541502Y-53309867D01*
X218733240Y-53335841D01*
X218827884Y-53345189D01*
X218888566Y-53323457D01*
X218972954Y-53233870D01*
X219080951Y-53061480D01*
X219222770Y-52791975D01*
X219386026Y-52479751D01*
X219730515Y-51906477D01*
X220092893Y-51420949D01*
X220488440Y-51001553D01*
X220787298Y-50746814D01*
X221291150Y-50430106D01*
X221827259Y-50226930D01*
X222399277Y-50136470D01*
X223010862Y-50157906D01*
G37*
%TD*%
M02*
