M48
; DRILL file {KiCad 7.0.5} date Fri Jul 21 14:17:22 2023
; FORMAT={-:-/ absolute / inch / decimal}
; #@! TF.CreationDate,2023-07-21T14:17:22+03:00
; #@! TF.GenerationSoftware,Kicad,Pcbnew,7.0.5
; #@! TF.FileFunction,NonPlated,1,2,NPTH
FMAT,2
INCH
; #@! TA.AperFunction,NonPlated,NPTH,ComponentDrill
T1C0.0591
; #@! TA.AperFunction,NonPlated,NPTH,ComponentDrill
T2C0.0689
; #@! TA.AperFunction,NonPlated,NPTH,ComponentDrill
T3C0.0709
; #@! TA.AperFunction,NonPlated,NPTH,ComponentDrill
T4C0.0866
; #@! TA.AperFunction,NonPlated,NPTH,ComponentDrill
T5C0.1570
%
G90
G05
T1
X8.8945Y-1.4044
X9.0855Y-1.4044
T2
X3.2055Y-1.6059
X3.2055Y-2.3559
X3.2055Y-3.1059
X3.2055Y-3.8559
X3.2055Y-4.6059
X3.6055Y-1.6059
X3.6055Y-2.3559
X3.6055Y-3.1059
X3.6055Y-3.8559
X3.6055Y-4.6059
X3.9555Y-1.6059
X3.9555Y-2.3559
X3.9555Y-3.1059
X3.9555Y-3.8559
X3.9555Y-4.6059
X4.3555Y-1.6059
X4.3555Y-2.3559
X4.3555Y-3.1059
X4.3555Y-3.8559
X4.3555Y-4.6059
X4.7055Y-1.6059
X4.7055Y-2.3559
X4.7055Y-3.1059
X4.7055Y-3.8559
X4.7055Y-4.6059
X5.1055Y-1.6059
X5.1055Y-2.3559
X5.1055Y-3.1059
X5.1055Y-3.8559
X5.1055Y-4.6059
X5.4555Y-1.6059
X5.4555Y-2.3559
X5.4555Y-3.1059
X5.4555Y-3.8559
X5.4555Y-4.6059
X5.8555Y-1.6059
X5.8555Y-2.3559
X5.8555Y-3.1059
X5.8555Y-3.8559
X5.8555Y-4.6059
X6.2055Y-1.6059
X6.2055Y-2.3559
X6.2055Y-3.1059
X6.2055Y-3.8559
X6.2055Y-4.6059
X6.6055Y-1.6059
X6.6055Y-2.3559
X6.6055Y-3.1059
X6.6055Y-3.8559
X6.6055Y-4.6059
X6.9555Y-1.6059
X6.9555Y-2.3559
X6.9555Y-3.1059
X6.9555Y-3.8559
X6.9555Y-4.6059
X7.3555Y-1.6059
X7.3555Y-2.3559
X7.3555Y-3.1059
X7.3555Y-3.8559
X7.3555Y-4.6059
X7.7055Y-1.6059
X7.7055Y-2.3559
X7.7055Y-3.1059
X7.7055Y-3.8559
X7.7055Y-4.6059
X8.1055Y-1.6059
X8.1055Y-2.3559
X8.1055Y-3.1059
X8.1055Y-3.8559
X8.1055Y-4.6059
T3
X8.8827Y-1.2851
X9.0973Y-1.2851
T4
X3.0709Y-1.2812
X3.125Y-5.0312
X8.3438Y-1.2812
X8.3438Y-5.0312
T5
X3.4055Y-1.6059
X3.4055Y-2.3559
X3.4055Y-3.1059
X3.4055Y-3.8559
X3.4055Y-4.6059
X4.1555Y-1.6059
X4.1555Y-2.3559
X4.1555Y-3.1059
X4.1555Y-3.8559
X4.1555Y-4.6059
X4.9055Y-1.6059
X4.9055Y-2.3559
X4.9055Y-3.1059
X4.9055Y-3.8559
X4.9055Y-4.6059
X5.6555Y-1.6059
X5.6555Y-2.3559
X5.6555Y-3.1059
X5.6555Y-3.8559
X5.6555Y-4.6059
X6.4055Y-1.6059
X6.4055Y-2.3559
X6.4055Y-3.1059
X6.4055Y-3.8559
X6.4055Y-4.6059
X7.1555Y-1.6059
X7.1555Y-2.3559
X7.1555Y-3.1059
X7.1555Y-3.8559
X7.1555Y-4.6059
X7.9055Y-1.6059
X7.9055Y-2.3559
X7.9055Y-3.1059
X7.9055Y-3.8559
X7.9055Y-4.6059
T0
M30
