%TF.GenerationSoftware,KiCad,Pcbnew,7.0.5*%
%TF.CreationDate,2023-07-21T14:17:18+03:00*%
%TF.ProjectId,MacroPadPlate,4d616372-6f50-4616-9450-6c6174652e6b,rev?*%
%TF.SameCoordinates,Original*%
%TF.FileFunction,Soldermask,Top*%
%TF.FilePolarity,Negative*%
%FSLAX46Y46*%
G04 Gerber Fmt 4.6, Leading zero omitted, Abs format (unit mm)*
G04 Created by KiCad (PCBNEW 7.0.5) date 2023-07-21 14:17:18*
%MOMM*%
%LPD*%
G01*
G04 APERTURE LIST*
%ADD10C,2.200000*%
%ADD11O,1.800000X1.800000*%
%ADD12O,1.500000X1.500000*%
%ADD13O,1.700000X1.700000*%
%ADD14R,3.500000X1.700000*%
%ADD15R,1.700000X1.700000*%
%ADD16R,1.700000X3.500000*%
%ADD17C,1.750000*%
%ADD18C,3.987800*%
%ADD19C,3.300000*%
%ADD20R,1.800000X1.800000*%
G04 APERTURE END LIST*
D10*
%TO.C,REF\u002A\u002A*%
X211931250Y-32543750D03*
%TD*%
%TO.C,REF\u002A\u002A*%
X211931250Y-127793750D03*
%TD*%
%TO.C,REF\u002A\u002A*%
X78000000Y-32543750D03*
%TD*%
%TO.C,REF\u002A\u002A*%
X79375000Y-127793750D03*
%TD*%
D11*
%TO.C,U1*%
X225621000Y-32642000D03*
D12*
X225921000Y-35672000D03*
X230771000Y-35672000D03*
D11*
X231071000Y-32642000D03*
D13*
X219456000Y-32512000D03*
D14*
X218556000Y-32512000D03*
D13*
X219456000Y-35052000D03*
D14*
X218556000Y-35052000D03*
D15*
X219456000Y-37592000D03*
D14*
X218556000Y-37592000D03*
D13*
X219456000Y-40132000D03*
D14*
X218556000Y-40132000D03*
D13*
X219456000Y-42672000D03*
D14*
X218556000Y-42672000D03*
D13*
X219456000Y-45212000D03*
D14*
X218556000Y-45212000D03*
D13*
X219456000Y-47752000D03*
D14*
X218556000Y-47752000D03*
D15*
X219456000Y-50292000D03*
D14*
X218556000Y-50292000D03*
D13*
X219456000Y-52832000D03*
D14*
X218556000Y-52832000D03*
D13*
X219456000Y-55372000D03*
D14*
X218556000Y-55372000D03*
D13*
X219456000Y-57912000D03*
D14*
X218556000Y-57912000D03*
D13*
X219456000Y-60452000D03*
D14*
X218556000Y-60452000D03*
D15*
X219456000Y-62992000D03*
D14*
X218556000Y-62992000D03*
D13*
X219456000Y-65532000D03*
D14*
X218556000Y-65532000D03*
D13*
X219456000Y-68072000D03*
D14*
X218556000Y-68072000D03*
D13*
X219456000Y-70612000D03*
D14*
X218556000Y-70612000D03*
D13*
X219456000Y-73152000D03*
D14*
X218556000Y-73152000D03*
D15*
X219456000Y-75692000D03*
D14*
X218556000Y-75692000D03*
D13*
X219456000Y-78232000D03*
D14*
X218556000Y-78232000D03*
D13*
X219456000Y-80772000D03*
D14*
X218556000Y-80772000D03*
D13*
X237236000Y-80772000D03*
D14*
X238136000Y-80772000D03*
D13*
X237236000Y-78232000D03*
D14*
X238136000Y-78232000D03*
D15*
X237236000Y-75692000D03*
D14*
X238136000Y-75692000D03*
D13*
X237236000Y-73152000D03*
D14*
X238136000Y-73152000D03*
D13*
X237236000Y-70612000D03*
D14*
X238136000Y-70612000D03*
D13*
X237236000Y-68072000D03*
D14*
X238136000Y-68072000D03*
D13*
X237236000Y-65532000D03*
D14*
X238136000Y-65532000D03*
D15*
X237236000Y-62992000D03*
D14*
X238136000Y-62992000D03*
D13*
X237236000Y-60452000D03*
D14*
X238136000Y-60452000D03*
D13*
X237236000Y-57912000D03*
D14*
X238136000Y-57912000D03*
D13*
X237236000Y-55372000D03*
D14*
X238136000Y-55372000D03*
D13*
X237236000Y-52832000D03*
D14*
X238136000Y-52832000D03*
D15*
X237236000Y-50292000D03*
D14*
X238136000Y-50292000D03*
D13*
X237236000Y-47752000D03*
D14*
X238136000Y-47752000D03*
D13*
X237236000Y-45212000D03*
D14*
X238136000Y-45212000D03*
D13*
X237236000Y-42672000D03*
D14*
X238136000Y-42672000D03*
D13*
X237236000Y-40132000D03*
D14*
X238136000Y-40132000D03*
D15*
X237236000Y-37592000D03*
D14*
X238136000Y-37592000D03*
D13*
X237236000Y-35052000D03*
D14*
X238136000Y-35052000D03*
D13*
X237236000Y-32512000D03*
D14*
X238136000Y-32512000D03*
D13*
X225806000Y-80542000D03*
D16*
X225806000Y-81442000D03*
D15*
X228346000Y-80542000D03*
D16*
X228346000Y-81442000D03*
D13*
X230886000Y-80542000D03*
D16*
X230886000Y-81442000D03*
%TD*%
D17*
%TO.C,MX20*%
X110629300Y-78890000D03*
D18*
X105549300Y-78890000D03*
D17*
X100469300Y-78890000D03*
D19*
X101739300Y-76350000D03*
X108089300Y-73810000D03*
%TD*%
D20*
%TO.C,D25*%
X148873000Y-107442000D03*
D11*
X146333000Y-107442000D03*
%TD*%
D20*
%TO.C,D1*%
X206023000Y-50292000D03*
D11*
X203483000Y-50292000D03*
%TD*%
D17*
%TO.C,MX9*%
X186829300Y-59840000D03*
D18*
X181749300Y-59840000D03*
D17*
X176669300Y-59840000D03*
D19*
X177939300Y-57300000D03*
X184289300Y-54760000D03*
%TD*%
D17*
%TO.C,MX31*%
X167779300Y-116990000D03*
D18*
X162699300Y-116990000D03*
D17*
X157619300Y-116990000D03*
D19*
X158889300Y-114450000D03*
X165239300Y-111910000D03*
%TD*%
D17*
%TO.C,MX18*%
X148729300Y-78890000D03*
D18*
X143649300Y-78890000D03*
D17*
X138569300Y-78890000D03*
D19*
X139839300Y-76350000D03*
X146189300Y-73810000D03*
%TD*%
D17*
%TO.C,MX7*%
X91579300Y-40790000D03*
D18*
X86499300Y-40790000D03*
D17*
X81419300Y-40790000D03*
D19*
X82689300Y-38250000D03*
X89039300Y-35710000D03*
%TD*%
D17*
%TO.C,MX33*%
X129679300Y-116990000D03*
D18*
X124599300Y-116990000D03*
D17*
X119519300Y-116990000D03*
D19*
X120789300Y-114450000D03*
X127139300Y-111910000D03*
%TD*%
D17*
%TO.C,MX26*%
X129679300Y-97940000D03*
D18*
X124599300Y-97940000D03*
D17*
X119519300Y-97940000D03*
D19*
X120789300Y-95400000D03*
X127139300Y-92860000D03*
%TD*%
D17*
%TO.C,MX4*%
X148729300Y-40790000D03*
D18*
X143649300Y-40790000D03*
D17*
X138569300Y-40790000D03*
D19*
X139839300Y-38250000D03*
X146189300Y-35710000D03*
%TD*%
D17*
%TO.C,MX16*%
X186829300Y-78890000D03*
D18*
X181749300Y-78890000D03*
D17*
X176669300Y-78890000D03*
D19*
X177939300Y-76350000D03*
X184289300Y-73810000D03*
%TD*%
D17*
%TO.C,MX12*%
X129679300Y-59840000D03*
D18*
X124599300Y-59840000D03*
D17*
X119519300Y-59840000D03*
D19*
X120789300Y-57300000D03*
X127139300Y-54760000D03*
%TD*%
D20*
%TO.C,D29*%
X206023000Y-126492000D03*
D11*
X203483000Y-126492000D03*
%TD*%
D17*
%TO.C,MX35*%
X91579300Y-116990000D03*
D18*
X86499300Y-116990000D03*
D17*
X81419300Y-116990000D03*
D19*
X82689300Y-114450000D03*
X89039300Y-111910000D03*
%TD*%
D17*
%TO.C,MX17*%
X167779300Y-78890000D03*
D18*
X162699300Y-78890000D03*
D17*
X157619300Y-78890000D03*
D19*
X158889300Y-76350000D03*
X165239300Y-73810000D03*
%TD*%
D17*
%TO.C,MX13*%
X110629300Y-59840000D03*
D18*
X105549300Y-59840000D03*
D17*
X100469300Y-59840000D03*
D19*
X101739300Y-57300000D03*
X108089300Y-54760000D03*
%TD*%
D17*
%TO.C,MX28*%
X91579300Y-97940000D03*
D18*
X86499300Y-97940000D03*
D17*
X81419300Y-97940000D03*
D19*
X82689300Y-95400000D03*
X89039300Y-92860000D03*
%TD*%
D17*
%TO.C,MX3*%
X167779300Y-40790000D03*
D18*
X162699300Y-40790000D03*
D17*
X157619300Y-40790000D03*
D19*
X158889300Y-38250000D03*
X165239300Y-35710000D03*
%TD*%
D20*
%TO.C,D5*%
X130019300Y-50546000D03*
D11*
X127479300Y-50546000D03*
%TD*%
D20*
%TO.C,D31*%
X167923000Y-126492000D03*
D11*
X165383000Y-126492000D03*
%TD*%
D17*
%TO.C,MX14*%
X91579300Y-59840000D03*
D18*
X86499300Y-59840000D03*
D17*
X81419300Y-59840000D03*
D19*
X82689300Y-57300000D03*
X89039300Y-54760000D03*
%TD*%
D17*
%TO.C,MX22*%
X205879300Y-97940000D03*
D18*
X200799300Y-97940000D03*
D17*
X195719300Y-97940000D03*
D19*
X196989300Y-95400000D03*
X203339300Y-92860000D03*
%TD*%
D17*
%TO.C,MX30*%
X186829300Y-116990000D03*
D18*
X181749300Y-116990000D03*
D17*
X176669300Y-116990000D03*
D19*
X177939300Y-114450000D03*
X184289300Y-111910000D03*
%TD*%
D20*
%TO.C,D32*%
X148873000Y-126492000D03*
D11*
X146333000Y-126492000D03*
%TD*%
D17*
%TO.C,MX8*%
X205879300Y-59840000D03*
D18*
X200799300Y-59840000D03*
D17*
X195719300Y-59840000D03*
D19*
X196989300Y-57300000D03*
X203339300Y-54760000D03*
%TD*%
D20*
%TO.C,D10*%
X168148300Y-69596000D03*
D11*
X165608300Y-69596000D03*
%TD*%
D20*
%TO.C,D22*%
X206023000Y-107442000D03*
D11*
X203483000Y-107442000D03*
%TD*%
D17*
%TO.C,MX5*%
X129679300Y-40790000D03*
D18*
X124599300Y-40790000D03*
D17*
X119519300Y-40790000D03*
D19*
X120789300Y-38250000D03*
X127139300Y-35710000D03*
%TD*%
D17*
%TO.C,MX29*%
X205879300Y-116990000D03*
D18*
X200799300Y-116990000D03*
D17*
X195719300Y-116990000D03*
D19*
X196989300Y-114450000D03*
X203339300Y-111910000D03*
%TD*%
D20*
%TO.C,D16*%
X187169300Y-88392000D03*
D11*
X184629300Y-88392000D03*
%TD*%
D20*
%TO.C,D14*%
X91948300Y-69596000D03*
D11*
X89408300Y-69596000D03*
%TD*%
D17*
%TO.C,MX25*%
X148729300Y-97940000D03*
D18*
X143649300Y-97940000D03*
D17*
X138569300Y-97940000D03*
D19*
X139839300Y-95400000D03*
X146189300Y-92860000D03*
%TD*%
D17*
%TO.C,MX1*%
X205879300Y-40790000D03*
D18*
X200799300Y-40790000D03*
D17*
X195719300Y-40790000D03*
D19*
X196989300Y-38250000D03*
X203339300Y-35710000D03*
%TD*%
D20*
%TO.C,D21*%
X91723000Y-88392000D03*
D11*
X89183000Y-88392000D03*
%TD*%
D20*
%TO.C,D23*%
X186973000Y-107442000D03*
D11*
X184433000Y-107442000D03*
%TD*%
D20*
%TO.C,D35*%
X91723000Y-126492000D03*
D11*
X89183000Y-126492000D03*
%TD*%
D20*
%TO.C,D6*%
X110969300Y-50292000D03*
D11*
X108429300Y-50292000D03*
%TD*%
D17*
%TO.C,MX24*%
X167779300Y-97940000D03*
D18*
X162699300Y-97940000D03*
D17*
X157619300Y-97940000D03*
D19*
X158889300Y-95400000D03*
X165239300Y-92860000D03*
%TD*%
D20*
%TO.C,D2*%
X186944300Y-50546000D03*
D11*
X184404300Y-50546000D03*
%TD*%
D20*
%TO.C,D17*%
X168177000Y-88392000D03*
D11*
X165637000Y-88392000D03*
%TD*%
D20*
%TO.C,D30*%
X186973000Y-126492000D03*
D11*
X184433000Y-126492000D03*
%TD*%
D17*
%TO.C,MX15*%
X205879300Y-78890000D03*
D18*
X200799300Y-78890000D03*
D17*
X195719300Y-78890000D03*
D19*
X196989300Y-76350000D03*
X203339300Y-73810000D03*
%TD*%
D17*
%TO.C,MX32*%
X148729300Y-116990000D03*
D18*
X143649300Y-116990000D03*
D17*
X138569300Y-116990000D03*
D19*
X139839300Y-114450000D03*
X146189300Y-111910000D03*
%TD*%
D20*
%TO.C,D12*%
X130048300Y-69596000D03*
D11*
X127508300Y-69596000D03*
%TD*%
D20*
%TO.C,D9*%
X187198300Y-69342000D03*
D11*
X184658300Y-69342000D03*
%TD*%
D17*
%TO.C,MX6*%
X110629300Y-40790000D03*
D18*
X105549300Y-40790000D03*
D17*
X100469300Y-40790000D03*
D19*
X101739300Y-38250000D03*
X108089300Y-35710000D03*
%TD*%
D17*
%TO.C,MX11*%
X148729300Y-59840000D03*
D18*
X143649300Y-59840000D03*
D17*
X138569300Y-59840000D03*
D19*
X139839300Y-57300000D03*
X146189300Y-54760000D03*
%TD*%
D20*
%TO.C,D8*%
X206248300Y-69596000D03*
D11*
X203708300Y-69596000D03*
%TD*%
D17*
%TO.C,MX34*%
X110629300Y-116990000D03*
D18*
X105549300Y-116990000D03*
D17*
X100469300Y-116990000D03*
D19*
X101739300Y-114450000D03*
X108089300Y-111910000D03*
%TD*%
D17*
%TO.C,MX10*%
X167779300Y-59840000D03*
D18*
X162699300Y-59840000D03*
D17*
X157619300Y-59840000D03*
D19*
X158889300Y-57300000D03*
X165239300Y-54760000D03*
%TD*%
D17*
%TO.C,MX2*%
X186829300Y-40790000D03*
D18*
X181749300Y-40790000D03*
D17*
X176669300Y-40790000D03*
D19*
X177939300Y-38250000D03*
X184289300Y-35710000D03*
%TD*%
D17*
%TO.C,MX27*%
X110629300Y-97940000D03*
D18*
X105549300Y-97940000D03*
D17*
X100469300Y-97940000D03*
D19*
X101739300Y-95400000D03*
X108089300Y-92860000D03*
%TD*%
D17*
%TO.C,MX21*%
X91579300Y-78890000D03*
D18*
X86499300Y-78890000D03*
D17*
X81419300Y-78890000D03*
D19*
X82689300Y-76350000D03*
X89039300Y-73810000D03*
%TD*%
D20*
%TO.C,D33*%
X129823000Y-126492000D03*
D11*
X127283000Y-126492000D03*
%TD*%
D17*
%TO.C,MX23*%
X186829300Y-97940000D03*
D18*
X181749300Y-97940000D03*
D17*
X176669300Y-97940000D03*
D19*
X177939300Y-95400000D03*
X184289300Y-92860000D03*
%TD*%
D20*
%TO.C,D28*%
X91977000Y-107442000D03*
D11*
X89437000Y-107442000D03*
%TD*%
D20*
%TO.C,D27*%
X110773000Y-107442000D03*
D11*
X108233000Y-107442000D03*
%TD*%
D20*
%TO.C,D24*%
X167923000Y-107442000D03*
D11*
X165383000Y-107442000D03*
%TD*%
D20*
%TO.C,D34*%
X110773000Y-126746000D03*
D11*
X108233000Y-126746000D03*
%TD*%
D20*
%TO.C,D20*%
X110773000Y-88392000D03*
D11*
X108233000Y-88392000D03*
%TD*%
D20*
%TO.C,D11*%
X149098300Y-69342000D03*
D11*
X146558300Y-69342000D03*
%TD*%
D20*
%TO.C,D4*%
X149098300Y-50292000D03*
D11*
X146558300Y-50292000D03*
%TD*%
D20*
%TO.C,D18*%
X148873000Y-88392000D03*
D11*
X146333000Y-88392000D03*
%TD*%
D20*
%TO.C,D15*%
X205994300Y-88392000D03*
D11*
X203454300Y-88392000D03*
%TD*%
D20*
%TO.C,D26*%
X129823000Y-107442000D03*
D11*
X127283000Y-107442000D03*
%TD*%
D17*
%TO.C,MX19*%
X129679300Y-78890000D03*
D18*
X124599300Y-78890000D03*
D17*
X119519300Y-78890000D03*
D19*
X120789300Y-76350000D03*
X127139300Y-73810000D03*
%TD*%
D20*
%TO.C,D13*%
X110998300Y-69596000D03*
D11*
X108458300Y-69596000D03*
%TD*%
D20*
%TO.C,D19*%
X129823000Y-88392000D03*
D11*
X127283000Y-88392000D03*
%TD*%
D20*
%TO.C,D3*%
X168148300Y-50292000D03*
D11*
X165608300Y-50292000D03*
%TD*%
D20*
%TO.C,D7*%
X91919300Y-50546000D03*
D11*
X89379300Y-50546000D03*
%TD*%
M02*
