M48
; DRILL file {KiCad 7.0.5} date Fri Jul 21 14:17:22 2023
; FORMAT={-:-/ absolute / inch / decimal}
; #@! TF.CreationDate,2023-07-21T14:17:22+03:00
; #@! TF.GenerationSoftware,Kicad,Pcbnew,7.0.5
; #@! TF.FileFunction,Plated,1,2,PTH
FMAT,2
INCH
; #@! TA.AperFunction,Plated,PTH,ComponentDrill
T1C0.0354
; #@! TA.AperFunction,Plated,PTH,ComponentDrill
T2C0.0402
; #@! TA.AperFunction,Plated,PTH,ComponentDrill
T3C0.1181
%
G90
G05
T1
X3.5111Y-3.48
X3.5111Y-4.98
X3.5189Y-1.99
X3.52Y-2.74
X3.5211Y-4.23
X3.6111Y-3.48
X3.6111Y-4.98
X3.6189Y-1.99
X3.62Y-2.74
X3.6211Y-4.23
X4.2611Y-3.48
X4.2611Y-4.23
X4.2611Y-4.99
X4.2689Y-1.98
X4.27Y-2.74
X4.3611Y-3.48
X4.3611Y-4.23
X4.3611Y-4.99
X4.3689Y-1.98
X4.37Y-2.74
X5.0111Y-3.48
X5.0111Y-4.23
X5.0111Y-4.98
X5.0189Y-1.99
X5.02Y-2.74
X5.1111Y-3.48
X5.1111Y-4.23
X5.1111Y-4.98
X5.1189Y-1.99
X5.12Y-2.74
X5.7611Y-3.48
X5.7611Y-4.23
X5.7611Y-4.98
X5.77Y-1.98
X5.77Y-2.73
X5.8611Y-3.48
X5.8611Y-4.23
X5.8611Y-4.98
X5.87Y-1.98
X5.87Y-2.73
X6.5111Y-4.23
X6.5111Y-4.98
X6.52Y-1.98
X6.52Y-2.74
X6.5211Y-3.48
X6.6111Y-4.23
X6.6111Y-4.98
X6.62Y-1.98
X6.62Y-2.74
X6.6211Y-3.48
X7.26Y-1.99
X7.2611Y-4.23
X7.2611Y-4.98
X7.2689Y-3.48
X7.27Y-2.73
X7.36Y-1.99
X7.3611Y-4.23
X7.3611Y-4.98
X7.3689Y-3.48
X7.37Y-2.73
X8.01Y-3.48
X8.0111Y-1.98
X8.0111Y-4.23
X8.0111Y-4.98
X8.02Y-2.74
X8.11Y-3.48
X8.1111Y-1.98
X8.1111Y-4.23
X8.1111Y-4.98
X8.12Y-2.74
T2
X8.64Y-1.28
X8.64Y-1.38
X8.64Y-1.48
X8.64Y-1.58
X8.64Y-1.68
X8.64Y-1.78
X8.64Y-1.88
X8.64Y-1.98
X8.64Y-2.08
X8.64Y-2.18
X8.64Y-2.28
X8.64Y-2.38
X8.64Y-2.48
X8.64Y-2.58
X8.64Y-2.68
X8.64Y-2.78
X8.64Y-2.88
X8.64Y-2.98
X8.64Y-3.08
X8.64Y-3.18
X8.89Y-3.1709
X8.99Y-3.1709
X9.09Y-3.1709
X9.34Y-1.28
X9.34Y-1.38
X9.34Y-1.48
X9.34Y-1.58
X9.34Y-1.68
X9.34Y-1.78
X9.34Y-1.88
X9.34Y-1.98
X9.34Y-2.08
X9.34Y-2.18
X9.34Y-2.28
X9.34Y-2.38
X9.34Y-2.48
X9.34Y-2.58
X9.34Y-2.68
X9.34Y-2.78
X9.34Y-2.88
X9.34Y-2.98
X9.34Y-3.08
X9.34Y-3.18
T3
X3.2555Y-1.5059
X3.2555Y-2.2559
X3.2555Y-3.0059
X3.2555Y-3.7559
X3.2555Y-4.5059
X3.5055Y-1.4059
X3.5055Y-2.1559
X3.5055Y-2.9059
X3.5055Y-3.6559
X3.5055Y-4.4059
X4.0055Y-1.5059
X4.0055Y-2.2559
X4.0055Y-3.0059
X4.0055Y-3.7559
X4.0055Y-4.5059
X4.2555Y-1.4059
X4.2555Y-2.1559
X4.2555Y-2.9059
X4.2555Y-3.6559
X4.2555Y-4.4059
X4.7555Y-1.5059
X4.7555Y-2.2559
X4.7555Y-3.0059
X4.7555Y-3.7559
X4.7555Y-4.5059
X5.0055Y-1.4059
X5.0055Y-2.1559
X5.0055Y-2.9059
X5.0055Y-3.6559
X5.0055Y-4.4059
X5.5055Y-1.5059
X5.5055Y-2.2559
X5.5055Y-3.0059
X5.5055Y-3.7559
X5.5055Y-4.5059
X5.7555Y-1.4059
X5.7555Y-2.1559
X5.7555Y-2.9059
X5.7555Y-3.6559
X5.7555Y-4.4059
X6.2555Y-1.5059
X6.2555Y-2.2559
X6.2555Y-3.0059
X6.2555Y-3.7559
X6.2555Y-4.5059
X6.5055Y-1.4059
X6.5055Y-2.1559
X6.5055Y-2.9059
X6.5055Y-3.6559
X6.5055Y-4.4059
X7.0055Y-1.5059
X7.0055Y-2.2559
X7.0055Y-3.0059
X7.0055Y-3.7559
X7.0055Y-4.5059
X7.2555Y-1.4059
X7.2555Y-2.1559
X7.2555Y-2.9059
X7.2555Y-3.6559
X7.2555Y-4.4059
X7.7555Y-1.5059
X7.7555Y-2.2559
X7.7555Y-3.0059
X7.7555Y-3.7559
X7.7555Y-4.5059
X8.0055Y-1.4059
X8.0055Y-2.1559
X8.0055Y-2.9059
X8.0055Y-3.6559
X8.0055Y-4.4059
T0
M30
